<?xml version="1.0" encoding="UTF-8" standalone="no"?>
<!-- Created with Inkscape (http://www.inkscape.org/) -->

<svg
   xmlns:dc="http://purl.org/dc/elements/1.1/"
   xmlns:cc="http://creativecommons.org/ns#"
   xmlns:rdf="http://www.w3.org/1999/02/22-rdf-syntax-ns#"
   xmlns:svg="http://www.w3.org/2000/svg"
   xmlns="http://www.w3.org/2000/svg"
   xmlns:sodipodi="http://sodipodi.sourceforge.net/DTD/sodipodi-0.dtd"
   xmlns:inkscape="http://www.inkscape.org/namespaces/inkscape"
   width="384"
   height="96"
   viewBox="0 0 101.6 25.400001"
   id="svg2"
   version="1.1"
   inkscape:version="0.91+devel+osxmenu r12911"
   sodipodi:docname="logo.svg">
  <defs
     id="defs4" />
  <sodipodi:namedview
     id="base"
     pagecolor="#ffffff"
     bordercolor="#666666"
     borderopacity="1.0"
     inkscape:pageopacity="0.0"
     inkscape:pageshadow="2"
     inkscape:zoom="1.6982864"
     inkscape:cx="122.29473"
     inkscape:cy="28.31281"
     inkscape:document-units="px"
     inkscape:current-layer="text4228"
     showgrid="false"
     units="px" />
  <metadata
     id="metadata7">
    <rdf:RDF>
      <cc:Work
         rdf:about="">
        <dc:format>image/svg+xml</dc:format>
        <dc:type
           rdf:resource="http://purl.org/dc/dcmitype/StillImage" />
        <dc:title></dc:title>
      </cc:Work>
    </rdf:RDF>
  </metadata>
  <g
     inkscape:label="Laag 1"
     inkscape:groupmode="layer"
     id="layer1"
     transform="translate(0,-271.6)">
    <g
       id="g4222"
       transform="translate(-72.193452,-12.85119)" />
    <g
       transform="scale(1.0251059,0.97550893)"
       style="font-style:normal;font-variant:normal;font-weight:bold;font-stretch:condensed;font-size:11.79243279px;line-height:125%;font-family:'DIN Condensed';-inkscape-font-specification:'DIN Condensed, Bold Condensed';letter-spacing:0px;word-spacing:0px;fill:#364f68;fill-opacity:1;stroke:none;stroke-width:0.26458332px;stroke-linecap:butt;stroke-linejoin:miter;stroke-opacity:1"
       id="text4228">
      <path
         d="m 37.16459,289.58621 -1.202828,0 0,-0.27123 q 0,-0.41273 -0.200472,-0.70754 -0.188679,-0.30661 -0.648583,-0.30661 -0.247641,0 -0.412736,0.0943 -0.153301,0.0943 -0.247641,0.24764 -0.08255,0.14151 -0.117924,0.34198 -0.03538,0.18868 -0.03538,0.40095 0,0.24764 0.01179,0.42452 0.02359,0.1651 0.09434,0.29482 0.07075,0.11792 0.200471,0.21226 0.141509,0.0943 0.377358,0.18868 l 0.91981,0.36556 q 0.400942,0.15331 0.648583,0.36557 0.247641,0.20047 0.377358,0.48349 0.141509,0.27122 0.188679,0.63679 0.04717,0.35377 0.04717,0.81368 0,0.53066 -0.106132,0.99056 -0.106132,0.44811 -0.353773,0.7783 -0.235849,0.3184 -0.636791,0.50708 -0.400943,0.18868 -0.978772,0.18868 -0.43632,0 -0.813678,-0.15331 -0.377358,-0.1533 -0.648584,-0.41273 -0.271226,-0.27123 -0.43632,-0.63679 -0.153302,-0.36557 -0.153302,-0.79009 l 0,-0.44812 1.202829,0 0,0.37736 q 0,0.33019 0.188679,0.60141 0.200471,0.25944 0.660376,0.25944 0.306603,0 0.471697,-0.0826 0.176887,-0.0943 0.259434,-0.24764 0.09434,-0.16509 0.117924,-0.40094 0.02358,-0.23585 0.02358,-0.51887 0,-0.33019 -0.02358,-0.54245 -0.02359,-0.21227 -0.106132,-0.34198 -0.07075,-0.12972 -0.212264,-0.21227 -0.129717,-0.0825 -0.353773,-0.17688 l -0.860847,-0.35378 q -0.778301,-0.31839 -1.049527,-0.83726 -0.259433,-0.53066 -0.259433,-1.32075 0,-0.4717 0.129716,-0.89623 0.129717,-0.42452 0.377358,-0.73113 0.259434,-0.3066 0.648584,-0.48349 0.38915,-0.18867 0.908017,-0.18867 0.448113,0 0.813678,0.16509 0.377358,0.16509 0.636792,0.43632 0.271226,0.27123 0.412735,0.61321 0.141509,0.33018 0.141509,0.68396 l 0,0.58962 z"
         style="font-style:normal;font-variant:normal;font-weight:bold;font-stretch:condensed;font-family:'DIN Condensed';-inkscape-font-specification:'DIN Condensed, Bold Condensed';letter-spacing:0px;fill:#364f68;fill-opacity:1;stroke-width:0.26458332px"
         id="path4273" />
      <path
         d="m 39.195836,293.58384 q 0,0.43632 0.235849,0.64859 0.247641,0.20047 0.577829,0.20047 0.153302,0 0.259434,-0.0472 l -0.542452,-0.43632 0.613206,-0.73113 0.48349,0.38915 0,-0.0236 0,-4.43395 q 0,-0.43632 -0.247641,-0.63679 -0.235849,-0.21227 -0.566037,-0.21227 -0.330188,0 -0.577829,0.21227 -0.235849,0.20047 -0.235849,0.63679 l 0,4.43395 z m -1.202828,-4.43395 q 0,-0.50708 0.176887,-0.89623 0.176886,-0.38915 0.459905,-0.63679 0.29481,-0.25943 0.648583,-0.38915 0.365566,-0.12971 0.731131,-0.12971 0.365566,0 0.719339,0.12971 0.365565,0.12972 0.648583,0.38915 0.294811,0.24764 0.471698,0.63679 0.176886,0.38915 0.176886,0.89623 l 0,4.43395 q 0,0.49529 -0.176886,0.86085 l 0.742923,0.60141 -0.613207,0.73114 -0.707546,-0.57783 q -0.271225,0.22405 -0.601414,0.33018 -0.318395,0.10614 -0.660376,0.10614 -0.365565,0 -0.731131,-0.12972 -0.353773,-0.12972 -0.648583,-0.37736 -0.283019,-0.25943 -0.459905,-0.63679 -0.176887,-0.38915 -0.176887,-0.90802 l 0,-4.43395 z"
         style="font-style:normal;font-variant:normal;font-weight:bold;font-stretch:condensed;font-family:'DIN Condensed';-inkscape-font-specification:'DIN Condensed, Bold Condensed';letter-spacing:0px;fill:#364f68;fill-opacity:1;stroke-width:0.26458332px"
         id="path4275" />
      <path
         d="m 46.976262,293.67818 q 0,0.41274 -0.153301,0.76651 -0.153302,0.35377 -0.424528,0.625 -0.259434,0.25943 -0.613207,0.41273 -0.353773,0.15331 -0.754715,0.15331 -0.400943,0 -0.754716,-0.15331 -0.353773,-0.1533 -0.624999,-0.41273 -0.259433,-0.27123 -0.412735,-0.625 -0.153302,-0.35377 -0.153302,-0.76651 l 0,-6.50942 1.202828,0 0,6.3915 q 0,0.44811 0.212264,0.66037 0.212264,0.21227 0.53066,0.21227 0.318395,0 0.530659,-0.21227 0.212264,-0.21226 0.212264,-0.66037 l 0,-6.3915 1.202828,0 0,6.50942 z"
         style="font-style:normal;font-variant:normal;font-weight:bold;font-stretch:condensed;font-family:'DIN Condensed';-inkscape-font-specification:'DIN Condensed, Bold Condensed';letter-spacing:0px;fill:#364f68;fill-opacity:1;stroke-width:0.26458332px"
         id="path4277" />
      <path
         d="m 49.807184,289.58621 -0.02358,0 -0.589622,3.04245 1.202828,0 -0.589621,-3.04245 z m -0.507075,-2.41745 1.002357,0 1.874997,8.39621 -1.202828,0 -0.353773,-1.80424 -1.639149,0 -0.353773,1.80424 -1.202828,0 1.874997,-8.39621 z"
         style="font-style:normal;font-variant:normal;font-weight:bold;font-stretch:condensed;font-family:'DIN Condensed';-inkscape-font-specification:'DIN Condensed, Bold Condensed';letter-spacing:0px;fill:#364f68;fill-opacity:1;stroke-width:0.26458332px"
         id="path4279" />
      <path
         d="m 53.961068,290.91875 0.683962,0 q 0.318395,0 0.507074,-0.0825 0.188679,-0.0943 0.283019,-0.25944 0.106131,-0.16509 0.141509,-0.40094 0.03538,-0.24764 0.03538,-0.56604 0,-0.31839 -0.03538,-0.55424 -0.03538,-0.24764 -0.153302,-0.41274 -0.106132,-0.17688 -0.306603,-0.25943 -0.200472,-0.0825 -0.53066,-0.0825 l -0.624999,0 0,2.61792 z m -1.202828,-3.74999 1.933959,0 q 2.122638,0 2.122638,2.46462 0,0.73113 -0.235848,1.26179 -0.224057,0.51887 -0.801886,0.83726 l 1.297168,3.83254 -1.273583,0 -1.120281,-3.5849 -0.719339,0 0,3.5849 -1.202828,0 0,-8.39621 z"
         style="font-style:normal;font-variant:normal;font-weight:bold;font-stretch:condensed;font-family:'DIN Condensed';-inkscape-font-specification:'DIN Condensed, Bold Condensed';letter-spacing:0px;fill:#364f68;fill-opacity:1;stroke-width:0.26458332px"
         id="path4281" />
      <path
         d="m 57.756203,287.16876 3.5849,0 0,1.13207 -2.382072,0 0,2.46462 2.075469,0 0,1.13208 -2.075469,0 0,2.46461 2.382072,0 0,1.20283 -3.5849,0 0,-8.39621 z"
         style="font-style:normal;font-variant:normal;font-weight:bold;font-stretch:condensed;font-family:'DIN Condensed';-inkscape-font-specification:'DIN Condensed, Bold Condensed';letter-spacing:0px;fill:#364f68;fill-opacity:1;stroke-width:0.26458332px"
         id="path4283" />
      <path
         d="m 64.29732,287.16876 3.5849,0 0,1.13207 -2.382072,0 0,2.46462 2.075468,0 0,1.13208 -2.075468,0 0,2.46461 2.382072,0 0,1.20283 -3.5849,0 0,-8.39621 z"
         style="font-style:normal;font-variant:normal;font-weight:bold;font-stretch:condensed;font-family:'DIN Condensed';-inkscape-font-specification:'DIN Condensed, Bold Condensed';letter-spacing:0px;fill:#364f68;fill-opacity:1;stroke-width:0.26458332px"
         id="path4285" />
      <path
         d="m 71.00887,295.56497 -1.061319,0 -1.709903,-8.39621 1.273583,0 0.955187,5.86084 0.02358,0 0.96698,-5.86084 1.273582,0 -1.721695,8.39621 z"
         style="font-style:normal;font-variant:normal;font-weight:bold;font-stretch:condensed;font-family:'DIN Condensed';-inkscape-font-specification:'DIN Condensed, Bold Condensed';letter-spacing:0px;fill:#364f68;fill-opacity:1;stroke-width:0.26458332px"
         id="path4287" />
      <path
         d="m 73.44106,287.16876 3.584899,0 0,1.13207 -2.382071,0 0,2.46462 2.075468,0 0,1.13208 -2.075468,0 0,2.46461 2.382071,0 0,1.20283 -3.584899,0 0,-8.39621 z"
         style="font-style:normal;font-variant:normal;font-weight:bold;font-stretch:condensed;font-family:'DIN Condensed';-inkscape-font-specification:'DIN Condensed, Bold Condensed';letter-spacing:0px;fill:#364f68;fill-opacity:1;stroke-width:0.26458332px"
         id="path4289" />
      <path
         d="m 77.746955,287.16876 1.155659,0 1.816034,5.05895 0.02358,0 0,-5.05895 1.202828,0 0,8.39621 -1.132073,0 -1.83962,-5.04716 -0.02358,0 0,5.04716 -1.202829,0 0,-8.39621 z"
         style="font-style:normal;font-variant:normal;font-weight:bold;font-stretch:condensed;font-family:'DIN Condensed';-inkscape-font-specification:'DIN Condensed, Bold Condensed';letter-spacing:0px;fill:#364f68;fill-opacity:1;stroke-width:0.26458332px"
         id="path4291" />
      <path
         d="m 83.835538,288.30083 -1.391507,0 0,-1.13207 3.985842,0 0,1.13207 -1.391507,0 0,7.26414 -1.202828,0 0,-7.26414 z"
         style="font-style:normal;font-variant:normal;font-weight:bold;font-stretch:condensed;font-family:'DIN Condensed';-inkscape-font-specification:'DIN Condensed, Bold Condensed';letter-spacing:0px;fill:#364f68;fill-opacity:1;stroke-width:0.26458332px"
         id="path4293" />
      <path
         d="m 90.852403,289.58621 -1.202828,0 0,-0.27123 q 0,-0.41273 -0.200472,-0.70754 -0.188679,-0.30661 -0.648584,-0.30661 -0.247641,0 -0.412735,0.0943 -0.153301,0.0943 -0.247641,0.24764 -0.08255,0.14151 -0.117924,0.34198 -0.03538,0.18868 -0.03538,0.40095 0,0.24764 0.01179,0.42452 0.02359,0.1651 0.09434,0.29482 0.07076,0.11792 0.200472,0.21226 0.141509,0.0943 0.377358,0.18868 l 0.919809,0.36556 q 0.400943,0.15331 0.648584,0.36557 0.247641,0.20047 0.377358,0.48349 0.141509,0.27122 0.188679,0.63679 0.04717,0.35377 0.04717,0.81368 0,0.53066 -0.106132,0.99056 -0.106132,0.44811 -0.353773,0.7783 -0.235849,0.3184 -0.636792,0.50708 -0.400942,0.18868 -0.978771,0.18868 -0.43632,0 -0.813678,-0.15331 -0.377358,-0.1533 -0.648584,-0.41273 -0.271226,-0.27123 -0.43632,-0.63679 -0.153302,-0.36557 -0.153302,-0.79009 l 0,-0.44812 1.202828,0 0,0.37736 q 0,0.33019 0.188679,0.60141 0.200472,0.25944 0.660377,0.25944 0.306603,0 0.471697,-0.0826 0.176886,-0.0943 0.259433,-0.24764 0.09434,-0.16509 0.117925,-0.40094 0.02358,-0.23585 0.02358,-0.51887 0,-0.33019 -0.02358,-0.54245 -0.02358,-0.21227 -0.106132,-0.34198 -0.07076,-0.12972 -0.212264,-0.21227 -0.129717,-0.0825 -0.353773,-0.17688 l -0.860848,-0.35378 q -0.7783,-0.31839 -1.049526,-0.83726 -0.259434,-0.53066 -0.259434,-1.32075 0,-0.4717 0.129717,-0.89623 0.129717,-0.42452 0.377358,-0.73113 0.259434,-0.3066 0.648584,-0.48349 0.38915,-0.18867 0.908017,-0.18867 0.448113,0 0.813678,0.16509 0.377358,0.16509 0.636791,0.43632 0.271226,0.27123 0.412736,0.61321 0.141509,0.33018 0.141509,0.68396 l 0,0.58962 z"
         style="font-style:normal;font-variant:normal;font-weight:bold;font-stretch:condensed;font-family:'DIN Condensed';-inkscape-font-specification:'DIN Condensed, Bold Condensed';letter-spacing:0px;fill:#364f68;fill-opacity:1;stroke-width:0.26458332px"
         id="path4295" />
    </g>
    <rect
       style="opacity:1;fill:none;fill-opacity:1;stroke:#5e82af;stroke-width:1.0583334;stroke-linecap:round;stroke-linejoin:miter;stroke-miterlimit:4;stroke-dasharray:none;stroke-dashoffset:0;stroke-opacity:1"
       id="rect4232"
       width="24.341667"
       height="24.341667"
       x="0.5291667"
       y="272.12915" />
  </g>
</svg>
