<svg width="105mm" viewBox="0 0 512 256">
		<rect x="32"  y="66.4" width="96" height="141.6" stroke="none" fill="#3097fc"/>
		<rect x="144" y="145.6" width="96" height="62.4" stroke="none" fill="#f6871f"/>
		<rect x="256" y="144" width="96" height="64" stroke="none" fill="#87cc00"/>

		<text x="368" y="32" text-anchor="start" font-size="12px">3. Co-creation potential</text>
		<path d="m 16,16						496,0" fill="none" stroke="#999999"/>
		
	<text x="368" y="82.4" text-anchor="start" font-size="12px">2. Co-creation opportunity</text>
	<path d="m 16,66.4 496,0" fill="none" stroke="#999999"/>
	<text x="368" y="161.6" text-anchor="start" font-size="12px">1. Co-creation capability</text>
	<path d="m 16,145.6 496,0" fill="none" stroke="#999999"/>

		<path d="m 16,208 496,0"  fill="none" stroke="#000000"/>
		<path d="m 16,208 0,-192" fill="none" stroke="#000000"/>

		<path d="m 11,208 10,0" fill="none" stroke="#000000"/>
		<path d="m 11,160 10,0" fill="none" stroke="#000000"/>
		<path d="m 11,112 10,0" fill="none" stroke="#000000"/>
		<path d="m 11,64  10,0" fill="none" stroke="#000000"/>
		<path d="m 11,16  10,0" fill="none" stroke="#000000"/>

		<text x="4" y="214" text-anchor="middle" font-size="16px">1</text>
		<text x="4" y="166" text-anchor="middle" font-size="16px">2</text>
		<text x="4" y="118" text-anchor="middle" font-size="16px">3</text>
		<text x="4" y="70" text-anchor="middle" font-size="16px">4</text>
		<text x="4" y="22" text-anchor="middle" font-size="16px">5</text>

		<text x="72"  y="232" text-anchor="middle" font-size="16px">Internal</text>
		<text x="72"  y="252" text-anchor="middle" font-size="16px">organisation</text>
		<text x="184" y="232" text-anchor="middle" font-size="16px">Ecosystem</text>
		<text x="296" y="232" text-anchor="middle" font-size="16px">Collaborative</text>
		<text x="296" y="252" text-anchor="middle" font-size="16px">environment</text>
	</svg>