<?xml version="1.0" encoding="UTF-8" standalone="no"?>
<!-- Created with Inkscape (http://www.inkscape.org/) -->

<svg
   xmlns:dc="http://purl.org/dc/elements/1.1/"
   xmlns:cc="http://creativecommons.org/ns#"
   xmlns:rdf="http://www.w3.org/1999/02/22-rdf-syntax-ns#"
   xmlns:svg="http://www.w3.org/2000/svg"
   xmlns="http://www.w3.org/2000/svg"
   xmlns:sodipodi="http://sodipodi.sourceforge.net/DTD/sodipodi-0.dtd"
   xmlns:inkscape="http://www.inkscape.org/namespaces/inkscape"
   width="64"
   height="64"
   viewBox="0 0 64.000001 64.000001"
   id="svg2"
   version="1.1"
   inkscape:version="0.91+devel+osxmenu r12911"
   sodipodi:docname="money.svg">
  <defs
     id="defs4" />
  <sodipodi:namedview
     id="base"
     pagecolor="#ffffff"
     bordercolor="#666666"
     borderopacity="1.0"
     inkscape:pageopacity="0.0"
     inkscape:pageshadow="2"
     inkscape:zoom="8.90625"
     inkscape:cx="31.999999"
     inkscape:cy="32.056138"
     inkscape:document-units="px"
     inkscape:current-layer="g3401"
     showgrid="true"
     units="px"
     inkscape:window-width="1440"
     inkscape:window-height="878"
     inkscape:window-x="0"
     inkscape:window-y="0"
     inkscape:window-maximized="1"
     fit-margin-top="0"
     fit-margin-left="0"
     fit-margin-right="0"
     fit-margin-bottom="0">
    <inkscape:grid
       type="xygrid"
       id="grid4149"
       originx="-23.94922"
       originy="-0.00012780598" />
  </sodipodi:namedview>
  <metadata
     id="metadata7">
    <rdf:RDF>
      <cc:Work
         rdf:about="">
        <dc:format>image/svg+xml</dc:format>
        <dc:type
           rdf:resource="http://purl.org/dc/dcmitype/StillImage" />
        <dc:title></dc:title>
      </cc:Work>
    </rdf:RDF>
  </metadata>
  <g
     inkscape:label="Laag 1"
     inkscape:groupmode="layer"
     id="layer1"
     transform="translate(-23.949219,-988.36203)">
    <g
       id="g3401"
       transform="translate(37.142857,485.71429)">
      <g
         transform="rotate(-31.775363)"
         style="font-style:normal;font-variant:normal;font-weight:300;font-stretch:normal;font-size:261.93093872px;line-height:125%;font-family:'Helvetica LT Std';-inkscape-font-specification:'Helvetica LT Std Light';letter-spacing:0px;word-spacing:0px;fill:#000000;fill-opacity:1;stroke:none;stroke-width:1px;stroke-linecap:butt;stroke-linejoin:miter;stroke-opacity:1"
         id="text3407" />
      <circle
         style="opacity:1;fill:none;fill-opacity:1;stroke:#ffffff;stroke-width:4.00000048;stroke-linecap:round;stroke-linejoin:round;stroke-miterlimit:4;stroke-dasharray:none;stroke-dashoffset:0;stroke-opacity:1"
         id="path4151"
         cx="18.806362"
         cy="534.64777"
         r="30" />
      <g
         transform="rotate(-29.999999,2.9289152,-3.6265533)"
         style="font-style:normal;font-weight:normal;font-size:40.85293961px;line-height:125%;font-family:sans-serif;letter-spacing:0px;word-spacing:0px;fill:#ffffff;fill-opacity:1;stroke:#ffffff;stroke-width:1;stroke-linecap:round;stroke-linejoin:round;stroke-miterlimit:4;stroke-dasharray:none;stroke-opacity:1"
         id="text4153">
        <path
           d="m -267.25952,475.45773 0.83781,-2.83258 3.90975,0 q -0.0399,-0.81785 -0.0399,-1.6756 0,-0.73807 0.0399,-1.47614 l -4.74756,0 0.83781,-2.83257 4.22891,0 q 0.67823,-3.65044 2.53337,-6.32343 3.11184,-4.50819 8.59746,-4.50819 4.66777,0 7.24103,2.93232 2.5932,2.93231 2.87247,6.66254 l -3.25148,0 q -0.53859,-2.83258 -2.19425,-4.48824 -1.65566,-1.65566 -4.62787,-1.65566 -3.65043,0 -5.88458,3.052 -1.23676,1.67561 -1.77535,4.32866 l 11.13083,0 -0.8378,2.83257 -10.69198,0 q -0.0598,1.01734 -0.0598,2.15436 0,0.51864 0.0199,0.99738 l 11.56968,0 -0.8378,2.83258 -10.43266,0 q 0.47874,2.61315 1.69556,4.52814 2.01472,3.19163 6.02421,3.19163 3.69033,0 5.62526,-3.37116 1.01733,-1.77535 1.51602,-4.66777 l 3.25148,0 q -0.43885,4.62787 -2.89242,7.75966 -2.93231,3.77012 -7.8993,3.77012 -4.28876,0 -7.20112,-3.09189 -2.75279,-2.91237 -3.53075,-8.11873 l -5.02683,0 z"
           style="stroke:#ffffff;stroke-width:1;stroke-linecap:round;stroke-linejoin:round;stroke-miterlimit:4;stroke-dasharray:none;stroke-opacity:1;fill:#ffffff;fill-opacity:1"
           id="path4158"
           inkscape:connector-curvature="0" />
      </g>
    </g>
  </g>
</svg>
