<?xml version="1.0" encoding="UTF-8" standalone="no"?>
<!-- Created with Inkscape (http://www.inkscape.org/) -->

<svg
   xmlns:dc="http://purl.org/dc/elements/1.1/"
   xmlns:cc="http://creativecommons.org/ns#"
   xmlns:rdf="http://www.w3.org/1999/02/22-rdf-syntax-ns#"
   xmlns:svg="http://www.w3.org/2000/svg"
   xmlns="http://www.w3.org/2000/svg"
   xmlns:sodipodi="http://sodipodi.sourceforge.net/DTD/sodipodi-0.dtd"
   xmlns:inkscape="http://www.inkscape.org/namespaces/inkscape"
   width="96"
   height="48"
   viewBox="0 0 25.4 12.700001"
   id="svg2"
   version="1.1"
   inkscape:version="0.91+devel+osxmenu r12911"
   sodipodi:docname="logo.svg">
  <defs
     id="defs4">
    <inkscape:path-effect
       effect="bspline"
       id="path-effect4183"
       is_visible="true"
       weight="0.3334"
       steps="2"
       helper_size="0"
       ignoreCusp="true"
       onlySelected="false" />
  </defs>
  <sodipodi:namedview
     id="base"
     pagecolor="#ffffff"
     bordercolor="#666666"
     borderopacity="1.0"
     inkscape:pageopacity="0.0"
     inkscape:pageshadow="2"
     inkscape:zoom="1.6299484"
     inkscape:cx="69.856769"
     inkscape:cy="-8.0351063"
     inkscape:document-units="px"
     inkscape:current-layer="layer1"
     showgrid="false"
     fit-margin-top="0"
     fit-margin-left="0"
     fit-margin-right="0"
     fit-margin-bottom="0"
     units="px"
     inkscape:snap-bbox="true"
     inkscape:bbox-paths="true"
     inkscape:bbox-nodes="true"
     inkscape:snap-bbox-edge-midpoints="true"
     inkscape:snap-bbox-midpoints="true"
     inkscape:snap-intersection-paths="true"
     inkscape:object-paths="true"
     inkscape:object-nodes="true"
     inkscape:snap-smooth-nodes="true"
     inkscape:snap-midpoints="true">
    <inkscape:grid
       type="xygrid"
       id="grid4160"
       originx="1.9999999e-06"
       originy="-8.9264693e-05" />
  </sodipodi:namedview>
  <metadata
     id="metadata7">
    <rdf:RDF>
      <cc:Work
         rdf:about="">
        <dc:format>image/svg+xml</dc:format>
        <dc:type
           rdf:resource="http://purl.org/dc/dcmitype/StillImage" />
        <dc:title></dc:title>
      </cc:Work>
    </rdf:RDF>
  </metadata>
  <g
     inkscape:label="Laag 1"
     inkscape:groupmode="layer"
     id="layer1"
     transform="translate(72.836016,-189.57908)">
    <path
       style="fill:#ff6600;stroke-width:1"
       d="m -58.123143,194.83626 c -0.274589,-0.0875 -0.448295,-0.27018 -0.521616,-0.54872 -0.052,-0.19756 -0.05169,-1.06259 4e-4,-1.23782 0.07068,-0.23753 0.250681,-0.36227 0.881929,-0.61112 0.476218,-0.18773 0.664642,-0.28008 0.698623,-0.34241 0.08358,-0.15331 0.05514,-0.73321 -0.04108,-0.83708 -0.06168,-0.0667 -0.242867,-0.0708 -0.297272,-0.007 -0.02823,0.0332 -0.04132,0.16396 -0.04828,0.48258 l -0.0095,0.43704 -0.618412,0 -0.618412,0 10e-4,-0.26887 c 0.0012,-0.32466 0.05741,-0.65342 0.140373,-0.82086 0.07517,-0.15173 0.324271,-0.3733 0.523069,-0.46527 0.443513,-0.20518 1.270717,-0.20772 1.723272,-0.004 0.210377,0.0941 0.441394,0.32473 0.500357,0.49949 0.08022,0.23781 0.103029,0.72917 0.103264,2.22587 l 2.01e-4,1.45462 -0.633714,0 -0.633714,0 -0.0083,-0.17955 -0.0083,-0.17958 -0.09877,0.13031 c -0.05434,0.0717 -0.160658,0.16761 -0.236288,0.2132 -0.124377,0.0749 -0.163457,0.0836 -0.409224,0.0902 -0.172606,0.004 -0.314701,-0.006 -0.389566,-0.03 z m 1.050955,-0.76344 c 0.04755,-0.0513 0.05397,-0.11905 0.06419,-0.67562 0.0085,-0.46869 0.0031,-0.61854 -0.02252,-0.61854 -0.01861,0 -0.106625,0.0714 -0.195578,0.15855 -0.206703,0.20267 -0.238667,0.30642 -0.224905,0.73005 0.01246,0.38342 0.04979,0.46262 0.218093,0.46262 0.07323,0 0.124835,-0.0184 0.160712,-0.0571 z m 5.826153,0.75858 c -0.55702,-0.11731 -0.931245,-0.47871 -1.014431,-0.97966 -0.01649,-0.0993 -0.02946,-0.62033 -0.02958,-1.18786 -1.99e-4,-1.07789 0.01948,-1.295 0.140304,-1.54616 0.205973,-0.42815 0.671045,-0.65544 1.341159,-0.65544 0.839993,0 1.345579,0.34942 1.496311,1.0341 0.02337,0.1062 0.05068,0.42553 0.06067,0.70968 l 0.01818,0.51663 -0.872239,0.007 -0.872242,0.007 0,0.62175 c 0,0.5488 0.006,0.63048 0.05004,0.69629 0.03878,0.0577 0.07251,0.0746 0.150023,0.0746 0.232749,0 0.265608,-0.0824 0.265608,-0.66594 l 0,-0.43709 0.635001,0 0.635005,0 -7e-4,0.19993 c -0.0015,0.40703 -0.05049,0.73783 -0.135627,0.9156 -0.173127,0.36151 -0.527789,0.63214 -0.920111,0.70217 -0.228271,0.0408 -0.724175,0.034 -0.947321,-0.0131 z m 0.676108,-3.05236 c -0.0014,-0.32303 -0.03171,-0.51314 -0.08733,-0.54757 -0.06212,-0.0385 -0.240247,-0.0281 -0.277829,0.0161 -0.03737,0.044 -0.07764,0.69404 -0.04772,0.77023 0.01348,0.0343 0.0603,0.0439 0.215665,0.0439 l 0.198441,0 -0.0012,-0.28265 z m -12.987941,0.92378 -0.0071,-2.08888 -0.402167,-0.008 -0.402169,-0.008 0,-0.50939 0,-0.5094 1.509896,0 1.509897,0 0,0.51015 0,0.51016 -0.409223,0 -0.409226,0 0,2.09575 0,2.09577 -0.69127,0 -0.691271,0 -0.0071,-2.08886 z m 2.518671,-0.0345 0,-2.12335 0.650128,0 0.65013,0 -0.01724,0.25507 -0.01724,0.25509 0.08537,-0.12869 c 0.17345,-0.26145 0.385993,-0.41636 0.621835,-0.4532 l 0.115479,-0.0181 0,0.74808 0,0.74807 -0.119945,5.9e-4 c -0.303517,0.002 -0.515656,0.11111 -0.603049,0.31099 -0.04548,0.10407 -0.05172,0.23814 -0.06144,1.32222 l -0.01086,1.20644 -0.646595,0 -0.646598,0 0,-2.12335 z m 6.192424,1.99235 c -0.01098,-0.072 -0.161514,-1.02755 -0.33453,-2.12334 l -0.314576,-1.99236 0.586265,0 c 0.585149,0 0.586291,1.1e-4 0.599813,0.0621 0.0076,0.0341 0.09078,0.71973 0.185191,1.52356 0.0944,0.80385 0.175823,1.47395 0.180932,1.48911 0.01974,0.0586 0.04767,-0.19794 0.115545,-1.06168 0.08112,-1.03225 0.148701,-1.79436 0.170569,-1.92341 l 0.01519,-0.0896 0.577279,0 c 0.317504,0 0.577632,0.01 0.578063,0.0208 4e-4,0.0114 -0.135695,0.96688 -0.302502,2.12335 l -0.303282,2.10266 -0.866998,0 -0.866999,0 z m 6.056083,-2.47493 0,-2.60591 0.677338,0 0.677337,0 0,2.60591 0,2.60591 -0.677337,0 -0.677338,0 z"
       id="path4175"
       inkscape:connector-curvature="0"
       sodipodi:nodetypes="cscssscsccccssscccccccsscccscssssscscsscscccscssccccsscccsscscccccccccccccccccccccccccccssccccsscccccsscscscsccscscccsccccccccc" />
    <path
       sodipodi:nodetypes="cssssssssccccsssssscccccccccccccccccccccccccccccccccccccccccccccccccccccsssscscscscscscssscssscscccccccccccccccssscccccccsssscssccccscccccccc"
       inkscape:connector-curvature="0"
       id="path4177"
       d="m -67.421483,202.26227 c -0.219875,-0.0479 -0.498653,-0.15933 -0.645873,-0.25804 -0.296997,-0.19915 -0.521943,-0.51809 -0.609502,-0.86419 -0.113225,-0.44755 -0.113862,-3.6137 -8.2e-4,-4.0616 0.15911,-0.63041 0.663302,-1.04151 1.383972,-1.12842 1.009496,-0.12176 1.757632,0.29508 1.991384,1.10954 0.07013,0.24433 0.09522,0.9959 0.0817,2.44713 -0.01401,1.50374 -0.02233,1.59394 -0.177028,1.91909 -0.173213,0.36405 -0.491965,0.63562 -0.908111,0.77368 -0.186234,0.0618 -0.257774,0.071 -0.608332,0.0784 -0.218503,0.004 -0.446828,-0.002 -0.50739,-0.0156 z m 0.567939,-1.04901 c 0.0295,-0.0248 0.06399,-0.0914 0.07665,-0.14812 0.03267,-0.14628 0.03105,-3.81151 -0.0017,-3.93399 -0.04123,-0.15401 -0.164143,-0.21279 -0.305364,-0.14603 -0.129753,0.0613 -0.127467,0.0278 -0.135924,1.99351 -0.0043,1.00591 -6.93e-4,1.90091 0.0081,1.98891 0.02082,0.20889 0.07994,0.29079 0.209894,0.29079 0.05327,0 0.118254,-0.0197 0.148402,-0.0451 z m -5.98247,-2.10583 0,-3.0525 0.757311,0 0.75731,0 0,1.09478 0,1.09478 0.235884,0 0.235884,0 0,-1.09478 0,-1.09478 0.75731,0 0.757311,0 0,3.0525 0,3.05249 -0.757311,0 -0.75731,0 0,-1.2751 0,-1.27509 -0.235884,0 -0.235884,0 0,1.27509 0,1.2751 -0.75731,0 -0.757311,0 z m 8.193853,0 0,-3.0525 0.769726,0 0.769725,0 0,2.44715 0,2.44715 0.459353,0 0.459352,0 0,0.60534 0,0.60535 -1.229078,0 -1.229078,0 z m 2.830604,0 0,-3.0525 0.769726,0 0.769725,0 0,2.44715 0,2.44715 0.459352,0 0.459353,0 0,0.60534 0,0.60535 -1.229078,0 -1.229078,0 z m 2.681625,3.04032 c 0,-0.007 0.173188,-1.37692 0.384862,-3.04405 0.211675,-1.66714 0.384863,-3.03512 0.384863,-3.03996 0,-0.005 0.497004,-0.008 1.104456,-0.008 l 1.104456,0 0.01233,0.058 c 0.01739,0.0817 0.857808,5.97556 0.85773,6.0152 -5e-5,0.0257 -0.163708,0.0311 -0.775998,0.0257 l -0.775933,-0.007 -0.03225,-0.5152 c -0.01774,-0.28335 -0.03694,-0.52967 -0.04267,-0.54738 -0.0075,-0.023 -0.08499,-0.0322 -0.272693,-0.0322 -0.187067,0 -0.265604,0.009 -0.273892,0.0322 -0.0064,0.0177 -0.03118,0.26403 -0.05509,0.54738 l -0.04347,0.5152 -0.788348,0.007 c -0.433592,0.004 -0.788348,0.001 -0.788348,-0.006 z m 2.167559,-2.17094 c 0.0057,-0.0106 -0.01527,-0.25116 -0.04651,-0.53451 -0.03124,-0.28336 -0.08258,-0.84303 -0.114085,-1.24373 -0.03193,-0.40606 -0.06492,-0.70251 -0.07454,-0.66974 -0.04771,0.16258 -0.300027,2.40136 -0.275897,2.44798 0.0055,0.0106 0.120416,0.0193 0.255368,0.0193 0.134952,0 0.249999,-0.008 0.25566,-0.0193 z m 1.954197,-0.86938 0,-3.0525 0.639409,0 0.639409,0 0.422068,1.34838 0.422067,1.34837 0.0064,-1.34837 0.0064,-1.34838 0.645357,0 0.645356,0 0,3.05291 0,3.05291 -0.676297,-0.007 -0.676298,-0.007 -0.38816,-1.34688 c -0.213488,-0.74078 -0.395199,-1.35418 -0.403801,-1.3631 -0.0086,-0.009 -0.01564,0.60007 -0.01564,1.35332 l 0,1.36954 -0.633161,0 -0.633161,0 0,-3.05249 z m 4.047267,-0.003 0,-3.05604 1.061476,0.0146 c 1.191216,0.0164 1.444475,0.0386 1.726492,0.15142 0.228313,0.0913 0.367684,0.19545 0.49575,0.3703 0.128297,0.17516 0.19024,0.36101 0.217624,0.65294 0.03216,0.34281 0.03107,3.65047 -0.0013,3.9643 -0.05723,0.55476 -0.31382,0.82538 -0.871606,0.91923 -0.184654,0.031 -0.478282,0.0391 -1.43039,0.0392 l -1.198031,1e-4 0,-3.05605 z m 1.824999,1.97185 c 0.09379,-0.0466 0.136564,-0.13959 0.163352,-0.35497 0.0267,-0.21472 0.02687,-3.16646 3e-4,-3.33485 -0.02982,-0.18818 -0.108948,-0.25673 -0.311869,-0.27013 l -0.162108,-0.0107 0,2.01552 0,2.01551 0.118174,-0.0117 c 0.065,-0.006 0.151487,-0.0283 0.192204,-0.0486 z"
       style="fill:#ff6600;stroke-width:1" />
    <path
       style="fill:#ffffff;fill-opacity:1;fill-rule:evenodd;stroke:none;stroke-width:0.2645835;stroke-linecap:butt;stroke-linejoin:round;stroke-miterlimit:4;stroke-dasharray:none;stroke-opacity:1"
       d="m -69.131854,194.87084 c -1.852077,-0.88194 -3.704162,-1.76388 -3.704162,-3.52777 0,-0.88195 0.926037,-1.7639 1.852085,-1.7639 0.926038,0 1.852077,0.88195 1.852077,1.7639 0,-0.88195 0.926047,-1.7639 1.852086,-1.7639 0.926038,0 1.852085,0.88195 1.852085,1.7639 0,1.76389 -1.852085,2.64583 -3.704171,3.52777 z"
       id="path4179"
       inkscape:connector-curvature="0"
       sodipodi:nodetypes="ccccccc" />
  </g>
</svg>
