<?xml version="1.0" encoding="UTF-8" standalone="no"?>
<svg
	 xmlns:dc="http://purl.org/dc/elements/1.1/"
	 xmlns:cc="http://creativecommons.org/ns#"
	 xmlns:rdf="http://www.w3.org/1999/02/22-rdf-syntax-ns#"
	 xmlns:svg="http://www.w3.org/2000/svg"
	 xmlns="http://www.w3.org/2000/svg"
	 xmlns:xlink="http://www.w3.org/1999/xlink"
	 version="1.1"
	 id="svg2"
	 viewBox="0 0 512 512"
	 height="512"
	 width="512">
	<defs>
		<linearGradient id="linearGradient">
			<stop
				 offset="0"
				 style="stop-color:#ffffff;stop-opacity:.8;" />
			<stop
				 offset="1"
				 style="stop-color:#ffffff;stop-opacity:0;" />
		</linearGradient>
		<radialGradient
			 gradientUnits="userSpaceOnUse"
			 r="256"
			 fy="256"
			 fx="256"
			 cy="256"
			 cx="256"
			 id="radialGradient"
			 xlink:href="#linearGradient" />
	</defs>
	<metadata>
		<rdf:RDF>
			<cc:Work
				 rdf:about="">
				<dc:format>image/svg+xml</dc:format>
				<dc:type
					 rdf:resource="http://purl.org/dc/dcmitype/StillImage" />
				<dc:title></dc:title>
			</cc:Work>
		</rdf:RDF>
	</metadata>
	<g>
		<ellipse
			 ry="256"
			 rx="256"
			 cy="256"
			 cx="256"
			 style="opacity:1;
							fill:none;
							stroke:url(#radialGradient);
							stroke-width:512;
							stroke-dasharray:115;
							stroke-opacity:1" />
		<path
			 d="m 240.63902,447.65648 c -13.38504,-1.05585 -23.5751,-3.32829 -27.52698,-6.1386 -2.06173,-1.46608 -3.1477,-3.84548 -3.63791,-7.97068 -0.19615,-1.6518 -0.66296,-46.92642 -1.0371,-100.61019 -0.64297,-92.26446 -0.6226,-97.83574 0.37191,-101.78773 1.55988,-6.19744 3.7152,-10.50697 9.92519,-19.84547 6.53627,-9.82907 8.81476,-14.39667 9.6178,-19.28008 0.3205,-1.94971 2.07175,-23.54688 3.89144,-47.99358 1.81969,-24.44674 3.4461,-45.444921 3.61421,-46.662496 0.27099,-1.962784 0.0499,-2.454879 -1.95069,-4.340825 -2.07277,-1.953978 -2.25241,-2.384768 -2.20751,-5.294475 0.034,-2.142236 0.66565,-4.597115 1.95473,-7.58502 2.23106,-5.17149 2.32014,-6.133909 0.70296,-7.59549 -1.59164,-1.438488 -1.52557,-4.06885 0.15042,-5.986359 1.31467,-1.50425 1.67048,-1.56812 12.48019,-2.23978 12.46288,-0.77439 26.34697,-0.10961 28.75416,1.37752 1.85374,1.1449 2.27225,3.261432 1.21659,6.15277 -0.83694,2.292435 -0.79196,2.677266 0.87862,7.517556 2.30767,6.685984 2.12191,10.608415 -0.63783,13.469782 l -1.86425,1.932813 3.541,48.352964 c 1.94755,26.59408 3.85489,49.43418 4.23851,50.75558 1.06341,3.66304 3.24401,7.66681 8.79678,16.15162 7.91044,12.08746 11.1041,19.22396 11.95192,26.70777 0.59558,5.25721 -0.90671,193.25868 -1.57485,197.07789 -0.63322,3.61981 -2.74643,7.26395 -5.1086,8.80963 -2.35733,1.54257 -8.84689,3.14883 -16.81122,4.16111 -8.73445,1.11004 -30.58553,1.5852 -39.7296,0.86377 z"
			 style="fill:#17b000;fill-opacity:1;stroke-width:1" />
	</g>
</svg>
