<?xml version="1.0" encoding="UTF-8" standalone="no"?>
<!-- Created with Inkscape (http://www.inkscape.org/) -->

<svg
   xmlns:dc="http://purl.org/dc/elements/1.1/"
   xmlns:cc="http://creativecommons.org/ns#"
   xmlns:rdf="http://www.w3.org/1999/02/22-rdf-syntax-ns#"
   xmlns:svg="http://www.w3.org/2000/svg"
   xmlns="http://www.w3.org/2000/svg"
   xmlns:sodipodi="http://sodipodi.sourceforge.net/DTD/sodipodi-0.dtd"
   xmlns:inkscape="http://www.inkscape.org/namespaces/inkscape"
   width="128"
   height="512"
   viewBox="0 0 33.866665 135.46667"
   id="svg2"
   version="1.1"
   inkscape:version="0.91+devel+osxmenu r12911"
   sodipodi:docname="logo.svg"
   inkscape:export-filename="/Users/wouterraateland/Desktop/Creations/Bierlijst/images/fles_windows.png"
   inkscape:export-xdpi="192"
   inkscape:export-ydpi="192">
  <defs
     id="defs4" />
  <sodipodi:namedview
     id="base"
     pagecolor="#ffffff"
     bordercolor="#666666"
     borderopacity="1.0"
     inkscape:pageopacity="0.0"
     inkscape:pageshadow="2"
     inkscape:zoom="0.5"
     inkscape:cx="64.000009"
     inkscape:cy="255.99999"
     inkscape:document-units="px"
     inkscape:current-layer="layer1"
     showgrid="false"
     units="px"
     inkscape:object-paths="true"
     inkscape:snap-intersection-paths="true"
     inkscape:snap-smooth-nodes="true"
     inkscape:object-nodes="true"
     inkscape:snap-object-midpoints="true"
     inkscape:snap-page="true"
     fit-margin-top="0"
     fit-margin-left="0"
     fit-margin-right="0"
     fit-margin-bottom="0" />
  <metadata
     id="metadata7">
    <rdf:RDF>
      <cc:Work
         rdf:about="">
        <dc:format>image/svg+xml</dc:format>
        <dc:type
           rdf:resource="http://purl.org/dc/dcmitype/StillImage" />
        <dc:title></dc:title>
      </cc:Work>
    </rdf:RDF>
  </metadata>
  <g
     inkscape:label="Laag 1"
     inkscape:groupmode="layer"
     id="layer1"
     transform="translate(-50.799997,-161.5333)">
    <path
       style="fill:#17b000;fill-opacity:1;stroke-width:0.99999982"
       d="m 62.314297,296.87878 c -4.721946,-0.37249 -8.316778,-1.17415 -9.710911,-2.16556 -0.727334,-0.5172 -1.11044,-1.35661 -1.283373,-2.81188 -0.06925,-0.58272 -0.233885,-16.5546 -0.365865,-35.49305 -0.226829,-32.54884 -0.219645,-34.51427 0.131264,-35.90845 0.55029,-2.18631 1.310633,-3.70662 3.501392,-7.00103 2.305848,-3.46749 3.109652,-5.07883 3.392935,-6.80159 0.113104,-0.68781 0.730872,-8.30681 1.37282,-16.93107 0.641949,-8.62427 1.215706,-16.03195 1.275015,-16.46149 0.09559,-0.69243 0.0176,-0.86603 -0.688166,-1.53134 -0.731229,-0.68932 -0.794596,-0.8413 -0.778762,-1.86778 0.01168,-0.75573 0.234837,-1.62176 0.689587,-2.67582 0.787071,-1.82439 0.818495,-2.16391 0.247987,-2.67953 -0.561488,-0.50746 -0.538182,-1.43539 0.05305,-2.11185 0.463797,-0.53066 0.589305,-0.5532 4.402743,-0.79015 4.396625,-0.27318 9.294623,-0.0386 10.143819,0.48596 0.653961,0.4039 0.801596,1.15056 0.429193,2.17057 -0.295255,0.80872 -0.279385,0.94448 0.309961,2.65202 0.814084,2.35867 0.748554,3.74242 -0.225025,4.75184 l -0.657656,0.68186 1.249184,17.05785 c 0.687053,9.3818 1.359915,17.43927 1.495249,17.90544 0.375149,1.29223 1.144416,2.70467 3.103313,5.69793 2.790628,4.26419 3.917277,6.78179 4.216365,9.4219 0.210106,1.85463 -0.319867,68.17738 -0.555563,69.52471 -0.223387,1.27698 -0.968885,2.56256 -1.802207,3.10784 -0.831617,0.54418 -3.12099,1.11084 -5.930628,1.46794 -3.08132,0.39161 -10.78989,0.55923 -14.015717,0.30473 z"
       id="path4206"
       inkscape:connector-curvature="0" />
  </g>
</svg>
