<?xml version="1.0" encoding="UTF-8" standalone="no"?>
<!-- Created with Inkscape (http://www.inkscape.org/) -->

<svg
   xmlns:dc="http://purl.org/dc/elements/1.1/"
   xmlns:cc="http://creativecommons.org/ns#"
   xmlns:rdf="http://www.w3.org/1999/02/22-rdf-syntax-ns#"
   xmlns:svg="http://www.w3.org/2000/svg"
   xmlns="http://www.w3.org/2000/svg"
   xmlns:sodipodi="http://sodipodi.sourceforge.net/DTD/sodipodi-0.dtd"
   xmlns:inkscape="http://www.inkscape.org/namespaces/inkscape"
   id="svg4938"
   version="1.1"
   inkscape:version="0.91+devel+osxmenu r12911"
   xml:space="preserve"
   width="256"
   height="96"
   viewBox="0 0 256 96"
   sodipodi:docname="oras_logo_black_notext.svg"
   inkscape:export-filename="/Users/wouterraateland/Google Drive/ORAS/Documenten/Logo's/oras_logo_green_dutch.png"
   inkscape:export-xdpi="96"
   inkscape:export-ydpi="96"><metadata
     id="metadata4944"><rdf:RDF><cc:Work
         rdf:about=""><dc:format>image/svg+xml</dc:format><dc:type
           rdf:resource="http://purl.org/dc/dcmitype/StillImage" /><dc:title /></cc:Work></rdf:RDF></metadata><defs
     id="defs4942" /><sodipodi:namedview
     pagecolor="#ffffff"
     bordercolor="#666666"
     borderopacity="1"
     objecttolerance="10"
     gridtolerance="10"
     guidetolerance="10"
     inkscape:pageopacity="0"
     inkscape:pageshadow="2"
     inkscape:window-width="640"
     inkscape:window-height="480"
     id="namedview4940"
     inkscape:document-units="px"
     showgrid="false"
     inkscape:zoom="2.2929688"
     inkscape:cx="50.807497"
     inkscape:cy="48"
     inkscape:current-layer="g4946"
     fit-margin-top="0"
     fit-margin-left="0"
     fit-margin-right="0"
     fit-margin-bottom="0" /><g
     id="g4946"
     inkscape:groupmode="layer"
     inkscape:label="ink_ext_XXXXXX"
     transform="matrix(1.3333333,0,0,-1.3333333,-60.602254,205.14413)"><path
       inkscape:connector-curvature="0"
       style="fill:#000000;fill-opacity:1;fill-rule:evenodd;stroke:none;stroke-width:0.99999988"
       d="m 90.902578,153.85811 c -0.971124,-1.20868 -2.04632,-3.0518 -3.024533,-4.6134 -13.876743,-22.15218 -28.000575,-44.27037 -41.87983,-66.270988 -0.238216,-0.377138 -0.640844,-0.81419 -0.526518,-1.104638 24.94108,0.04316 50.054286,-0.08666 74.885213,0.06492 -4.66036,1.694696 -7.99936,4.907465 -10.84751,8.511724 -0.32016,0.40508 -0.98214,1.396514 -1.31514,1.493468 -0.61115,0.17872 -1.82716,0 -2.76089,0 l -41.617745,0 c 8.961127,14.274464 17.890893,28.580124 27.021621,42.686954 6.29669,-10.3214 12.824674,-20.61265 19.197884,-30.99116 1.62589,-2.647 3.13219,-5.256428 4.93147,-7.601881 5.31972,-6.936109 12.98431,-12.447875 23.93181,-13.839369 8.3184,-1.0579 15.40757,0.749998 20.97254,3.573669 5.67642,2.879535 10.082,6.853746 13.47855,11.695019 3.41986,4.874562 5.85292,11.170482 6.18048,18.841592 0.34886,8.18507 -0.31586,16.29049 0.0654,24.94921 l 47.66605,0 c -0.0436,-16.4161 0.0878,-33.00594 -0.0654,-49.314034 l -46.02275,0 c -1.0356,0 -2.4525,0.206243 -3.08982,0 -0.3064,-0.099 -0.87726,-1.034498 -1.18446,-1.429308 -2.71228,-3.487985 -5.39698,-6.255031 -9.20427,-8.44602 -0.0608,-0.03492 -0.26036,-0.0506 -0.1968,-0.19478 l 69.95376,0 0,69.519982 -68.1137,0 0,-8.7065 c -4.00392,3.87006 -9.1588,7.34718 -15.51535,9.22676 -6.81139,2.01348 -15.385,1.72954 -21.69663,-0.39038 -12.1128,-4.06848 -20.37968,-13.30442 -23.60283,-26.05386 -5.89551,9.44182 -11.705166,18.97094 -17.620662,28.39302 z m 53.239732,-10.62902 c 0.493,-0.006 0.97999,-0.0266 1.46074,-0.0602 3.84571,-0.27074 7.28909,-1.40854 10.18484,-2.9769 0.36196,-0.196 0.7148,-0.39894 1.05934,-0.6076 0.34478,-0.20876 0.68056,-0.4227 1.0074,-0.64236 0.6532,-0.4391 1.26994,-0.8981 1.8479,-1.37058 0.57794,-0.47248 1.11682,-0.9587 1.61498,-1.45096 1.33008,-1.31454 2.56818,-2.74828 3.65336,-4.34204 0.43406,-0.6375 0.84406,-1.30012 1.22542,-1.9913 1e-4,-2e-4 -1e-4,-4e-4 0,-5.2e-4 0.1906,-0.3454 0.37416,-0.69774 0.5501,-1.0575 1.2e-4,-2e-4 -1e-4,-4e-4 0,-5.2e-4 0.35198,-0.71976 0.67408,-1.46916 0.96174,-2.25026 0.1438,-0.39068 0.27894,-0.78888 0.4053,-1.19586 0.2528,-0.81416 0.46932,-1.66148 0.6462,-2.54478 0.1768,-0.88307 0.3137,-1.80165 0.40688,-2.75893 0.0468,-0.47862 0.082,-0.9667 0.1062,-1.46486 0.0242,-0.49642 0.0338,-0.98764 0.029,-1.47261 -0.006,-0.48496 -0.0226,-0.96406 -0.0542,-1.43704 -0.0948,-1.41894 -0.3085,-2.78224 -0.62018,-4.08386 -6e-5,-2.5e-4 6e-5,-4e-4 0,-5.3e-4 -0.62346,-2.60295 -1.64008,-4.95739 -2.88682,-7.00588 -0.4156,-0.68289 -0.85674,-1.33206 -1.31746,-1.94491 -0.46082,-0.61285 -0.94088,-1.18912 -1.43474,-1.72771 -0.24692,-0.26929 -0.49714,-0.52926 -0.75002,-0.7792 -1.8e-4,-1.3e-4 -5.4e-4,1.3e-4 -5.4e-4,0 -2.7085,-2.676846 -5.82888,-5.026693 -9.7166,-6.492597 -1.16632,-0.43977 -2.40167,-0.799506 -3.71552,-1.065222 -1.31391,-0.265718 -2.70641,-0.436975 -4.18698,-0.498601 -0.25859,-0.0108 -0.51541,-0.018 -0.7697,-0.02162 -4.8317,-0.06758 -8.88829,1.149955 -12.28703,2.986175 -1.43103,0.773152 -2.7451,1.655925 -3.9516,2.598897 -0.60331,0.471486 -1.17948,0.957964 -1.72991,1.45328 -0.55855,0.502784 -1.08766,1.040828 -1.58899,1.609428 -0.25064,0.28419 -0.49424,0.57555 -0.73113,0.87429 -1.18447,1.49376 -2.20002,3.16164 -3.07095,4.92336 -0.54533,1.103 -1.01335,2.25448 -1.39621,3.47318 -0.1276,0.40614 -0.24575,0.81913 -0.35417,1.2407 -0.21679,0.84316 -0.39474,1.71871 -0.53121,2.63135 -0.13646,0.91265 -0.23113,1.86229 -0.28255,2.85477 -0.157,3.02501 0.21405,5.81148 0.95307,8.32774 0.24634,0.83876 0.53341,1.6473 0.85551,2.42496 0.32209,0.77764 0.67965,1.5244 1.06562,2.23866 0.77196,1.4285 1.65932,2.72786 2.61529,3.88906 0.47796,0.58062 0.97344,1.1269 1.4796,1.63726 1.06424,1.07284 2.14228,2.06424 3.3354,2.9738 2.7e-4,2.2e-4 3.8e-4,5.4e-4 5.4e-4,5.4e-4 1.19344,0.90974 2.50165,1.73746 4.02719,2.48294 1.78799,0.8737 3.83404,1.59692 6.09473,2.06242 0.45217,0.0932 0.91368,0.1758 1.38278,0.24736 0.93814,0.1432 1.90888,0.24196 2.91041,0.2891 0.50472,0.0238 1.0039,0.0322 1.49691,0.0264 z"
       id="path4224" /></g></svg>