<?xml version="1.0" encoding="UTF-8" standalone="no"?>
<!-- Created with Inkscape (http://www.inkscape.org/) -->

<svg
   xmlns:dc="http://purl.org/dc/elements/1.1/"
   xmlns:cc="http://creativecommons.org/ns#"
   xmlns:rdf="http://www.w3.org/1999/02/22-rdf-syntax-ns#"
   xmlns:svg="http://www.w3.org/2000/svg"
   xmlns="http://www.w3.org/2000/svg"
   xmlns:sodipodi="http://sodipodi.sourceforge.net/DTD/sodipodi-0.dtd"
   xmlns:inkscape="http://www.inkscape.org/namespaces/inkscape"
   width="60"
   height="30"
   viewBox="0 0 15.874999 7.9375"
   id="svg4148"
   version="1.1"
   inkscape:version="0.91+devel+osxmenu r12911"
   sodipodi:docname="en.svg">
  <defs
     id="defs4150" />
  <sodipodi:namedview
     id="base"
     pagecolor="#ffffff"
     bordercolor="#666666"
     borderopacity="1.0"
     inkscape:pageopacity="0.0"
     inkscape:pageshadow="2"
     inkscape:zoom="7.8916667"
     inkscape:cx="30"
     inkscape:cy="15"
     inkscape:document-units="px"
     inkscape:current-layer="layer1"
     showgrid="true"
     units="px">
    <inkscape:grid
       type="xygrid"
       id="grid4699" />
  </sodipodi:namedview>
  <metadata
     id="metadata4153">
    <rdf:RDF>
      <cc:Work
         rdf:about="">
        <dc:format>image/svg+xml</dc:format>
        <dc:type
           rdf:resource="http://purl.org/dc/dcmitype/StillImage" />
        <dc:title></dc:title>
      </cc:Work>
    </rdf:RDF>
  </metadata>
  <g
     inkscape:label="Laag 1"
     inkscape:groupmode="layer"
     id="layer1"
     transform="translate(0,-289.06248)">
    <rect
       style="opacity:1;fill:#002776;fill-opacity:1;stroke:none;stroke-width:1.99999976;stroke-linecap:round;stroke-linejoin:round;stroke-miterlimit:4;stroke-dasharray:none;stroke-dashoffset:0;stroke-opacity:1"
       id="rect4701"
       width="15.875"
       height="7.9375005"
       x="0"
       y="289.06247" />
    <path
       style="opacity:1;fill:#ffffff;fill-opacity:1;stroke:none;stroke-width:7.55905533;stroke-linecap:round;stroke-linejoin:round;stroke-miterlimit:4;stroke-dasharray:none;stroke-dashoffset:0;stroke-opacity:1"
       d="M 53.287109 0 L 0 26.648438 L 0 30 L 6.7128906 30 L 60 3.3515625 L 60 0 L 53.287109 0 z "
       transform="matrix(0.26458332,0,0,0.26458332,0,289.06248)"
       id="rect5318" />
    <path
       style="opacity:1;fill:#ffffff;fill-opacity:1;stroke:none;stroke-width:7.55905533;stroke-linecap:round;stroke-linejoin:round;stroke-miterlimit:4;stroke-dasharray:none;stroke-dashoffset:0;stroke-opacity:1"
       d="M 0 0 L 0 3.3632812 L 53.308594 30 L 60 30 L 60 26.636719 L 6.6914062 0 L 0 0 z "
       transform="matrix(0.26458332,0,0,0.26458332,0,289.06248)"
       id="rect5305" />
    <path
       style="opacity:1;fill:#c60c30;fill-opacity:1;stroke:none;stroke-width:7.55905533;stroke-linecap:round;stroke-linejoin:round;stroke-miterlimit:4;stroke-dasharray:none;stroke-dashoffset:0;stroke-opacity:1"
       d="M 55.523438 0 L 29.105469 13.210938 L 30 15 L 60 29.990234 L 60 27.753906 L 32.236328 13.880859 L 59.994141 0 L 55.523438 0 z M 30 15 L 0 0.009765625 L 0 2.2460938 L 27.763672 16.119141 L 0.005859375 30 L 4.4765625 30 L 30.894531 16.789062 L 30 15 z "
       transform="matrix(0.26458332,0,0,0.26458332,0,289.06248)"
       id="rect5320" />
    <path
       style="opacity:1;fill:#ffffff;fill-opacity:1;stroke:none;stroke-width:1.99999988;stroke-linecap:round;stroke-linejoin:round;stroke-miterlimit:4;stroke-dasharray:none;stroke-dashoffset:0;stroke-opacity:1"
       d="m 0,291.70831 15.875,0 0,2.64584 -15.875,0 z"
       id="rect4703" />
    <path
       style="opacity:1;fill:#ffffff;fill-opacity:1;stroke:none;stroke-width:2;stroke-linecap:round;stroke-linejoin:round;stroke-miterlimit:4;stroke-dasharray:none;stroke-dashoffset:0;stroke-opacity:1"
       d="m 6.6145835,289.06247 2.6458332,0 0,7.9375 -2.6458332,0 z"
       id="rect5297" />
    <path
       style="opacity:1;fill:#c60c30;fill-opacity:1;stroke:none;stroke-width:7.55905485;stroke-linecap:round;stroke-linejoin:round;stroke-miterlimit:4;stroke-dasharray:none;stroke-dashoffset:0;stroke-opacity:1"
       d="M 27 0 L 27 12 L 0 12 L 0 18 L 27 18 L 27 30 L 33 30 L 33 18 L 60 18 L 60 12 L 33 12 L 33 0 L 27 0 z "
       transform="matrix(0.26458332,0,0,0.26458332,0,289.06248)"
       id="rect5301" />
  </g>
</svg>
