<svg version="1" xmlns="http://www.w3.org/2000/svg" width="933.333" height="933.333" viewBox="0 0 700.000000 700.000000"><path d="M173.8 163.6c-.2.1-8.6.5-18.8.9-19.9.8-21 .8-37.5 1.9-21.9 1.5-37.2 2.7-39.5 3.1-.8.2-4.9.6-9 1-4.1.3-8.6.8-10 1-1.4.2-4.5.7-7 1-4.1.6-19.9 3-26.2 4.1-1.4.3-5.5 1.3-9 2.3C2.2 183.2-.6 185.8.4 193.7c1.1 8.6 4.3 20.8 8.1 30.8 1.3 3.3 3.5 9.1 5 13 4.3 11.1 16.4 40.4 19.5 47 1.5 3.3 3.7 8 4.8 10.5 1.1 2.5 3.6 7.9 5.5 12s4.7 10.2 6.2 13.5c7.9 17.3 26.1 53.7 31.6 63.2 3.4 5.9 7.4 13 8.9 15.8 11.2 20.7 48.6 80.4 63.4 101 15.8 22.1 22.8 30.4 29.3 34.2 3.9 2.2 4.4 2.3 7 1 3.7-1.9 12.2-11 20.9-22.2 3.8-4.9 22.4-31.4 22.4-31.9 0-.2 3.5-5.7 7.8-12.2 4.3-6.6 13-20.5 19.3-30.9 37.2-61.2 48.1-82.4 85.9-167 12.3-27.5 25.4-64.4 26.6-74.9.4-2.8.8-5.3.9-5.4.2-.2-.1-1.6-.6-3.1-1.5-4.2-11.5-8.9-22.9-10.7-1.9-.3-3.8-.8-4.2-1-.4-.3-2.6-.7-5-1-2.4-.3-6.5-.9-9.3-1.4-2.7-.5-7.5-1.2-10.5-1.6-3-.3-6.2-.8-7-.9-.8-.1-5.1-.6-9.5-1s-9.3-.8-11-1c-6.2-.7-15.2-1.5-22.5-2-27.8-2-32.5-2.3-51.5-3.1-17.5-.7-45.3-1.2-45.7-.8zM406.9 165.1c-1 .6-.6 9 .7 15.1.6 3.2.6 17.6-.1 21.3-3.2 16.8-12.2 43.7-24 71-.7 1.6-3.9 9.1-7.1 16.5-3.1 7.4-7.7 17.7-10.1 22.8-2.3 5.1-4.3 9.4-4.3 9.6 0 .8-10.9 23.5-23 48.1-10.8 21.8-27.7 52.7-36.4 66.4l-2.2 3.5 5.6 9c10.6 17.2 12.5 20.2 24.9 38.6 18.6 27.7 31.2 43.4 38.7 48 2.5 1.6 3.7 1.8 5.7 1.1 12.6-4.8 54.1-65.3 99.5-145.1 8.4-14.7 35.2-67.6 35.2-69.4 0-.2 2.2-5.1 4.9-10.7 2.6-5.7 5.9-12.7 7.1-15.4 1.2-2.8 3.3-7.3 4.5-10 8.6-19.1 24.6-58.7 27.7-68.9 2.7-9.1 4.9-18.2 5.4-23.2.5-4.5.3-5.9-1.2-7.6-3.2-3.5-14.4-7.7-25.3-9.4-2-.3-3.9-.8-4.2-1-.4-.2-2.4-.6-4.5-1-2.2-.3-5-.7-6.4-.9-13-2-24.7-3.5-30.5-4-3.8-.3-8.3-.8-10-1-1.6-.2-6.6-.7-11-1-4.4-.3-10.2-.8-13-1-4.9-.4-29.6-1.5-40.3-1.9-2.9-.1-5.8.1-6.3.5zM575 260.7c-.6 1.6-1.5 3.7-2 4.8-.5 1.1-3.4 7.8-6.3 15-12 28.8-46.8 103-49.7 105.9-.5.5-1 1.6-1 2.4 0 .8-.8 2.6-1.9 4-1 1.5-3 4.9-4.5 7.7-1.4 2.7-3.1 5.7-3.6 6.5-.5.8-5.6 9.6-11.3 19.5-10.2 17.5-28.4 47.7-35.4 58.3l-3.4 5.2 4.8 4.9c34.6 34.7 84.8 49.1 131.8 37.7 26.7-6.5 47.9-18.5 67-38 7.3-7.4 17.5-19.8 17.5-21.2 0-.3.9-1.9 2-3.4 6.8-9.5 16.8-35.3 18.5-47.5.2-1.1.6-3.4 1-5 .3-1.7.8-9.8.9-18 .6-29.2-6.6-54.8-22.2-79-2.4-3.9-4.7-7.2-5.1-7.5-.3-.3-2.4-2.8-4.6-5.5-8.5-10.7-24.2-24.1-36-31-13.6-7.9-30.3-14.3-44.5-16.9-10.7-2.1-10.9-2.1-12 1.1z"/></svg>