<svg version="1" xmlns="http://www.w3.org/2000/svg" width="933.333" height="933.333" viewBox="0 0 700.000000 700.000000"><path d="M176.5 163.7c-57.6 1.4-130.5 8.1-156.2 14.4-17.6 4.3-21 7.2-19.8 16.6C3.1 215.8 26.8 274 64.2 351c19.9 40.9 65 116.1 92 153.3 16.5 22.8 25.2 31.7 31 31.7 8.2 0 30.9-29.9 67.3-88.5 26-42 39.3-65.7 57.1-101.9 40.2-82.2 64.4-144.6 61-157.9-1.6-6.6-25.9-12.6-70.1-17.2-37.4-4-100.6-7.4-126-6.8zM406.4 169.1c.3 2.4.9 9.6 1.3 15.9.6 13-.2 19.6-4.6 34.8-11.7 40.8-59.5 146.1-89.6 197.7-6.5 11-11.9 20.6-12.2 21.2-.8 2.1 33.8 55.9 48.1 74.8 9.5 12.6 19.7 22.5 23.2 22.5 6 0 14.5-8.6 31.4-31.9 26.9-37.1 71.9-112.2 91.8-153.1 37.4-77 61.1-135.2 63.7-156.3.9-7-.5-9.5-6.9-12.5-16.2-7.7-71.9-15.1-126-16.8l-20.9-.7.7 4.4zM569.5 274.2c-18.3 43.7-47.4 104.7-64 133.9-10.8 19.1-27.2 46.5-39.9 66.8l-9.7 15.4 3.3 3.5c1.8 1.9 6.5 6 10.3 9.1 17.7 14.5 34.8 23.4 55.5 29 20.9 5.5 47 5.7 68.5.5 50.3-12.3 90.3-52.7 102.4-103.3 3.4-14.1 4.6-30.5 3.2-44.5-3.2-33.5-15.6-60.6-38.6-84.5-20.4-21.2-44.1-34.3-72.3-40.1-5.5-1.1-10.4-2-11-2-.5 0-4 7.3-7.7 16.2z"/></svg>