<?xml version="1.0" encoding="UTF-8" standalone="no"?>
<!-- Created with Inkscape (http://www.inkscape.org/) -->

<svg
   xmlns:dc="http://purl.org/dc/elements/1.1/"
   xmlns:cc="http://creativecommons.org/ns#"
   xmlns:rdf="http://www.w3.org/1999/02/22-rdf-syntax-ns#"
   xmlns:svg="http://www.w3.org/2000/svg"
   xmlns="http://www.w3.org/2000/svg"
   xmlns:sodipodi="http://sodipodi.sourceforge.net/DTD/sodipodi-0.dtd"
   xmlns:inkscape="http://www.inkscape.org/namespaces/inkscape"
   id="svg4938"
   version="1.1"
   inkscape:version="0.91+devel+osxmenu r12911"
   xml:space="preserve"
   width="1439.9995"
   height="240"
   viewBox="0 0 1439.9995 240"
   sodipodi:docname="oras_logo_green.svg"
   inkscape:export-filename="/Users/wouterraateland/Google Drive/ORAS/Documenten/Logo's/oras_logo_green_dutch.png"
   inkscape:export-xdpi="96"
   inkscape:export-ydpi="96"><metadata
     id="metadata4944"><rdf:RDF><cc:Work
         rdf:about=""><dc:format>image/svg+xml</dc:format><dc:type
           rdf:resource="http://purl.org/dc/dcmitype/StillImage" /><dc:title></dc:title></cc:Work></rdf:RDF></metadata><defs
     id="defs4942" /><sodipodi:namedview
     pagecolor="#ffffff"
     bordercolor="#666666"
     borderopacity="1"
     objecttolerance="10"
     gridtolerance="10"
     guidetolerance="10"
     inkscape:pageopacity="0"
     inkscape:pageshadow="2"
     inkscape:window-width="640"
     inkscape:window-height="480"
     id="namedview4940"
     inkscape:document-units="px"
     showgrid="false"
     inkscape:zoom="0.1873833"
     inkscape:cx="645"
     inkscape:cy="120"
     inkscape:current-layer="g4946"
     fit-margin-top="0"
     fit-margin-left="0"
     fit-margin-right="0"
     fit-margin-bottom="0" /><g
     id="g4946"
     inkscape:groupmode="layer"
     inkscape:label="ink_ext_XXXXXX"
     transform="matrix(1.3333333,0,0,-1.3333333,-55,294.99999)"><path
       style="fill:#0db14b;fill-opacity:1;fill-rule:evenodd;stroke:none;stroke-width:0.99999994"
       d="m 632.62185,221.25 c -26.1074,-1.36396 -43.958,-12.14448 -56.6573,-27.45557 -6.4254,-7.74623 -11.5909,-16.71426 -15.0513,-27.08643 -5.1627,-15.47145 -7.3713,-36.36561 -4.2831,-55.77246 2.9079,-18.277229 9.6141,-32.528599 19.0898,-43.954099 12.6111,-15.20521 31.315,-25.73145 58.2481,-25.73145 26.2946,0 46.1936,10.51743 58.9819,24.99317 13.2796,15.03081 21.1037,35.329049 22.0283,62.173829 0.9595,27.86233 -6.6867,49.46915 -18.8452,65.13135 -12.2404,15.76729 -30.3895,26.23178 -56.414,27.57861 -0.1416,-0.0202 -0.2177,0.0272 -0.2447,0.12305 l -6.8525,0 z m 295.957,-1.84863 c -3.1577,-0.017 -6.3105,-0.17854 -9.3648,-0.49073 -17.7521,-1.81472 -30.6559,-7.98985 -42.9507,-15.38965 -1.0507,-0.63215 -5.4375,-2.94007 -5.7524,-4.06347 -0.294,-1.04477 0,-3.01658 0,-4.67871 l 0,-148.482429 24.4746,0 c 0.082,19.20757 -0.1631,38.74289 0.1216,57.744139 l 72.1993,0 0,-57.744139 23.86228,0 0,88.277349 c -8e-4,9.87393 0.4362,19.75812 -0.2447,29.30273 -1.9345,27.13052 -14.28598,44.65329 -36.22118,51.95655 -7.1231,2.37177 -16.6509,3.61938 -26.124,3.56836 z m -142.0181,-0.22998 c -7.438,0.002 -14.8915,-0.57874 -21.1669,-1.61573 -11.3879,-1.8809 -22.3869,-5.16631 -30.9595,-10.34033 -1.3209,-0.79798 -4.316,-2.54448 -4.6495,-3.69434 -0.2986,-1.03621 0,-3.07188 0,-4.80176 8e-4,-51.21703 -7e-4,-101.475189 0,-152.422849 l 26.1871,0 0,65.869629 c 24.5521,-0.23277 48.8778,2.47749 58.9819,-12.188969 4.9475,-7.18182 6.7954,-16.93282 9.1787,-26.59423 2.0668,-8.37528 4.4556,-16.68456 7.3418,-23.88428 0.4341,-1.08213 0.5755,-2.30842 1.3462,-3.20215 8.3623,0.0818 17.0505,-0.16264 25.2085,0.12305 -4.946,12.68593 -9.6577,26.34943 -12.8496,41.12256 -1.6311,7.55395 -3.0221,14.852419 -6.2403,20.685049 -2.9025,5.26122 -6.883,8.83525 -11.2587,12.31056 -0.585,0.46555 -1.6044,0.8849 -1.5894,1.84716 12.6653,6.89997 21.8423,18.72842 24.3516,35.58252 0.5448,3.65669 0.5112,7.51154 0.4892,11.57226 -0.088,16.09195 -5.9651,25.68945 -14.4404,33.61085 -8.6919,8.12537 -18.754,12.77747 -33.1626,14.89893 -5.207,0.76702 -10.9829,1.12042 -16.7681,1.12207 z m 286.28325,-0.15674 c -2.1016,0.0311 -4.242,-0.002 -6.4176,-0.10401 -26.2722,-1.23006 -47.0495,-9.22075 -55.6787,-28.56298 -2.9148,-6.53487 -4.5527,-15.42802 -3.06,-24.13185 2.6176,-15.25035 13.6449,-24.31608 24.9638,-31.1499 5.8344,-3.52122 12.2031,-6.50801 18.8453,-9.23437 13.2409,-5.43405 27.2566,-9.7231 37.3242,-18.83642 4.7595,-4.3083 8.5507,-11.049339 5.9956,-20.314459 -1.912,-6.93423 -6.9977,-11.85497 -13.0928,-15.02198 -6.116,-3.1779 -14.1818,-5.30334 -22.8838,-5.16943 -18.0817,0.2787 -31.8393,5.55925 -43.4414,12.5581 -3.133,-7.19037 -5.9698,-14.6792 -9.0556,-21.91552 8.6649,-5.86456 19.6083,-9.99438 31.8164,-12.31201 12.5298,-2.37915 27.7817,-2.40165 40.2597,0.24609 20.6003,4.3698 36.6498,15.52098 41.4844,35.70557 0.7135,2.97627 1.1009,6.33312 1.3462,9.7251 l 0,3.81738 c -1.2806,21.473039 -13.0387,32.243459 -27.5332,40.505859 -7.2982,4.16039 -15.4264,7.41063 -23.7408,10.21875 -8.3559,2.82289 -16.7049,5.78182 -24.1068,9.72657 -7.2125,3.84352 -14.8322,10.04191 -12.9713,20.56201 1.5245,8.61896 9.1218,14.47311 16.5191,17.35986 8.4273,3.28767 20.1237,3.66441 29.8593,2.0918 9.8,-1.58273 17.5707,-4.88534 25.5747,-8.24854 2.6727,7.61156 5.2412,15.3281 7.8326,23.02295 -0.3328,0.81821 -1.407,0.92443 -2.08,1.23193 -10.2041,4.6676 -23.0485,8.01187 -37.7593,8.2295 z M 637.20675,197.43017 c 17.6997,-0.21361 30.4984,-8.42757 38.7349,-18.5332 8.8722,-10.88599 15.2951,-26.16703 15.2959,-45.67822 0,-20.20327 -4.6703,-35.667849 -13.582,-47.400879 -8.8327,-11.62947 -21.7362,-19.69873 -40.1382,-20.56055 -19.1712,-0.89763 -33.5258,7.72528 -42.4629,18.34424 -8.9248,10.60341 -15.2959,26.298609 -15.2959,45.678219 8e-4,20.38312 5.0432,35.89913 13.4605,47.52393 4.1367,5.71354 9.7436,10.79059 16.1528,14.28223 6.6553,3.62556 14.4895,5.81199 24.2299,6.27831 1.2237,0.0587 2.425,0.0802 3.605,0.0659 z m 151.1309,-0.45556 c 12.4235,-0.21215 22.8073,-3.56322 29.4316,-9.58301 3.8379,-3.48853 6.9436,-8.06189 8.1988,-14.03467 1.2582,-5.99145 0.5246,-13.58073 -1.7139,-19.33008 -4.1483,-10.65866 -13.0191,-16.82245 -25.2085,-19.20703 -12.4595,-2.43676 -28.0214,-0.45657 -43.0737,-1.10742 l 0,56.14306 c 8.1201,3.22617 16.429,6.4553 26.9223,7.01661 1.853,0.0992 3.6686,0.13284 5.4434,0.10254 z m 139.6201,-0.91407 c 8.2237,0.11321 16.3132,-1.76283 21.8496,-4.23633 9.1624,-4.09187 15.9297,-11.73777 17.2544,-23.88574 0.4473,-4.10355 0.2447,-8.63394 0.2447,-13.54248 l 0,-27.45556 -72.3209,0 0,59.58984 c 8.1603,5.8669 18.0995,8.86078 31.3257,9.48047 0.5487,0.0256 1.0982,0.0423 1.6465,0.0498 z"
       id="path4208"
       inkscape:connector-curvature="0" /><path
       inkscape:connector-curvature="0"
       style="fill:#0db14b;fill-opacity:1;fill-rule:evenodd;stroke:none;stroke-width:1"
       d="m 152.85552,221.25 c -2.38461,-3.0217 -5.02477,-7.6295 -7.42679,-11.53346 C 111.35412,154.33603 76.67277,99.040587 42.591993,44.039054 c -0.584946,-0.942842 -1.573606,-2.035476 -1.292875,-2.761598 61.243302,0.107917 122.909262,-0.216654 183.882102,0.162325 -11.44363,4.236745 -19.6426,12.268658 -26.63627,21.279306 -0.78617,1.0127 -2.41166,3.49129 -3.22936,3.73368 -1.50069,0.44679 -4.48663,0 -6.77942,0 l -102.193183,0 c 22.004223,35.686143 43.931433,71.450243 66.352113,106.717323 15.46165,-25.8035 31.49125,-51.53158 47.14077,-77.477843 3.99242,-6.61752 7.69118,-13.14106 12.10934,-19.0047 13.06266,-17.340276 31.88321,-31.11969 58.76501,-34.598426 20.42599,-2.644749 37.83359,1.874997 51.49851,8.934173 13.93853,7.198836 24.75655,17.134363 33.09682,29.237543 8.39753,12.18639 14.37192,27.926213 15.17629,47.103963 0.85661,20.46266 -0.77561,40.72617 0.16043,62.37305 l 117.04491,0 c -0.10686,-41.04033 0.21531,-82.51486 -0.16042,-123.285083 l -113.00975,0 c -2.54292,0 -6.02215,0.5156 -7.58709,0 -0.75239,-0.24753 -2.15413,-2.58625 -2.9085,-3.57328 -6.66002,-8.719957 -13.25237,-15.637574 -22.60123,-21.115043 -0.14908,-0.08734 -0.63933,-0.12652 -0.48313,-0.486988 l 171.77278,0 0,173.799984 -167.25448,0 0,-21.76632 c -9.83173,9.67517 -22.48963,18.36799 -38.09825,23.06692 -16.72552,5.03374 -37.77818,4.32382 -53.27651,-0.97594 -29.74319,-10.17124 -50.04267,-33.26106 -57.95721,-65.13465 -14.47654,23.60452 -28.74225,47.42734 -43.26787,70.98255 z m 130.73121,-26.57256 c 1.21057,-0.0148 2.40638,-0.0661 3.58687,-0.15074 9.4432,-0.67684 17.89851,-3.52133 25.00907,-7.44224 0.88881,-0.49012 1.75518,-0.99736 2.60124,-1.51899 0.84659,-0.5219 1.67114,-1.05676 2.47366,-1.60594 1.60399,-1.09777 3.1184,-2.2452 4.53756,-3.42641 1.41916,-1.18121 2.7424,-2.39682 3.96565,-3.6274 3.26602,-3.28636 6.30619,-6.87075 8.97088,-10.85513 1.06586,-1.59375 2.0726,-3.25029 3.00903,-4.97825 2.7e-4,-4.9e-4 -2.6e-4,-9.9e-4 0,-0.001 0.46782,-0.86349 0.91876,-1.74431 1.35082,-2.64372 2.7e-4,-5.3e-4 -2.6e-4,-9.9e-4 0,-10e-4 0.86427,-1.79939 1.65518,-3.67288 2.36153,-5.62565 0.3533,-0.97668 0.68497,-1.97221 0.99527,-2.98965 0.62072,-2.03541 1.15239,-4.15373 1.5867,-6.36196 0.43405,-2.20764 0.77034,-4.50408 0.9991,-6.89728 0.11478,-1.19659 0.20146,-2.41677 0.26082,-3.66218 0.0594,-1.24104 0.0831,-2.4691 0.0712,-3.68151 -0.0132,-1.2124 -0.0554,-2.41015 -0.13324,-3.5926 -0.23286,-3.54735 -0.75754,-6.95561 -1.52286,-10.20966 -1.3e-4,-6.1e-4 1.4e-4,-9.9e-4 0,-0.001 -1.5309,-6.5074 -4.02725,-12.39349 -7.08866,-17.514703 -1.02047,-1.70724 -2.10373,-3.33017 -3.23502,-4.8623 -1.13156,-1.53213 -2.31034,-2.97278 -3.52303,-4.31925 -0.60634,-0.67324 -1.22073,-1.32316 -1.84172,-1.94801 -4e-4,-3.3e-4 -10e-4,3.3e-4 -10e-4,0 -6.65079,-6.69211 -14.31295,-12.56671 -23.85931,-16.23148 -2.86391,-1.09943 -5.89735,-1.99876 -9.12353,-2.66305 -3.22632,-0.6643 -6.64565,-1.09245 -10.28121,-1.2465 -0.63497,-0.0269 -1.26559,-0.0453 -1.89001,-0.0541 -11.86435,-0.16895 -21.82536,2.87488 -30.17104,7.46544 -3.51392,1.93287 -6.74063,4.1398 -9.70323,6.49724 -1.48142,1.17871 -2.89623,2.39491 -4.24784,3.63319 -1.37153,1.25697 -2.67076,2.60207 -3.90179,4.02357 -0.61545,0.71047 -1.21361,1.43888 -1.79528,2.18571 -2.9085,3.73442 -5.40222,7.90413 -7.54079,12.308413 -1.33907,2.7575 -2.4883,5.63621 -3.42843,8.68294 -0.31333,1.01536 -0.60344,2.04784 -0.86967,3.10175 -0.53233,2.10791 -0.96928,4.29677 -1.30438,6.57839 -0.3351,2.28163 -0.56756,4.65572 -0.69381,7.13691 -0.3855,7.56257 0.5256,14.52874 2.34028,20.81937 0.60489,2.09687 1.30979,4.11828 2.1007,6.0624 0.79091,1.94413 1.6689,3.81104 2.61667,5.59666 1.89556,3.57129 4.07449,6.81961 6.4219,9.72266 1.17364,1.45154 2.39028,2.81725 3.63318,4.09314 2.61325,2.6821 5.2604,5.16063 8.19014,7.43452 6.6e-4,5.5e-4 9.2e-4,0.001 0.001,0.001 2.93053,2.27436 6.14286,4.3437 9.88885,6.20735 4.39045,2.18424 9.41456,3.99232 14.96573,5.15605 1.11031,0.23274 2.24358,0.43932 3.39545,0.61842 2.3036,0.35816 4.68729,0.6049 7.14658,0.72277 1.23933,0.0594 2.46508,0.0805 3.67566,0.0657 z"
       id="path4224" /></g></svg>