<?xml version="1.0" encoding="UTF-8" standalone="no"?>
<!-- Created with Inkscape (http://www.inkscape.org/) -->

<svg
   xmlns:dc="http://purl.org/dc/elements/1.1/"
   xmlns:cc="http://creativecommons.org/ns#"
   xmlns:rdf="http://www.w3.org/1999/02/22-rdf-syntax-ns#"
   xmlns:svg="http://www.w3.org/2000/svg"
   xmlns="http://www.w3.org/2000/svg"
   xmlns:sodipodi="http://sodipodi.sourceforge.net/DTD/sodipodi-0.dtd"
   xmlns:inkscape="http://www.inkscape.org/namespaces/inkscape"
   width="640"
   height="64"
   id="svg2983"
   version="1.1"
   inkscape:version="0.48.2 r9819"
   sodipodi:docname="ground.svg">
  <defs
     id="defs2985" />
  <sodipodi:namedview
     id="base"
     pagecolor="#ffffff"
     bordercolor="#666666"
     borderopacity="1.0"
     inkscape:pageopacity="0.0"
     inkscape:pageshadow="2"
     inkscape:zoom="3.4073708"
     inkscape:cx="308.60218"
     inkscape:cy="36.402224"
     inkscape:document-units="px"
     inkscape:current-layer="layer1"
     showgrid="true"
     inkscape:window-width="1280"
     inkscape:window-height="752"
     inkscape:window-x="0"
     inkscape:window-y="0"
     inkscape:window-maximized="1"
     fit-margin-top="0"
     fit-margin-left="0"
     fit-margin-right="0"
     fit-margin-bottom="0">
    <inkscape:grid
       type="xygrid"
       id="grid2991"
       empspacing="4"
       visible="true"
       enabled="true"
       snapvisiblegridlinesonly="true" />
  </sodipodi:namedview>
  <metadata
     id="metadata2988">
    <rdf:RDF>
      <cc:Work
         rdf:about="">
        <dc:format>image/svg+xml</dc:format>
        <dc:type
           rdf:resource="http://purl.org/dc/dcmitype/StillImage" />
        <dc:title></dc:title>
      </cc:Work>
    </rdf:RDF>
  </metadata>
  <g
     inkscape:label="Laag 1"
     inkscape:groupmode="layer"
     id="layer1"
     transform="translate(0,-988.36218)">
    <rect
       style="fill:#996600;fill-opacity:1;fill-rule:evenodd;stroke:none"
       id="rect2993"
       width="320"
       height="48"
       x="0"
       y="1004.3622" />
    <path
       style="font-size:medium;font-style:normal;font-variant:normal;font-weight:normal;font-stretch:normal;text-indent:0;text-align:start;text-decoration:none;line-height:normal;letter-spacing:normal;word-spacing:normal;text-transform:none;direction:ltr;block-progression:tb;writing-mode:lr-tb;text-anchor:start;baseline-shift:baseline;color:#000000;fill:#000000;fill-opacity:1;fill-rule:nonzero;stroke:none;stroke-width:1;marker:none;visibility:visible;display:inline;overflow:visible;enable-background:accumulate;font-family:Sans;-inkscape-font-specification:Sans"
       d="m 320,1004.3622 c -7.80218,0.184 -12.43569,4.2297 -16.34375,8.1378 -4,4 -7.82292,7.875 -15.65625,7.875 -7.83333,0 -11.65625,-3.875 -15.65625,-7.875 -4,-4 -8.17708,-8.125 -16.34375,-8.125 -8.16667,0 -12.34375,4.125 -16.34375,8.125 -4,4 -7.82292,7.875 -15.65625,7.875 -7.83333,0 -11.65625,-3.875 -15.65625,-7.875 -4,-4 -8.17708,-8.125 -16.34375,-8.125 -8.16667,0 -12.34375,4.125 -16.34375,8.125 -4,4 -7.82292,7.875 -15.65625,7.875 -7.83333,0 -11.65625,-3.875 -15.65625,-7.875 -4,-4 -8.17708,-8.125 -16.34375,-8.125 -8.16667,0 -12.34375,4.125 -16.34375,8.125 -4,4 -7.82292,7.875 -15.65625,7.875 -7.833333,0 -11.65625,-3.875 -15.65625,-7.875 -4,-4 -8.177083,-8.125 -16.34375,-8.125 -8.166667,0 -12.34375,4.125 -16.34375,8.125 -4,4 -7.822917,7.875 -15.65625,7.875 -7.833333,0 -11.65625,-3.875 -15.65625,-7.875 C 12.435688,1008.5919 7.8021777,1004.5462 0,1004.3622 l 0,1.0128 c 7.8333333,0 11.65625,3.8438 15.65625,7.8438 4,4 8.177083,8.1562 16.34375,8.1562 8.166667,0 12.34375,-4.1562 16.34375,-8.1562 4,-4 7.822917,-7.8438 15.65625,-7.8438 7.833333,0 11.65625,3.8438 15.65625,7.8438 4,4 8.177083,8.1562 16.34375,8.1562 8.16667,0 12.34375,-4.1562 16.34375,-8.1562 4,-4 7.82292,-7.8438 15.65625,-7.8438 7.83333,0 11.65625,3.8438 15.65625,7.8438 4,4 8.17708,8.1562 16.34375,8.1562 8.16667,0 12.34375,-4.1562 16.34375,-8.1562 4,-4 7.82292,-7.8438 15.65625,-7.8438 7.83333,0 11.65625,3.8438 15.65625,7.8438 4,4 8.17708,8.1562 16.34375,8.1562 8.16667,0 12.34375,-4.1562 16.34375,-8.1562 4,-4 7.82292,-7.8438 15.65625,-7.8438 7.83333,0 11.65625,3.8438 15.65625,7.8438 4,4 8.17708,8.1562 16.34375,8.1562 8.16667,0 12.34375,-4.1562 16.34375,-8.1562 4,-4 7.82292,-7.8438 15.65625,-7.8438 z m 0,-15.9872 -320,0 0,0.98718 320,0.0128 z"
       id="path3763"
       inkscape:connector-curvature="0"
       sodipodi:nodetypes="csssssssssssssssssssccsssssssssssssssssssccccccc" />
    <path
       sodipodi:nodetypes="ccsssssssssccc"
       inkscape:connector-curvature="0"
       id="path3799"
       d="m 0,988.86208 0,16.00012 c 16,0 16,16 32,16 16,0 16,-16 32,-16 16,0 16,16 32,16 16,0 16,-16 32,-16 16,0 16,16 32,16 16,0 16,-16 32,-16 16,0 16,16 32,16 16,0 16,-16 32,-16 16,0 16,16 32,16 16,0 16,-16 32,-16 l 0,-16.00012 z"
       style="fill:#00cc00;fill-opacity:1;stroke:none" />
    <rect
       y="1004.3622"
       x="320"
       height="48"
       width="320"
       id="rect3805"
       style="fill:#996600;fill-opacity:1;fill-rule:evenodd;stroke:none" />
    <path
       sodipodi:nodetypes="csssssssssssssssssssccsssssssssssssssssssccccccc"
       inkscape:connector-curvature="0"
       id="path3807"
       d="m 640,1004.3622 c -7.80218,0.184 -12.43569,4.2297 -16.34375,8.1378 -4,4 -7.82292,7.875 -15.65625,7.875 -7.83333,0 -11.65625,-3.875 -15.65625,-7.875 -4,-4 -8.17708,-8.125 -16.34375,-8.125 -8.16667,0 -12.34375,4.125 -16.34375,8.125 -4,4 -7.82292,7.875 -15.65625,7.875 -7.83333,0 -11.65625,-3.875 -15.65625,-7.875 -4,-4 -8.17708,-8.125 -16.34375,-8.125 -8.16667,0 -12.34375,4.125 -16.34375,8.125 -4,4 -7.82292,7.875 -15.65625,7.875 -7.83333,0 -11.65625,-3.875 -15.65625,-7.875 -4,-4 -8.17708,-8.125 -16.34375,-8.125 -8.16667,0 -12.34375,4.125 -16.34375,8.125 -4,4 -7.82292,7.875 -15.65625,7.875 -7.83333,0 -11.65625,-3.875 -15.65625,-7.875 -4,-4 -8.17708,-8.125 -16.34375,-8.125 -8.16667,0 -12.34375,4.125 -16.34375,8.125 -4,4 -7.82292,7.875 -15.65625,7.875 -7.83333,0 -11.65625,-3.875 -15.65625,-7.875 -3.90806,-3.9081 -8.54157,-7.9538 -16.34375,-8.1378 l 0,1.0128 c 7.83333,0 11.65625,3.8438 15.65625,7.8438 4,4 8.17708,8.1562 16.34375,8.1562 8.16667,0 12.34375,-4.1562 16.34375,-8.1562 4,-4 7.82292,-7.8438 15.65625,-7.8438 7.83333,0 11.65625,3.8438 15.65625,7.8438 4,4 8.17708,8.1562 16.34375,8.1562 8.16667,0 12.34375,-4.1562 16.34375,-8.1562 4,-4 7.82292,-7.8438 15.65625,-7.8438 7.83333,0 11.65625,3.8438 15.65625,7.8438 4,4 8.17708,8.1562 16.34375,8.1562 8.16667,0 12.34375,-4.1562 16.34375,-8.1562 4,-4 7.82292,-7.8438 15.65625,-7.8438 7.83333,0 11.65625,3.8438 15.65625,7.8438 4,4 8.17708,8.1562 16.34375,8.1562 8.16667,0 12.34375,-4.1562 16.34375,-8.1562 4,-4 7.82292,-7.8438 15.65625,-7.8438 7.83333,0 11.65625,3.8438 15.65625,7.8438 4,4 8.17708,8.1562 16.34375,8.1562 8.16667,0 12.34375,-4.1562 16.34375,-8.1562 4,-4 7.82292,-7.8438 15.65625,-7.8438 z m 0,-15.9872 -320,0 0,0.98718 320,0.0128 z"
       style="font-size:medium;font-style:normal;font-variant:normal;font-weight:normal;font-stretch:normal;text-indent:0;text-align:start;text-decoration:none;line-height:normal;letter-spacing:normal;word-spacing:normal;text-transform:none;direction:ltr;block-progression:tb;writing-mode:lr-tb;text-anchor:start;baseline-shift:baseline;color:#000000;fill:#000000;fill-opacity:1;fill-rule:nonzero;stroke:none;stroke-width:1;marker:none;visibility:visible;display:inline;overflow:visible;enable-background:accumulate;font-family:Sans;-inkscape-font-specification:Sans" />
    <path
       style="fill:#00cc00;fill-opacity:1;stroke:none"
       d="m 320,988.86208 0,16.00012 c 16,0 16,16 32,16 16,0 16,-16 32,-16 16,0 16,16 32,16 16,0 16,-16 32,-16 16,0 16,16 32,16 16,0 16,-16 32,-16 16,0 16,16 32,16 16,0 16,-16 32,-16 16,0 16,16 32,16 16,0 16,-16 32,-16 l 0,-16.00012 z"
       id="path3809"
       inkscape:connector-curvature="0"
       sodipodi:nodetypes="ccsssssssssccc" />
  </g>
</svg>
