<?xml version="1.0" encoding="UTF-8" standalone="no"?>
<!-- Created with Inkscape (http://www.inkscape.org/) -->

<svg
   xmlns:dc="http://purl.org/dc/elements/1.1/"
   xmlns:cc="http://creativecommons.org/ns#"
   xmlns:rdf="http://www.w3.org/1999/02/22-rdf-syntax-ns#"
   xmlns:svg="http://www.w3.org/2000/svg"
   xmlns="http://www.w3.org/2000/svg"
   xmlns:sodipodi="http://sodipodi.sourceforge.net/DTD/sodipodi-0.dtd"
   xmlns:inkscape="http://www.inkscape.org/namespaces/inkscape"
   width="32"
   height="128"
   id="svg3007"
   version="1.1"
   inkscape:version="0.48.2 r9819"
   sodipodi:docname="Nieuw document 2">
  <defs
     id="defs3009" />
  <sodipodi:namedview
     id="base"
     pagecolor="#ffffff"
     bordercolor="#666666"
     borderopacity="1.0"
     inkscape:pageopacity="0.0"
     inkscape:pageshadow="2"
     inkscape:zoom="4.171875"
     inkscape:cx="16"
     inkscape:cy="64"
     inkscape:document-units="px"
     inkscape:current-layer="layer1"
     showgrid="true"
     inkscape:window-width="1280"
     inkscape:window-height="752"
     inkscape:window-x="0"
     inkscape:window-y="0"
     inkscape:window-maximized="1">
    <inkscape:grid
       type="xygrid"
       id="grid3015"
       empspacing="4"
       visible="true"
       enabled="true"
       snapvisiblegridlinesonly="true" />
  </sodipodi:namedview>
  <metadata
     id="metadata3012">
    <rdf:RDF>
      <cc:Work
         rdf:about="">
        <dc:format>image/svg+xml</dc:format>
        <dc:type
           rdf:resource="http://purl.org/dc/dcmitype/StillImage" />
        <dc:title></dc:title>
      </cc:Work>
    </rdf:RDF>
  </metadata>
  <g
     inkscape:label="Laag 1"
     inkscape:groupmode="layer"
     id="layer1"
     transform="translate(0,-924.3622)">
    <path
       style="fill:#ffffff;fill-opacity:1;stroke:none"
       d="m 10,1004.3622 0,16 -10,0 0,16 32,0 0,-24 -10,0 0,-8 -12,0 z m 5,2 2,0 0,8 -2,0 0,-8 z m 9,8 6,0 0,5 -4,0 0,1 4,0 0,2 -6,0 0,-5 4,0 0,-1 -4,0 0,-2 z m -22,8 6,0 0,5 0,3 -6,0 0,-2 4,0 0,-1 -3,0 0,-2 3,0 0,-1 -4,0 0,-2 z"
       id="path3017"
       inkscape:connector-curvature="0" />
    <path
       inkscape:connector-curvature="0"
       id="path3798"
       d="m 10,940.3622 0,16 -10,0 0,16 32,0 0,-24 -10,0 0,-8 -12,0 z m 5,2 2,0 0,8 -2,0 0,-8 z m 9,8 6,0 0,5 -4,0 0,1 4,0 0,2 -6,0 0,-5 4,0 0,-1 -4,0 0,-2 z m -22,8 6,0 0,5 0,3 -6,0 0,-2 4,0 0,-1 -3,0 0,-2 3,0 0,-1 -4,0 0,-2 z"
       style="fill:#ffcc00;fill-opacity:1;stroke:none" />
  </g>
</svg>
