<?xml version="1.0" encoding="UTF-8" standalone="no"?>
<!-- Created with Inkscape (http://www.inkscape.org/) -->

<svg
   xmlns:dc="http://purl.org/dc/elements/1.1/"
   xmlns:cc="http://creativecommons.org/ns#"
   xmlns:rdf="http://www.w3.org/1999/02/22-rdf-syntax-ns#"
   xmlns:svg="http://www.w3.org/2000/svg"
   xmlns="http://www.w3.org/2000/svg"
   xmlns:sodipodi="http://sodipodi.sourceforge.net/DTD/sodipodi-0.dtd"
   xmlns:inkscape="http://www.inkscape.org/namespaces/inkscape"
   width="12"
   height="8"
   id="svg4325"
   version="1.1"
   inkscape:version="0.91pre2+osxmenu r12795"
   viewBox="0 0 12 8.0000001"
   sodipodi:docname="houseactive.svg">
  <defs
     id="defs4327" />
  <sodipodi:namedview
     id="base"
     pagecolor="#ffffff"
     bordercolor="#666666"
     borderopacity="1.0"
     inkscape:pageopacity="0.0"
     inkscape:pageshadow="2"
     inkscape:zoom="22.627417"
     inkscape:cx="4.3627547"
     inkscape:cy="2.4363468"
     inkscape:document-units="px"
     inkscape:current-layer="layer1"
     showgrid="false"
     units="px"
     inkscape:window-width="960"
     inkscape:window-height="600"
     inkscape:window-x="0"
     inkscape:window-y="23"
     inkscape:window-maximized="0">
    <inkscape:grid
       type="xygrid"
       id="grid4873"
       spacingx="0.5px"
       spacingy="0.5px"
       empspacing="4" />
  </sodipodi:namedview>
  <metadata
     id="metadata4330">
    <rdf:RDF>
      <cc:Work
         rdf:about="">
        <dc:format>image/svg+xml</dc:format>
        <dc:type
           rdf:resource="http://purl.org/dc/dcmitype/StillImage" />
        <dc:title></dc:title>
      </cc:Work>
    </rdf:RDF>
  </metadata>
  <g
     inkscape:label="Laag 1"
     inkscape:groupmode="layer"
     id="layer1"
     transform="translate(0,-1044.3622)">
    <path
       style="color:#000000;font-style:normal;font-variant:normal;font-weight:normal;font-stretch:normal;font-size:medium;line-height:normal;font-family:sans-serif;text-indent:0;text-align:start;text-decoration:none;text-decoration-line:none;text-decoration-style:solid;text-decoration-color:#000000;letter-spacing:normal;word-spacing:normal;text-transform:none;direction:ltr;block-progression:tb;writing-mode:lr-tb;baseline-shift:baseline;text-anchor:start;clip-rule:nonzero;display:inline;overflow:visible;visibility:visible;opacity:1;isolation:auto;mix-blend-mode:normal;color-interpolation:sRGB;color-interpolation-filters:linearRGB;solid-color:#000000;solid-opacity:1;fill:#222222;fill-opacity:1;fill-rule:evenodd;stroke:none;stroke-width:1px;stroke-linecap:round;stroke-linejoin:round;stroke-miterlimit:4;stroke-dasharray:none;stroke-dashoffset:0;stroke-opacity:1;color-rendering:auto;image-rendering:auto;shape-rendering:auto;text-rendering:auto;enable-background:accumulate"
       d="m 5.9824219,0.00195313 c -0.088431,0.00219175 -0.1746981,0.0278023 -0.25,0.07421874 L 0.23242188,3.5761719 c -0.60376199,0.3470584 -0.0361454,1.2419866 0.53515624,0.84375 L 1,4.2714844 1,8 3.9765625,8 3.8320312,7.7480469 C 3.2287291,6.7005854 3.4664012,5.3630744 4.3925781,4.5859375 4.8560022,4.1970375 5.4282283,4.0019531 6,4.0019531 c 0.5717717,0 1.1439978,0.1950844 1.6074219,0.5839844 0.9263889,0.7773147 1.1624187,2.1145408 0.5585937,3.1621094 L 8.0214844,8 11,8 11,4.2734375 11.232422,4.421875 c 0.571302,0.3982394 1.138921,-0.4966925 0.535156,-0.84375 l -5.4999999,-3.5 C 6.1823552,0.0246215 6.082973,-0.00192583 5.9824219,0.00195313 Z M 6.8671875,8 7.2988281,7.2480469 C 7.6632676,6.6150155 7.5245367,5.8211558 6.9648438,5.3515625 c -0.5601779,-0.4701 -1.3695097,-0.4701 -1.9296876,0 C 4.4756401,5.8210075 4.3352127,6.6151137 4.6992188,7.2480469 L 5.1308594,8 Z"
       transform="translate(-7.5e-8,1044.3622)"
       id="path4880"
       inkscape:connector-curvature="0"
       sodipodi:nodetypes="cccccccccscccccccccccccccc" />
  </g>
</svg>
