<?xml version="1.0" encoding="UTF-8" standalone="no"?>
<!-- Created with Inkscape (http://www.inkscape.org/) -->

<svg
   xmlns:dc="http://purl.org/dc/elements/1.1/"
   xmlns:cc="http://creativecommons.org/ns#"
   xmlns:rdf="http://www.w3.org/1999/02/22-rdf-syntax-ns#"
   xmlns:svg="http://www.w3.org/2000/svg"
   xmlns="http://www.w3.org/2000/svg"
   xmlns:sodipodi="http://sodipodi.sourceforge.net/DTD/sodipodi-0.dtd"
   xmlns:inkscape="http://www.inkscape.org/namespaces/inkscape"
   width="12"
   height="8"
   id="svg4325"
   version="1.1"
   inkscape:version="0.91pre2+osxmenu r12795"
   viewBox="0 0 12 8.0000001"
   sodipodi:docname="letter.svg">
  <defs
     id="defs4327" />
  <sodipodi:namedview
     id="base"
     pagecolor="#ffffff"
     bordercolor="#666666"
     borderopacity="1.0"
     inkscape:pageopacity="0.0"
     inkscape:pageshadow="2"
     inkscape:zoom="16"
     inkscape:cx="1.3844345"
     inkscape:cy="6.9443111"
     inkscape:document-units="px"
     inkscape:current-layer="layer1"
     showgrid="true"
     units="px"
     inkscape:window-width="960"
     inkscape:window-height="600"
     inkscape:window-x="0"
     inkscape:window-y="23"
     inkscape:window-maximized="0">
    <inkscape:grid
       type="xygrid"
       id="grid4873"
       spacingx="0.5px"
       spacingy="0.5px"
       empspacing="4" />
  </sodipodi:namedview>
  <metadata
     id="metadata4330">
    <rdf:RDF>
      <cc:Work
         rdf:about="">
        <dc:format>image/svg+xml</dc:format>
        <dc:type
           rdf:resource="http://purl.org/dc/dcmitype/StillImage" />
        <dc:title />
      </cc:Work>
    </rdf:RDF>
  </metadata>
  <g
     inkscape:label="Laag 1"
     inkscape:groupmode="layer"
     id="layer1"
     transform="translate(0,-1044.3622)">
    <path
       style="color:#000000;font-style:normal;font-variant:normal;font-weight:normal;font-stretch:normal;font-size:medium;line-height:normal;font-family:sans-serif;text-indent:0;text-align:start;text-decoration:none;text-decoration-line:none;text-decoration-style:solid;text-decoration-color:#000000;letter-spacing:normal;word-spacing:normal;text-transform:none;direction:ltr;block-progression:tb;writing-mode:lr-tb;baseline-shift:baseline;text-anchor:start;clip-rule:nonzero;display:inline;overflow:visible;visibility:visible;opacity:1;isolation:auto;mix-blend-mode:normal;color-interpolation:sRGB;color-interpolation-filters:linearRGB;solid-color:#000000;solid-opacity:1;fill:#222222;fill-opacity:1;fill-rule:nonzero;stroke:none;stroke-width:1;stroke-linecap:round;stroke-linejoin:round;stroke-miterlimit:4;stroke-dasharray:none;stroke-dashoffset:0;stroke-opacity:1;color-rendering:auto;image-rendering:auto;shape-rendering:auto;text-rendering:auto;enable-background:accumulate"
       d="M 1.5 0 C 0.67764863 0 0 0.67770001 0 1.5 L 0 6.5 C 0 7.3224 0.67764863 8 1.5 8 L 10.5 8 C 11.322351 8 12 7.3224 12 6.5 L 12 1.5 C 12 0.67770001 11.322351 0 10.5 0 L 1.5 0 z M 1.5 1 L 10.5 1 C 10.520253 1 10.537156 1.0076611 10.556641 1.0097656 L 6 3.9082031 L 1.4433594 1.0097656 C 1.4628444 1.0076611 1.4797472 1 1.5 1 z M 1 1.9121094 L 6 5.09375 L 11 1.9121094 L 11 6.5 C 11 6.7857 10.785649 7 10.5 7 L 1.5 7 C 1.2143514 7 1 6.7857 1 6.5 L 1 1.9121094 z "
       transform="translate(-7.5e-8,1044.3622)"
       id="rect4898" />
  </g>
</svg>
