<?xml version="1.0" encoding="UTF-8" standalone="no"?>
<!-- Created with Inkscape (http://www.inkscape.org/) -->

<svg
   xmlns:dc="http://purl.org/dc/elements/1.1/"
   xmlns:cc="http://creativecommons.org/ns#"
   xmlns:rdf="http://www.w3.org/1999/02/22-rdf-syntax-ns#"
   xmlns:svg="http://www.w3.org/2000/svg"
   xmlns="http://www.w3.org/2000/svg"
   xmlns:sodipodi="http://sodipodi.sourceforge.net/DTD/sodipodi-0.dtd"
   xmlns:inkscape="http://www.inkscape.org/namespaces/inkscape"
   width="64"
   height="48"
   viewBox="0 0 16.933333 12.7"
   id="svg2"
   version="1.1"
   inkscape:version="0.91+devel+osxmenu r12911"
   sodipodi:docname="reportflip_logo_coloured.svg">
  <defs
     id="defs4" />
  <sodipodi:namedview
     id="base"
     pagecolor="#ffffff"
     bordercolor="#666666"
     borderopacity="1.0"
     inkscape:pageopacity="0.0"
     inkscape:pageshadow="2"
     inkscape:zoom="5.1458334"
     inkscape:cx="32"
     inkscape:cy="24.000002"
     inkscape:document-units="px"
     inkscape:current-layer="text4141"
     showgrid="true"
     units="px"
     inkscape:snap-bbox="true"
     inkscape:bbox-paths="true"
     inkscape:bbox-nodes="true"
     inkscape:snap-bbox-edge-midpoints="true"
     inkscape:snap-bbox-midpoints="true"
     inkscape:object-paths="true"
     inkscape:snap-intersection-paths="true"
     inkscape:object-nodes="true"
     inkscape:snap-smooth-nodes="true"
     inkscape:snap-midpoints="true"
     fit-margin-top="0"
     fit-margin-left="0"
     fit-margin-right="0"
     fit-margin-bottom="0">
    <inkscape:grid
       type="xygrid"
       id="grid4151"
       originx="1.0583333"
       originy="-2.9476191e-06" />
  </sodipodi:namedview>
  <metadata
     id="metadata7">
    <rdf:RDF>
      <cc:Work
         rdf:about="">
        <dc:format>image/svg+xml</dc:format>
        <dc:type
           rdf:resource="http://purl.org/dc/dcmitype/StillImage" />
        <dc:title></dc:title>
      </cc:Work>
    </rdf:RDF>
  </metadata>
  <g
     inkscape:label="Laag 1"
     inkscape:groupmode="layer"
     id="layer1"
     transform="translate(1.0583333,-284.29998)">
    <g
       style="font-style:normal;font-weight:normal;font-size:2.11666679px;line-height:125%;font-family:sans-serif;letter-spacing:0px;word-spacing:0px;fill:#000000;fill-opacity:1;stroke:none;stroke-width:0.26458335px;stroke-linecap:butt;stroke-linejoin:miter;stroke-opacity:1"
       id="text4141">
      <path
         style="font-style:normal;font-variant:normal;font-weight:800;font-stretch:normal;font-family:Avenir;-inkscape-font-specification:'Avenir Ultra-Bold';fill:#498bcf;fill-opacity:1;stroke-width:0.26458335px"
         d="m 3.9687501,284.29998 c -0.79375,0 -1.1695606,0.0658 -1.7040997,0.19741 -0.5456763,0.11977 -1.1347232,0.32901 -1.53562811,0.62787 -0.4120427,0.287 -0.7348922,0.68166 -0.96875254,1.1839 -0.24499876,0.49038 -0.36767358,1.10663 -0.36767358,1.84795 0,0.89686 0.21729631,1.66223 0.65161002,2.29599 0.4343134,0.62184 0.97265851,1.08782 1.80787721,1.25522 l -2.9104167,5.29166 3.175,0 2.3812501,-5.02708 1.3229166,0 0,5.02708 2.38125,0 0,-12.7 z m 0.2645833,2.38125 1.5875,0 0,2.91042 -1.5875,0 c -0.2338608,0 -0.425178,-0.0422 -0.6813095,-0.0533 -0.2672703,-0.0226 -0.5064321,-0.076 -0.7180224,-0.16071 -0.2115899,-0.0955 -0.3841881,-0.23894 -0.517823,-0.43046 -0.1447733,-0.19152 -0.2175241,-0.46083 -0.2175241,-0.80771 0,-0.32259 0.06134,-0.5795 0.1838369,-0.77101 0.1224963,-0.19152 0.2784533,-0.33499 0.467773,-0.43046 0.189315,-0.10792 0.4066117,-0.17991 0.6516099,-0.21549 z"
         id="path4146"
         inkscape:connector-curvature="0"
         sodipodi:nodetypes="ccccscccccccccccccscccscccc" />
      <path
         sodipodi:nodetypes="cccccccccccc"
         inkscape:connector-curvature="0"
         id="path4153"
         d="m 8.2020836,296.99998 2.3812494,0 0,-5.02708 4.762501,0 0,-2.38125 -4.762501,0 0,-2.91042 5.291668,0 0,-2.38125 -5.291668,0 -2.3812494,0 z"
         style="font-style:normal;font-variant:normal;font-weight:800;font-stretch:normal;font-family:Avenir;-inkscape-font-specification:'Avenir Ultra-Bold';fill:#23507d;fill-opacity:1;stroke-width:0.26458335px" />
    </g>
  </g>
</svg>
