<?xml version="1.0" encoding="UTF-8" standalone="no"?>
<!-- Created with Inkscape (http://www.inkscape.org/) -->

<svg
   xmlns:dc="http://purl.org/dc/elements/1.1/"
   xmlns:cc="http://creativecommons.org/ns#"
   xmlns:rdf="http://www.w3.org/1999/02/22-rdf-syntax-ns#"
   xmlns:svg="http://www.w3.org/2000/svg"
   xmlns="http://www.w3.org/2000/svg"
   xmlns:sodipodi="http://sodipodi.sourceforge.net/DTD/sodipodi-0.dtd"
   xmlns:inkscape="http://www.inkscape.org/namespaces/inkscape"
   id="svg4141"
   version="1.1"
   inkscape:version="0.91+devel+osxmenu r12911"
   xml:space="preserve"
   width="64"
   height="128"
   viewBox="0 0 64 128"
   sodipodi:docname="google.svg"><metadata
     id="metadata4147"><rdf:RDF><cc:Work
         rdf:about=""><dc:format>image/svg+xml</dc:format><dc:type
           rdf:resource="http://purl.org/dc/dcmitype/StillImage" /><dc:title /></cc:Work></rdf:RDF></metadata><defs
     id="defs4145" /><sodipodi:namedview
     pagecolor="#ffffff"
     bordercolor="#666666"
     borderopacity="1"
     objecttolerance="10"
     gridtolerance="10"
     guidetolerance="10"
     inkscape:pageopacity="0"
     inkscape:pageshadow="2"
     inkscape:window-width="640"
     inkscape:window-height="480"
     id="namedview4143"
     inkscape:document-units="px"
     showgrid="false"
     inkscape:snap-bbox="true"
     inkscape:bbox-paths="true"
     inkscape:bbox-nodes="true"
     inkscape:snap-bbox-edge-midpoints="true"
     inkscape:snap-bbox-midpoints="true"
     inkscape:object-paths="true"
     inkscape:snap-smooth-nodes="true"
     inkscape:object-nodes="true"
     inkscape:snap-intersection-paths="true"
     inkscape:snap-midpoints="true"
     inkscape:zoom="3.8593751"
     inkscape:cx="-13.862347"
     inkscape:cy="30.574901"
     inkscape:current-layer="g4149" /><g
     id="g4149"
     inkscape:groupmode="layer"
     inkscape:label="ink_ext_XXXXXX"
     transform="matrix(1.3333333,0,0,-1.3333333,0,127.99999)"><g
       id="g4226"
       transform="matrix(1.5,0,0,1.5,-13.62786,-12.961906)"
       style="stroke-width:0.66666669;fill:#ededed;fill-opacity:1"><path
         d="m 10.859672,25.091471 c 0.07884,4.636404 4.427244,8.696972 9.156986,8.542294 2.266226,0.10291 4.396622,-0.863756 6.132374,-2.221567 -0.740765,-0.825162 -1.507869,-1.62 -2.327626,-2.363381 -2.086432,1.413557 -5.054019,1.817561 -7.140577,0.184696 -2.985149,-2.023698 -3.12101,-6.801918 -0.249848,-8.980297 2.792294,-2.483755 8.069915,-1.250607 8.841457,2.552367 -1.748969,0.02573 -3.502437,0 -5.251405,0.05575 -0.0044,1.022723 -0.0088,2.045445 -0.0044,3.067862 2.92375,0.0089 5.847498,0.01317 8.775652,-0.0086 0.175263,-2.406263 -0.149015,-4.966899 -1.656916,-6.956599 -2.283817,-3.149643 -6.868888,-4.069144 -10.445785,-2.719909 -3.590083,1.340657 -6.132405,5.057562 -5.829937,8.847364"
         style="fill:#ededed;fill-opacity:1;fill-rule:nonzero;stroke:none;stroke-width:0.06666666"
         id="path4179"
         inkscape:connector-curvature="0" /><path
         d="m 34.347723,28.429116 c 0.825117,0 1.649936,0 2.47921,0 0.0042,-0.829242 0.0083,-1.66264 0.01663,-2.491584 0.829274,-0.0083 1.662707,-0.0083 2.491684,-0.01693 0,-0.824786 0,-1.654027 0,-2.478812 -0.828977,-0.0086 -1.658251,-0.01277 -2.491684,-0.02109 -0.0083,-0.833102 -0.01247,-1.662343 -0.01663,-2.491583 -0.829274,0 -1.654093,0 -2.483368,0 -0.0083,0.82924 -0.0083,1.658481 -0.01663,2.487425 -0.829274,0.0083 -1.66241,0.01663 -2.491684,0.02524 0,0.824785 0,1.649868 0,2.478813 0.829274,0.0086 1.658251,0.01277 2.491684,0.01693 0.0042,0.833102 0.01247,1.662343 0.02079,2.491584"
         style="fill:#ededed;fill-opacity:1;fill-rule:nonzero;stroke:none;stroke-width:0.06666667"
         id="path4181"
         inkscape:connector-curvature="0" /></g><g
       style="stroke-width:0.66666669;fill:#22507f;fill-opacity:1"
       transform="matrix(1.5,0,0,1.5,-13.62786,35.038095)"
       id="g4232"><path
         inkscape:connector-curvature="0"
         id="path4234"
         style="fill:#22507f;fill-opacity:1;fill-rule:nonzero;stroke:none;stroke-width:0.06666666"
         d="m 10.859672,25.091471 c 0.07884,4.636404 4.427244,8.696972 9.156986,8.542294 2.266226,0.10291 4.396622,-0.863756 6.132374,-2.221567 -0.740765,-0.825162 -1.507869,-1.62 -2.327626,-2.363381 -2.086432,1.413557 -5.054019,1.817561 -7.140577,0.184696 -2.985149,-2.023698 -3.12101,-6.801918 -0.249848,-8.980297 2.792294,-2.483755 8.069915,-1.250607 8.841457,2.552367 -1.748969,0.02573 -3.502437,0 -5.251405,0.05575 -0.0044,1.022723 -0.0088,2.045445 -0.0044,3.067862 2.92375,0.0089 5.847498,0.01317 8.775652,-0.0086 0.175263,-2.406263 -0.149015,-4.966899 -1.656916,-6.956599 -2.283817,-3.149643 -6.868888,-4.069144 -10.445785,-2.719909 -3.590083,1.340657 -6.132405,5.057562 -5.829937,8.847364" /><path
         inkscape:connector-curvature="0"
         id="path4236"
         style="fill:#22507f;fill-opacity:1;fill-rule:nonzero;stroke:none;stroke-width:0.06666667"
         d="m 34.347723,28.429116 c 0.825117,0 1.649936,0 2.47921,0 0.0042,-0.829242 0.0083,-1.66264 0.01663,-2.491584 0.829274,-0.0083 1.662707,-0.0083 2.491684,-0.01693 0,-0.824786 0,-1.654027 0,-2.478812 -0.828977,-0.0086 -1.658251,-0.01277 -2.491684,-0.02109 -0.0083,-0.833102 -0.01247,-1.662343 -0.01663,-2.491583 -0.829274,0 -1.654093,0 -2.483368,0 -0.0083,0.82924 -0.0083,1.658481 -0.01663,2.487425 -0.829274,0.0083 -1.66241,0.01663 -2.491684,0.02524 0,0.824785 0,1.649868 0,2.478813 0.829274,0.0086 1.658251,0.01277 2.491684,0.01693 0.0042,0.833102 0.01247,1.662343 0.02079,2.491584" /></g></g></svg>