<?xml version="1.0" encoding="UTF-8" standalone="no"?>
<!-- Created with Inkscape (http://www.inkscape.org/) -->

<svg
   xmlns:dc="http://purl.org/dc/elements/1.1/"
   xmlns:cc="http://creativecommons.org/ns#"
   xmlns:rdf="http://www.w3.org/1999/02/22-rdf-syntax-ns#"
   xmlns:svg="http://www.w3.org/2000/svg"
   xmlns="http://www.w3.org/2000/svg"
   xmlns:sodipodi="http://sodipodi.sourceforge.net/DTD/sodipodi-0.dtd"
   xmlns:inkscape="http://www.inkscape.org/namespaces/inkscape"
   id="svg3047"
   version="1.1"
   inkscape:version="0.48.2 r9819"
   width="48"
   height="48.000004"
   sodipodi:docname="stork-body.svg">
  <metadata
     id="metadata3053">
    <rdf:RDF>
      <cc:Work
         rdf:about="">
        <dc:format>image/svg+xml</dc:format>
        <dc:type
           rdf:resource="http://purl.org/dc/dcmitype/StillImage" />
        <dc:title />
      </cc:Work>
    </rdf:RDF>
  </metadata>
  <defs
     id="defs3051" />
  <sodipodi:namedview
     pagecolor="#ffffff"
     bordercolor="#666666"
     borderopacity="1"
     objecttolerance="10"
     gridtolerance="10"
     guidetolerance="10"
     inkscape:pageopacity="0"
     inkscape:pageshadow="2"
     inkscape:window-width="1280"
     inkscape:window-height="752"
     id="namedview3049"
     showgrid="true"
     inkscape:zoom="45.254834"
     inkscape:cx="34.313447"
     inkscape:cy="42.725334"
     inkscape:window-x="0"
     inkscape:window-y="0"
     inkscape:window-maximized="1"
     inkscape:current-layer="svg3047"
     fit-margin-top="0"
     fit-margin-left="0"
     fit-margin-right="0"
     fit-margin-bottom="0">
    <inkscape:grid
       type="xygrid"
       id="grid2992"
       empspacing="4"
       visible="true"
       enabled="true"
       snapvisiblegridlinesonly="true"
       dotted="true" />
  </sodipodi:namedview>
  <path
     style="font-size:medium;font-style:normal;font-variant:normal;font-weight:normal;font-stretch:normal;text-indent:0;text-align:start;text-decoration:none;line-height:normal;letter-spacing:normal;word-spacing:normal;text-transform:none;direction:ltr;block-progression:tb;writing-mode:lr-tb;text-anchor:start;baseline-shift:baseline;color:#000000;fill:#ffcc00;fill-opacity:1;stroke:none;stroke-width:4;marker:none;visibility:visible;display:inline;overflow:visible;enable-background:accumulate;font-family:Sans;-inkscape-font-specification:Sans"
     d="m 17,35.000004 -7,3 -6,8 -2,-1 0,3 3,-2 5,-7 8,-4 z"
     id="path3841"
     inkscape:connector-curvature="0"
     sodipodi:nodetypes="ccccccccc" />
  <path
     sodipodi:nodetypes="ccccccccc"
     inkscape:connector-curvature="0"
     id="path2995"
     d="m 14,34.000004 -6,2 -6,8 -2,-1 0,3 3,-2 5,-7 7,-3 z"
     style="font-size:medium;font-style:normal;font-variant:normal;font-weight:normal;font-stretch:normal;text-indent:0;text-align:start;text-decoration:none;line-height:normal;letter-spacing:normal;word-spacing:normal;text-transform:none;direction:ltr;block-progression:tb;writing-mode:lr-tb;text-anchor:start;baseline-shift:baseline;color:#000000;fill:#ffcc00;fill-opacity:1;stroke:none;stroke-width:4;marker:none;visibility:visible;display:inline;overflow:visible;enable-background:accumulate;font-family:Sans;-inkscape-font-specification:Sans" />
  <path
     style="fill:#ffffff;fill-opacity:1;stroke:#000000;stroke-opacity:1"
     d="m 28,16.000004 c 0,3.162277 -22,0 -26,0 8,8 8,20 16,20 8,0 20,-8 20,-16 0,-5.736045 -9,-10 -6,-15.0000002 1,1 4,-1 5,-2 -1,0 -1,-2 0,-2 C 36.121122,-0.10548132 35.650151,3.8146973e-6 35,3.8146973e-6 28,3.8146973e-6 28,8.0000038 28,16.000004 z"
     id="path3057"
     inkscape:connector-curvature="0"
     sodipodi:nodetypes="scsscccss" />
  <path
     style="fill:#ffcc00;fill-opacity:1;stroke:none"
     d="m 46,3.0000038 -9,-2 c -1,0 -1,2 0,2 z"
     id="path3831"
     inkscape:connector-curvature="0"
     sodipodi:nodetypes="cccc" />
  <path
     style="fill:#000000;fill-opacity:1;stroke:none"
     d="m 34.225469,2.7745348 c -0.390523,0.3905238 -0.804738,0.1952619 -1,0 -0.195262,-0.1952619 -0.390524,-0.6094762 0,-1 0.390525,-0.3905252 0.804738,-0.1952619 1,0 0.195262,0.1952619 0.390524,0.6094748 0,1 z"
     id="path3849"
     inkscape:connector-curvature="0"
     sodipodi:nodetypes="sssss" />
</svg>
