<?xml version="1.0" encoding="UTF-8" standalone="no"?>
<!-- Created with Inkscape (http://www.inkscape.org/) -->

<svg
   xmlns:osb="http://www.openswatchbook.org/uri/2009/osb"
   xmlns:dc="http://purl.org/dc/elements/1.1/"
   xmlns:cc="http://creativecommons.org/ns#"
   xmlns:rdf="http://www.w3.org/1999/02/22-rdf-syntax-ns#"
   xmlns:svg="http://www.w3.org/2000/svg"
   xmlns="http://www.w3.org/2000/svg"
   xmlns:sodipodi="http://sodipodi.sourceforge.net/DTD/sodipodi-0.dtd"
   xmlns:inkscape="http://www.inkscape.org/namespaces/inkscape"
   width="64"
   height="384"
   id="svg2"
   version="1.1"
   inkscape:version="0.48.2 r9819"
   sodipodi:docname="torch.svg">
  <defs
     id="defs4">
    <linearGradient
       id="linearGradient5249"
       osb:paint="solid">
      <stop
         style="stop-color:#cc3333;stop-opacity:1;"
         offset="0"
         id="stop5251" />
    </linearGradient>
  </defs>
  <sodipodi:namedview
     id="base"
     pagecolor="#ffffff"
     bordercolor="#666666"
     borderopacity="1.0"
     inkscape:pageopacity="0.0"
     inkscape:pageshadow="2"
     inkscape:zoom="2.8284272"
     inkscape:cx="-25.094789"
     inkscape:cy="327.2597"
     inkscape:document-units="px"
     inkscape:current-layer="layer1"
     showgrid="true"
     inkscape:window-width="1280"
     inkscape:window-height="752"
     inkscape:window-x="0"
     inkscape:window-y="0"
     inkscape:window-maximized="1">
    <inkscape:grid
       type="xygrid"
       id="grid2985"
       empspacing="4"
       visible="true"
       enabled="true"
       snapvisiblegridlinesonly="true"
       spacingx="4px"
       spacingy="4px" />
  </sodipodi:namedview>
  <metadata
     id="metadata7">
    <rdf:RDF>
      <cc:Work
         rdf:about="">
        <dc:format>image/svg+xml</dc:format>
        <dc:type
           rdf:resource="http://purl.org/dc/dcmitype/StillImage" />
        <dc:title />
      </cc:Work>
    </rdf:RDF>
  </metadata>
  <g
     inkscape:label="Laag 1"
     inkscape:groupmode="layer"
     id="layer1"
     transform="translate(0,-668.36218)">
    <path
       style="fill:#999999;fill-opacity:1;stroke:#000000;stroke-opacity:1"
       d="m 0.5,668.86218 0,4 7.5,0 0,16 48,0 0,-16 7.5,0 0,-4 z m 11.5,4 40,0 0,8 -40,0 z"
       id="path3780"
       inkscape:connector-curvature="0"
       sodipodi:nodetypes="cccccccccccccc" />
    <rect
       style="fill:#ffffff;fill-opacity:1;fill-rule:evenodd;stroke:#000000;stroke-opacity:1"
       id="rect5291"
       width="48"
       height="364"
       x="8"
       y="688.86218" />
    <path
       style="fill:#cc3333;fill-opacity:1;fill-rule:evenodd;stroke:#000000;stroke-opacity:1"
       d="m 8,688.86218 0,8 16,0 0,-8 -16,0 z m 20,0 0,8 16,0 0,-8 -16,0 z m 20,0 0,8 8,0 0,-8 -8,0 z m -40,12 0,8 8,0 0,-8 -8,0 z m 12,0 0,8 16,0 0,-8 -16,0 z m 20,0 0,8 16,0 0,-8 -16,0 z m -32,12 0,8 16,0 0,-8 -16,0 z m 20,0 0,8 16,0 0,-8 -16,0 z m 20,0 0,8 8,0 0,-8 -8,0 z m -40,12 0,8 8,0 0,-8 -8,0 z m 12,0 0,8 16,0 0,-8 -16,0 z m 20,0 0,8 16,0 0,-8 -16,0 z m -32,12 0,8 16,0 0,-8 -16,0 z m 20,0 0,8 16,0 0,-8 -16,0 z m 20,0 0,8 8,0 0,-8 -8,0 z m -40,12 0,8 8,0 0,-8 -8,0 z m 12,0 0,8 16,0 0,-8 -16,0 z m 20,0 0,8 16,0 0,-8 -16,0 z m -32,12 0,8 16,0 0,-8 -16,0 z m 20,0 0,8 16,0 0,-8 -16,0 z m 20,0 0,8 8,0 0,-8 -8,0 z m -40,12 0,8 8,0 0,-8 -8,0 z m 12,0 0,8 16,0 0,-8 -16,0 z m 20,0 0,8 16,0 0,-8 -16,0 z m -32,12 0,8 16,0 0,-8 -16,0 z m 20,0 0,8 16,0 0,-8 -16,0 z m 20,0 0,8 8,0 0,-8 -8,0 z m -40,12 0,8 8,0 0,-8 -8,0 z m 12,0 0,8 16,0 0,-8 -16,0 z m 20,0 0,8 16,0 0,-8 -16,0 z m -32,12 0,8 16,0 0,-8 -16,0 z m 20,0 0,8 16,0 0,-8 -16,0 z m 20,0 0,8 8,0 0,-8 -8,0 z m -40,12 0,8 8,0 0,-8 -8,0 z m 12,0 0,8 16,0 0,-8 -16,0 z m 20,0 0,8 16,0 0,-8 -16,0 z m -32,12 0,8 16,0 0,-8 -16,0 z m 20,0 0,8 16,0 0,-8 -16,0 z m 20,0 0,8 8,0 0,-8 -8,0 z m -40,12 0,8 8,0 0,-8 -8,0 z m 12,0 0,8 16,0 0,-8 -16,0 z m 20,0 0,8 16,0 0,-8 -16,0 z m -32,12 0,8 16,0 0,-8 -16,0 z m 20,0 0,8 16,0 0,-8 -16,0 z m 20,0 0,8 8,0 0,-8 -8,0 z m -40,12 0,8 8,0 0,-8 -8,0 z m 12,0 0,8 16,0 0,-8 -16,0 z m 20,0 0,8 16,0 0,-8 -16,0 z m -32,12 0,8 16,0 0,-8 -16,0 z m 20,0 0,8 16,0 0,-8 -16,0 z m 20,0 0,8 8,0 0,-8 -8,0 z m -40,12 0,8 8,0 0,-8 -8,0 z m 12,0 0,8 16,0 0,-8 -16,0 z m 20,0 0,8 16,0 0,-8 -16,0 z m -32,12 0,8 16,0 0,-8 -16,0 z m 20,0 0,8 16,0 0,-8 -16,0 z m 20,0 0,8 8,0 0,-8 -8,0 z m -40,12 0,8 8,0 0,-8 -8,0 z m 12,0 0,8 16,0 0,-8 -16,0 z m 20,0 0,8 16,0 0,-8 -16,0 z m -32,12 0,8 16,0 0,-8 -16,0 z m 20,0 0,8 16,0 0,-8 -16,0 z m 20,0 0,8 8,0 0,-8 -8,0 z m -40,12 0,8 8,0 0,-8 -8,0 z m 12,0 0,8 16,0 0,-8 -16,0 z m 20,0 0,8 16,0 0,-8 -16,0 z m -32,12 0,8 16,0 0,-8 -16,0 z m 20,0 0,8 16,0 0,-8 -16,0 z m 20,0 0,8 8,0 0,-8 -8,0 z m -40,12 0,8 8,0 0,-8 -8,0 z m 12,0 0,8 16,0 0,-8 -16,0 z m 20,0 0,8 16,0 0,-8 -16,0 z m -32,12 0,8 16,0 0,-8 -16,0 z m 20,0 0,8 16,0 0,-8 -16,0 z m 20,0 0,8 8,0 0,-8 -8,0 z m -40,12 0,8 8,0 0,-8 -8,0 z m 12,0 0,8 16,0 0,-8 -16,0 z m 20,0 0,8 16,0 0,-8 -16,0 z m -32,12.00002 0,8 16,0 0,-8 -16,0 z m 20,0 0,8 16,0 0,-8 -16,0 z m 20,0 0,8 8,0 0,-8 -8,0 z m -40,12 0,8 8,0 0,-8 -8,0 z m 12,0 0,8 16,0 0,-8 -16,0 z m 20,0 0,8 16,0 0,-8 -16,0 z m -32,12 0,8 16,0 0,-8 -16,0 z m 20,0 0,8 16,0 0,-8 -16,0 z m 20,0 0,8 8,0 0,-8 -8,0 z m -40,12 0,8 8,0 0,-8 -8,0 z m 12,0 0,8 16,0 0,-8 -16,0 z m 20,0 0,8 16,0 0,-8 -16,0 z m -32,12 0,4 16,0 0,-4 -16,0 z m 20,0 0,4 16,0 0,-4 -16,0 z m 20,0 0,4 8,0 0,-4 -8,0 z"
       id="rect3785"
       inkscape:connector-curvature="0" />
  </g>
</svg>
