<?xml version="1.0" encoding="UTF-8" standalone="no"?>
<!-- Created with Inkscape (http://www.inkscape.org/) -->

<svg
   xmlns:dc="http://purl.org/dc/elements/1.1/"
   xmlns:cc="http://creativecommons.org/ns#"
   xmlns:rdf="http://www.w3.org/1999/02/22-rdf-syntax-ns#"
   xmlns:svg="http://www.w3.org/2000/svg"
   xmlns="http://www.w3.org/2000/svg"
   xmlns:sodipodi="http://sodipodi.sourceforge.net/DTD/sodipodi-0.dtd"
   xmlns:inkscape="http://www.inkscape.org/namespaces/inkscape"
   width="247"
   height="66.000023"
   id="svg2"
   version="1.1"
   inkscape:version="0.91 r13725"
   viewBox="0 0 247 66.000024"
   sodipodi:docname="logo.svg"
   inkscape:export-filename="/Users/wouterraateland/Desktop/websites/LIVESTRONG/logo2x.png"
   inkscape:export-xdpi="359.99988"
   inkscape:export-ydpi="359.99988">
  <defs
     id="defs4" />
  <sodipodi:namedview
     id="base"
     pagecolor="#ffffff"
     bordercolor="#666666"
     borderopacity="1.0"
     inkscape:pageopacity="0.0"
     inkscape:pageshadow="2"
     inkscape:zoom="2.5587045"
     inkscape:cx="123.5"
     inkscape:cy="33.000011"
     inkscape:document-units="px"
     inkscape:current-layer="layer1"
     showgrid="false"
     fit-margin-top="8"
     fit-margin-left="8"
     fit-margin-right="8"
     fit-margin-bottom="8"
     inkscape:window-width="1285"
     inkscape:window-height="769"
     inkscape:window-x="64"
     inkscape:window-y="3"
     inkscape:window-maximized="0">
    <inkscape:grid
       type="xygrid"
       id="grid4517"
       empspacing="4"
       dotted="true"
       originx="-2.5px"
       originy="-6.4999839px" />
  </sodipodi:namedview>
  <metadata
     id="metadata7">
    <rdf:RDF>
      <cc:Work
         rdf:about="">
        <dc:format>image/svg+xml</dc:format>
        <dc:type
           rdf:resource="http://purl.org/dc/dcmitype/StillImage" />
        <dc:title></dc:title>
      </cc:Work>
    </rdf:RDF>
  </metadata>
  <g
     inkscape:label="Laag 1"
     inkscape:groupmode="layer"
     id="layer1"
     transform="translate(-2.4999999,-979.86218)">
    <rect
       style="opacity:1;fill:#ffcb05;fill-opacity:1;stroke:none;stroke-width:32;stroke-linecap:square;stroke-linejoin:miter;stroke-miterlimit:4;stroke-dasharray:none;stroke-dashoffset:0;stroke-opacity:1"
       id="rect4519"
       width="203"
       height="25"
       x="23.999998"
       y="1000.3622" />
    <path
       style="opacity:1;fill:none;fill-opacity:1;stroke:#ffffff;stroke-width:3;stroke-linecap:square;stroke-linejoin:round;stroke-miterlimit:4;stroke-dasharray:none;stroke-dashoffset:0;stroke-opacity:1"
       d="m 182,989.36218 58,0 0,47.00002 -228.000002,0 0,-47.00002 55.000001,0"
       id="rect4521"
       inkscape:connector-curvature="0"
       sodipodi:nodetypes="cccccc" />
    <path
       style="fill:#ffffff;fill-opacity:1"
       d="M 128.80273 5.2753906 C 127.94183 5.2753906 127.25633 5.6151019 126.74805 6.2949219 C 126.24295 6.9747519 125.99023 7.8198681 125.99023 8.8300781 C 125.99023 9.9038181 126.2388 10.784523 126.73438 11.470703 C 127.23309 12.156883 127.92277 12.5 128.80273 12.5 C 129.76847 12.5 130.50953 12.175404 131.02734 11.527344 C 131.54515 10.876114 131.80469 9.9768881 131.80469 8.8300781 C 131.80469 7.7118581 131.54515 6.8406736 131.02734 6.2148438 C 130.5127 5.5890238 129.77165 5.2753906 128.80273 5.2753906 z M 96.443359 5.28125 C 95.865188 5.28125 95.391939 5.4518319 95.023438 5.7949219 C 94.654933 6.1380219 94.470703 6.5708069 94.470703 7.0917969 C 94.470703 7.5206569 94.564523 7.8864263 94.751953 8.1914062 C 94.942558 8.4963662 95.277392 8.7600519 95.753906 8.9824219 L 96.314453 9.2460938 C 96.819558 9.4843537 97.135872 9.7048931 97.259766 9.9082031 C 97.386836 10.108343 97.449219 10.325467 97.449219 10.560547 C 97.449219 10.875047 97.336879 11.134581 97.111328 11.337891 C 96.885778 11.541201 96.586525 11.642578 96.214844 11.642578 C 96.005177 11.642578 95.766848 11.599482 95.5 11.513672 C 95.236328 11.424672 95.015789 11.315787 94.837891 11.185547 L 94.490234 12.0625 C 94.928628 12.35476 95.456703 12.5 96.076172 12.5 C 96.781414 12.5 97.344341 12.316502 97.763672 11.951172 C 98.186182 11.585842 98.398438 11.141347 98.398438 10.617188 C 98.398438 10.134318 98.301242 9.7371112 98.107422 9.4257812 C 97.916822 9.1112813 97.581982 8.8427275 97.105469 8.6171875 L 96.535156 8.3457031 C 96.166652 8.1678031 95.921498 8.0281575 95.800781 7.9296875 C 95.683241 7.8311875 95.590146 7.70863 95.523438 7.5625 C 95.456728 7.41637 95.423828 7.256025 95.423828 7.078125 C 95.423828 6.789045 95.516918 6.5514375 95.701172 6.3671875 C 95.888601 6.1829275 96.14472 6.0917969 96.46875 6.0917969 C 96.691124 6.0917969 96.930912 6.133 97.191406 6.21875 C 97.4519 6.30455 97.646358 6.3941981 97.773438 6.4863281 L 98.054688 5.6582031 C 97.752888 5.4072431 97.215311 5.28125 96.443359 5.28125 z M 168.25977 5.28125 C 167.22096 5.28125 166.39436 5.6175356 165.78125 6.2910156 C 165.17131 6.9613156 164.86719 7.8359156 164.86719 8.9160156 C 164.86719 9.9992956 165.14524 10.869018 165.70117 11.523438 C 166.26029 12.174667 167.01986 12.5 167.98242 12.5 C 168.41128 12.5 168.85236 12.434897 169.30664 12.304688 C 169.76091 12.171258 170.11695 11.99727 170.37109 11.78125 L 170.37109 8.7402344 L 168.44922 8.7402344 L 168.44922 9.5507812 L 169.41797 9.5507812 L 169.41797 11.185547 C 169.10347 11.490507 168.69188 11.642578 168.18359 11.642578 C 167.46883 11.642578 166.90249 11.396687 166.48633 10.904297 C 166.07335 10.411897 165.86719 9.7619781 165.86719 8.9550781 C 165.86719 8.1068781 166.07749 7.4247962 166.5 6.9101562 C 166.92251 6.3955163 167.49981 6.1386719 168.23047 6.1386719 C 168.6911 6.1386719 169.16096 6.316075 169.64062 6.671875 L 170.03711 5.8867188 C 169.57966 5.4832688 168.98725 5.28125 168.25977 5.28125 z M 137.0918 5.328125 C 136.88213 5.328125 136.54656 5.3417875 136.08594 5.3671875 C 135.62847 5.3894875 135.38259 5.4003906 135.34766 5.4003906 L 135.34766 12.380859 L 136.30078 12.380859 L 136.30078 9.3359375 C 136.76141 9.3676375 137.09771 9.3828125 137.31055 9.3828125 L 139.17383 12.380859 L 140.26562 12.380859 L 138.24023 9.1699219 C 138.61192 9.0841219 138.93315 8.865065 139.20312 8.515625 C 139.47315 8.163005 139.60742 7.7684781 139.60742 7.3300781 C 139.60742 5.9958381 138.76913 5.328125 137.0918 5.328125 z M 111.92773 5.3515625 C 111.77843 5.3515625 111.34222 5.3686906 110.62109 5.4003906 L 110.62109 12.380859 L 111.57422 12.380859 L 111.57422 9.6933594 C 111.93637 9.7250594 112.17129 9.7402344 112.2793 9.7402344 C 114.07099 9.7402344 114.9668 8.9560386 114.9668 7.3867188 C 114.9668 6.0302388 113.95451 5.3515625 111.92773 5.3515625 z M 119.7793 5.3515625 C 119.62998 5.3515625 119.19378 5.3686906 118.47266 5.4003906 L 118.47266 12.380859 L 119.42578 12.380859 L 119.42578 9.6933594 C 119.78793 9.7250594 120.02285 9.7402344 120.13086 9.7402344 C 121.92255 9.7402344 122.81836 8.9560386 122.81836 7.3867188 C 122.81836 6.0302388 121.80607 5.3515625 119.7793 5.3515625 z M 73.5 5.4003906 L 73.5 12.380859 L 74.40625 12.380859 L 74.40625 7.3730469 L 78.011719 12.476562 L 78.298828 12.476562 L 78.298828 5.4003906 L 77.392578 5.4003906 L 77.392578 10.226562 L 73.880859 5.4003906 L 73.5 5.4003906 z M 82.132812 5.4003906 L 82.132812 12.380859 L 86.240234 12.380859 L 86.240234 11.523438 L 83.085938 11.523438 L 83.085938 5.4003906 L 82.132812 5.4003906 z M 101.89453 5.4003906 L 101.89453 10.25 C 101.89453 10.9743 102.10483 11.530399 102.52734 11.917969 C 102.94985 12.305529 103.5525 12.5 104.33398 12.5 C 105.09323 12.5 105.69247 12.302123 106.13086 11.908203 C 106.57243 11.511113 106.79297 10.961099 106.79297 10.255859 L 106.79297 5.4003906 L 105.83984 5.4003906 L 105.83984 10.15625 C 105.83984 10.6137 105.70362 10.975338 105.43359 11.242188 C 105.16357 11.509027 104.79438 11.642578 104.32422 11.642578 C 103.87947 11.642578 103.52198 11.505622 103.25195 11.232422 C 102.98193 10.956042 102.84766 10.605367 102.84766 10.179688 L 102.84766 5.4003906 L 101.89453 5.4003906 z M 142.75195 5.4003906 L 142.75195 6.2578125 L 144.97266 6.2578125 L 144.97266 12.380859 L 145.92578 12.380859 L 145.92578 6.2578125 L 148.24609 6.2578125 L 148.24609 5.4003906 L 142.75195 5.4003906 z M 151.60742 5.4003906 L 151.60742 12.380859 L 152.56055 12.380859 L 152.56055 5.4003906 L 151.60742 5.4003906 z M 156.56641 5.4003906 L 156.56641 12.380859 L 157.47266 12.380859 L 157.47266 7.3730469 L 161.08008 12.476562 L 161.36523 12.476562 L 161.36523 5.4003906 L 160.46094 5.4003906 L 160.46094 10.226562 L 156.94922 5.4003906 L 156.56641 5.4003906 z M 128.80273 6.1328125 C 130.13697 6.1328125 130.80469 7.0320283 130.80469 8.8300781 C 130.80469 9.7195681 130.63215 10.411897 130.28906 10.904297 C 129.94915 11.396687 129.45397 11.642578 128.80273 11.642578 C 128.22774 11.642578 127.78056 11.374761 127.46289 10.837891 C 127.14839 10.301021 126.99219 9.6306181 126.99219 8.8300781 C 126.99219 7.9977581 127.14502 7.3402919 127.45312 6.8574219 C 127.76126 6.3745519 128.21185 6.1328125 128.80273 6.1328125 z M 112.09375 6.2089844 C 113.35492 6.2089844 113.98633 6.6349481 113.98633 7.4863281 C 113.98633 8.4171081 113.39464 8.8828125 112.21289 8.8828125 C 112.19069 8.8828125 111.97767 8.8677375 111.57422 8.8359375 L 111.57422 6.2578125 C 111.79341 6.2261125 111.96668 6.2089844 112.09375 6.2089844 z M 119.94531 6.2089844 C 121.20649 6.2089844 121.83789 6.6349481 121.83789 7.4863281 C 121.83789 8.4171081 121.24621 8.8828125 120.06445 8.8828125 C 120.04225 8.8828125 119.82923 8.8677375 119.42578 8.8359375 L 119.42578 6.2578125 C 119.64497 6.2261125 119.81824 6.2089844 119.94531 6.2089844 z M 136.86328 6.2089844 C 137.46686 6.2089844 137.90794 6.2952769 138.1875 6.4667969 C 138.46705 6.6383369 138.60742 6.9197969 138.60742 7.3105469 C 138.60742 7.7838769 138.47729 8.112625 138.2168 8.296875 C 137.9563 8.481135 137.54057 8.5742188 136.96875 8.5742188 C 136.75273 8.5742188 136.52951 8.5570906 136.30078 8.5253906 L 136.30078 6.2578125 C 136.58033 6.2261125 136.76797 6.2089844 136.86328 6.2089844 z "
       transform="translate(2.4999978,979.86218)"
       id="path4389" />
    <path
       style="fill:#000000;fill-opacity:1"
       d="M 181.08594 26.021484 C 181.03564 26.021484 181.00804 28.968259 181.02344 32.568359 L 181.05078 39.113281 L 182.39453 39.144531 C 183.29174 39.164531 183.78772 39.132828 183.88867 39.048828 C 184.01125 38.947128 184.03906 38.341897 184.03906 35.841797 C 184.03906 33.766597 184.07576 32.757812 184.15234 32.757812 C 184.21494 32.757812 185.97834 34.324681 188.07031 36.238281 C 190.07506 38.242981 191.92016 39.687244 191.97656 39.652344 C 192.13951 39.551644 192.11266 26.751391 191.94922 26.587891 C 191.76942 26.408091 189.34777 26.408091 189.16797 26.587891 C 189.07247 26.682891 189.03711 27.569391 189.03711 29.900391 C 189.03711 31.651191 188.99601 33.083984 188.94531 33.083984 C 188.89461 33.083984 187.1261 31.494734 185.01562 29.552734 C 182.90518 27.610734 181.13614 26.021484 181.08594 26.021484 z M 105.17773 26.132812 C 104.51291 26.167812 103.8923 26.30205 103.40234 26.53125 C 102.568 26.92175 102.02773 27.427897 101.67188 28.154297 C 101.46163 28.583397 101.41311 28.854769 101.41211 29.605469 C 101.41111 30.397569 101.45501 30.617384 101.71484 31.146484 C 102.13389 31.999784 103.01411 32.770822 104.59375 33.669922 C 105.31994 34.083222 106.03925 34.552138 106.19141 34.710938 C 106.81105 35.357737 106.70977 36.147259 105.96094 36.505859 C 105.09059 36.922659 103.54809 36.65375 102.16602 35.84375 C 101.88789 35.68075 101.63023 35.594738 101.58203 35.648438 C 101.48323 35.758537 101.62463 38.548622 101.73828 38.732422 C 101.83698 38.892122 102.22265 39.044463 103.15039 39.289062 C 102.04595 39.289062 106.05563 39.514128 106.89844 39.173828 C 108.65555 38.464328 109.72788 36.83775 109.58789 35.09375 C 109.45417 33.42765 108.65178 32.521316 106.10938 31.166016 C 104.62911 30.376916 104.47211 30.263737 104.29492 29.835938 C 104.11113 29.392238 104.30932 28.980437 104.80469 28.773438 C 105.36441 28.539538 106.28154 28.703466 107.54297 29.259766 C 108.07882 29.496266 108.54327 29.661806 108.57617 29.628906 C 108.60907 29.595906 108.63672 28.968022 108.63672 28.232422 C 108.63672 26.652522 108.67222 26.699131 107.2207 26.332031 C 106.55241 26.163031 105.84256 26.098213 105.17773 26.132812 z M 164.57812 26.132812 C 161.94128 26.132812 159.70991 27.862925 158.75 30.640625 C 158.465 31.661425 158.45339 32.145547 158.44922 32.935547 C 158.44522 33.725547 158.60809 34.644969 158.75 35.230469 C 159.70991 38.008269 161.94128 39.734181 164.57812 39.738281 C 167.39774 39.738281 169.81335 37.785431 170.55273 34.894531 C 170.72393 34.197831 170.73777 33.567847 170.74609 32.935547 C 170.75409 32.303247 170.64151 31.540662 170.55273 30.976562 C 169.81335 28.085664 167.39774 26.127814 164.57812 26.132812 z M 209.42383 26.189453 C 208.18148 26.199453 207.92357 26.230409 207.2793 26.474609 C 204.49503 27.532009 202.84961 29.982672 202.84961 33.076172 C 202.84961 34.913072 203.37446 36.292356 204.54688 37.535156 C 205.34533 38.381656 206.3193 38.947297 207.54492 39.279297 C 208.18923 39.453797 208.57926 39.484666 209.64062 39.447266 C 211.11411 39.395266 212.06087 39.169347 213.34375 38.560547 L 214.15039 38.177734 L 214.15039 35.195312 L 214.15039 32.212891 L 211.48828 32.212891 L 208.82617 32.212891 L 208.82617 33.462891 L 208.82617 34.710938 L 209.79688 34.710938 C 211.0413 34.710938 211.14704 34.799966 211.08594 35.759766 C 211.06204 36.135366 211.01464 36.469706 210.98047 36.503906 C 210.81899 36.665406 209.54646 36.774234 208.94727 36.677734 C 207.17536 36.392434 206.13057 35.212041 206.02148 33.369141 C 205.90669 31.429741 206.69308 29.863228 208.125 29.173828 C 208.5395 28.974228 208.85149 28.913203 209.47852 28.908203 C 210.54727 28.898203 211.24684 29.150172 212.22852 29.888672 C 212.65708 30.211072 213.04399 30.474609 213.08789 30.474609 C 213.19988 30.474609 213.25146 30.170137 213.39062 28.710938 C 213.45752 28.009838 213.48166 27.386119 213.44336 27.324219 C 213.34042 27.157619 212.46091 26.738659 211.5957 26.443359 C 210.94111 26.220059 210.6395 26.183453 209.42383 26.189453 z M 63.583984 26.457031 C 63.219591 26.447031 62.860583 26.475781 62.814453 26.550781 C 62.782103 26.602781 64.029796 29.475394 65.587891 32.933594 C 67.145991 36.391794 68.521484 39.624309 68.521484 39.474609 C 68.521484 39.325109 68.674534 39.7094 68.740234 39.6875 C 68.899574 39.6345 74.720978 26.681587 74.642578 26.554688 C 74.548568 26.402588 73.210453 26.432444 73.064453 26.589844 C 72.995303 26.664844 72.027369 28.779363 70.912109 31.289062 C 69.667219 34.090362 68.825675 35.851562 68.734375 35.851562 C 68.643205 35.851562 67.798437 34.086962 66.550781 31.289062 C 65.431676 28.779363 64.459925 26.664544 64.390625 26.589844 C 64.318535 26.511844 63.948378 26.466431 63.583984 26.457031 z M 52.091797 26.46875 L 52.091797 26.472656 L 51.457031 26.505859 L 51.429688 32.697266 C 51.414178 36.103266 51.424485 38.952644 51.453125 39.027344 C 51.521145 39.204644 52.725459 39.208144 52.902344 39.027344 C 53.000674 38.929344 53.033203 37.397022 53.033203 32.794922 C 53.033203 27.663922 53.008203 26.6698 52.878906 26.5625 C 52.788196 26.4875 52.465661 26.44985 52.091797 26.46875 z M 123.39453 26.476562 L 118.08398 26.503906 L 118.05273 27.835938 L 118.02148 29.166016 L 119.80859 29.166016 C 120.79149 29.166016 121.67308 29.195422 121.76758 29.232422 C 121.92073 29.291422 121.93945 29.827503 121.93945 34.158203 C 121.93945 36.830803 121.97423 39.050397 122.01562 39.091797 C 121.95853 39.078797 122.75246 39.152719 123.5625 39.136719 L 125.03711 39.107422 L 125.06445 34.283203 C 125.08375 30.994203 125.13005 29.411953 125.21094 29.314453 C 125.29844 29.209053 125.80567 29.164478 127.13867 29.142578 L 128.94727 29.111328 L 128.97852 27.90625 C 129.00202 26.97795 128.97452 26.671019 128.85742 26.574219 C 128.74608 26.481219 127.29546 26.456563 123.39453 26.476562 z M 87.482422 26.498047 L 87.482422 26.501953 L 83.896484 26.501953 L 83.869141 32.695312 C 83.853541 36.101312 83.863638 38.949891 83.892578 39.025391 C 83.933738 39.132991 84.715549 39.157266 87.505859 39.134766 L 91.066406 39.105469 L 91.099609 38.371094 L 91.130859 37.638672 L 88.423828 37.638672 C 86.253938 37.638672 85.691497 37.608581 85.591797 37.488281 C 85.505997 37.384581 85.475588 36.72375 85.496094 35.34375 L 85.527344 33.347656 L 87.916016 33.292969 L 90.306641 33.238281 L 90.306641 32.533203 L 90.306641 31.826172 L 87.916016 31.769531 L 85.527344 31.712891 L 85.527344 29.867188 L 85.527344 28.019531 L 88.296875 27.964844 L 91.066406 27.912109 L 91.066406 27.205078 L 91.066406 26.498047 L 87.482422 26.498047 z M 139.52344 26.501953 L 139.52344 26.503906 L 139.49609 32.697266 C 139.48059 36.103266 139.49013 38.952897 139.51953 39.029297 C 139.55993 39.134997 139.93349 39.159619 141.07031 39.136719 L 142.56641 39.107422 L 142.5957 36.736328 C 142.6202 34.753528 142.6501 34.371291 142.7793 34.400391 C 142.8643 34.419391 143.65305 35.461997 144.5332 36.716797 C 145.41336 37.971697 146.18755 39.035278 146.25195 39.080078 C 146.31635 39.124078 147.07693 39.149766 147.94336 39.134766 C 149.26483 39.111766 149.51681 39.079759 149.50781 38.943359 C 149.50181 38.853359 148.70687 37.660516 147.74023 36.291016 L 145.98242 33.800781 L 146.73828 33.111328 C 147.76507 32.174128 148.09556 31.495941 148.10156 30.306641 C 148.10556 29.571141 148.05986 29.342666 147.80469 28.822266 C 147.28813 27.768666 146.37572 27.127778 144.79297 26.705078 C 144.23354 26.555678 143.61207 26.516719 141.80469 26.511719 L 139.52344 26.501953 z M 33.666016 26.503906 L 33.636719 32.78125 L 33.609375 39.056641 L 37.494141 39.027344 L 41.378906 38.998047 L 41.378906 38.347656 L 41.378906 37.695312 L 38.337891 37.636719 C 36.664785 37.604719 35.283931 37.567687 35.269531 37.554688 C 35.255161 37.542688 35.230344 35.050078 35.214844 32.017578 L 35.1875 26.503906 L 34.425781 26.503906 L 33.666016 26.503906 z M 216.12109 26.863281 L 216.12109 27.023438 L 216.57617 27.023438 L 216.57617 28.208984 L 216.75977 28.208984 L 216.75977 27.023438 L 217.21289 27.023438 L 217.21289 26.863281 L 216.12109 26.863281 z M 217.37695 26.863281 L 217.37695 28.208984 L 217.55078 28.208984 L 217.55078 27.414062 C 217.55078 27.382063 217.55088 27.333125 217.54883 27.265625 C 217.54783 27.197625 217.54687 27.147834 217.54688 27.115234 L 217.54688 27.074219 L 217.93164 28.208984 L 218.11328 28.208984 L 218.49609 27.074219 C 218.49609 27.147219 218.49552 27.215997 218.49414 27.279297 C 218.49314 27.343297 218.49219 27.386663 218.49219 27.414062 L 218.49219 28.208984 L 218.66602 28.208984 L 218.66602 26.863281 L 218.40625 26.863281 L 218.02344 28 L 217.63672 26.863281 L 217.37695 26.863281 z M 143.06445 28.916016 C 143.47344 28.888016 144.11674 28.988009 144.45898 29.162109 C 145.0335 29.455209 145.33594 29.943278 145.33594 30.580078 C 145.33649 31.239478 145.03452 31.764414 144.44336 32.132812 C 143.95459 32.437512 142.87234 32.648456 142.70117 32.472656 C 142.55535 32.322856 142.60451 29.080681 142.75391 28.988281 C 142.81851 28.948281 142.92813 28.925016 143.06445 28.916016 z M 164.59375 29.080078 C 165.75565 29.080078 166.89894 29.826131 167.37109 31.144531 C 167.54335 31.625431 167.57617 32.286288 167.57617 32.929688 C 167.57617 33.573086 167.54337 34.233844 167.37109 34.714844 C 166.61565 36.824144 164.14265 37.465012 162.62305 35.945312 C 161.81872 34.821514 161.58802 34.024286 161.60352 32.929688 C 161.61902 31.835088 161.98408 30.569562 162.62305 29.914062 C 163.1929 29.344164 163.89661 29.078778 164.59375 29.080078 z "
       transform="translate(2.4999978,979.86218)"
       id="path4357" />
    <text
       xml:space="preserve"
       style="font-style:normal;font-weight:normal;font-size:20px;line-height:125%;font-family:sans-serif;letter-spacing:0px;word-spacing:0px;fill:#000000;fill-opacity:1;stroke:none;stroke-width:1px;stroke-linecap:butt;stroke-linejoin:miter;stroke-opacity:1"
       x="87.504463"
       y="977.40887"
       id="text4614"
       sodipodi:linespacing="125%"><tspan
         sodipodi:role="line"
         id="tspan4616"
         x="87.504463"
         y="977.40887" /></text>
  </g>
</svg>
