<?xml version="1.0" encoding="UTF-8" standalone="no"?>
<!-- Created with Inkscape (http://www.inkscape.org/) -->

<svg
   xmlns:dc="http://purl.org/dc/elements/1.1/"
   xmlns:cc="http://creativecommons.org/ns#"
   xmlns:rdf="http://www.w3.org/1999/02/22-rdf-syntax-ns#"
   xmlns:svg="http://www.w3.org/2000/svg"
   xmlns="http://www.w3.org/2000/svg"
   xmlns:sodipodi="http://sodipodi.sourceforge.net/DTD/sodipodi-0.dtd"
   xmlns:inkscape="http://www.inkscape.org/namespaces/inkscape"
   width="128"
   height="128"
   viewBox="0 0 33.866666 33.866668"
   id="svg2"
   version="1.1"
   inkscape:version="0.91+devel+osxmenu r12911"
   sodipodi:docname="signup.svg">
  <defs
     id="defs4" />
  <sodipodi:namedview
     id="base"
     pagecolor="#ffffff"
     bordercolor="#666666"
     borderopacity="1.0"
     inkscape:pageopacity="0.0"
     inkscape:pageshadow="2"
     inkscape:zoom="4.578125"
     inkscape:cx="64"
     inkscape:cy="64"
     inkscape:document-units="px"
     inkscape:current-layer="layer1"
     showgrid="true"
     units="px"
     inkscape:snap-bbox="true"
     inkscape:bbox-paths="true"
     inkscape:bbox-nodes="true"
     inkscape:snap-bbox-edge-midpoints="true"
     inkscape:snap-bbox-midpoints="true"
     inkscape:object-paths="true"
     inkscape:snap-intersection-paths="true"
     inkscape:object-nodes="true"
     inkscape:snap-smooth-nodes="true">
    <inkscape:grid
       type="xygrid"
       id="grid4167" />
  </sodipodi:namedview>
  <metadata
     id="metadata7">
    <rdf:RDF>
      <cc:Work
         rdf:about="">
        <dc:format>image/svg+xml</dc:format>
        <dc:type
           rdf:resource="http://purl.org/dc/dcmitype/StillImage" />
        <dc:title></dc:title>
      </cc:Work>
    </rdf:RDF>
  </metadata>
  <g
     inkscape:label="Laag 1"
     inkscape:groupmode="layer"
     id="layer1"
     transform="translate(0,-263.13332)">
    <path
       style="color:#000000;font-style:normal;font-variant:normal;font-weight:normal;font-stretch:normal;font-size:medium;line-height:normal;font-family:sans-serif;text-indent:0;text-align:start;text-decoration:none;text-decoration-line:none;text-decoration-style:solid;text-decoration-color:#000000;letter-spacing:normal;word-spacing:normal;text-transform:none;direction:ltr;block-progression:tb;writing-mode:lr-tb;baseline-shift:baseline;text-anchor:start;white-space:normal;shape-padding:0;clip-rule:nonzero;display:inline;overflow:visible;visibility:visible;opacity:1;isolation:auto;mix-blend-mode:normal;color-interpolation:sRGB;color-interpolation-filters:linearRGB;solid-color:#000000;solid-opacity:1;fill:#22507f;fill-opacity:1;fill-rule:nonzero;stroke:none;stroke-width:8;stroke-linecap:butt;stroke-linejoin:round;stroke-miterlimit:4;stroke-dasharray:none;stroke-dashoffset:0;stroke-opacity:1;color-rendering:auto;image-rendering:auto;shape-rendering:auto;text-rendering:auto;enable-background:accumulate"
       d="m 64.001953,16.001953 c -17.625732,0 -32.001952,14.374287 -32.001953,32 0,12.83811 3.268317,24.515967 8.830078,33.255859 0.768669,1.207911 1.591969,2.356482 2.457031,3.451172 C 27.160914,92.456067 15.996095,108.9505 15.996094,128 l 8.001953,0 c 0,-16.96676 10.497678,-31.411959 25.365234,-37.240234 C 53.669431,94.048858 58.632346,96 64.001953,96 69.371559,96 74.332523,94.048858 78.638672,90.759766 93.506228,96.587995 104.00391,111.03324 104.00391,128 l 7.99414,0 c 0,-19.04859 -11.16041,-35.541511 -27.283206,-43.289062 0.865411,-1.095045 1.688082,-2.244776 2.457031,-3.453126 5.561764,-8.739892 8.830078,-20.417749 8.830078,-33.255859 0,-17.625713 -14.374268,-32 -32,-32 z m 0,7.994141 C 77.304163,23.996094 88,34.699755 88,48.001953 88,59.464391 84.998023,69.77598 80.425781,76.960938 75.853536,84.145895 70.035413,87.998047 64.001953,87.998047 c -6.03346,0 -11.853539,-3.852152 -16.425781,-11.037109 -4.572246,-7.184958 -7.574219,-17.496547 -7.574219,-28.958985 4e-6,-13.302198 10.697787,-24.005859 24,-24.005859 z"
       transform="matrix(0.26458334,0,0,0.26458334,0,263.13332)"
       id="path4141"
       inkscape:connector-curvature="0"
       sodipodi:nodetypes="sssccccsccccssssssssss" />
    <path
       style="fill:#22507f;fill-opacity:1;fill-rule:evenodd;stroke:none;stroke-width:0.26458335px;stroke-linecap:butt;stroke-linejoin:miter;stroke-opacity:1"
       d="m 31.749999,263.13333 0,2.11667 2.116667,0 0,2.11667 -2.116667,0 0,2.11666 -2.116666,0 0,-2.11666 -2.116667,0 0,-2.11667 2.116667,0 -1e-6,-2.11667 z"
       id="path4169"
       inkscape:connector-curvature="0"
       sodipodi:nodetypes="ccccccccccccc" />
  </g>
</svg>
