<?xml version="1.0" encoding="UTF-8" standalone="no"?>
<!-- Created with Inkscape (http://www.inkscape.org/) -->

<svg
   xmlns:dc="http://purl.org/dc/elements/1.1/"
   xmlns:cc="http://creativecommons.org/ns#"
   xmlns:rdf="http://www.w3.org/1999/02/22-rdf-syntax-ns#"
   xmlns:svg="http://www.w3.org/2000/svg"
   xmlns="http://www.w3.org/2000/svg"
   xmlns:sodipodi="http://sodipodi.sourceforge.net/DTD/sodipodi-0.dtd"
   xmlns:inkscape="http://www.inkscape.org/namespaces/inkscape"
   width="170mm"
   height="16mm"
   viewBox="0 0 170 16"
   id="svg2"
   version="1.1"
   inkscape:version="0.91+devel+osxmenu r12911"
   sodipodi:docname="scoring.svg">
  <defs
     id="defs4" />
  <sodipodi:namedview
     id="base"
     pagecolor="#ffffff"
     bordercolor="#666666"
     borderopacity="1.0"
     inkscape:pageopacity="0.0"
     inkscape:pageshadow="2"
     inkscape:zoom="3.6917157"
     inkscape:cx="451.28069"
     inkscape:cy="30.23622"
     inkscape:document-units="mm"
     inkscape:current-layer="layer1"
     showgrid="false" />
  <metadata
     id="metadata7">
    <rdf:RDF>
      <cc:Work
         rdf:about="">
        <dc:format>image/svg+xml</dc:format>
        <dc:type
           rdf:resource="http://purl.org/dc/dcmitype/StillImage" />
        <dc:title></dc:title>
      </cc:Work>
    </rdf:RDF>
  </metadata>
  <g
     inkscape:label="Laag 1"
     inkscape:groupmode="layer"
     id="layer1"
     transform="translate(0,-281)">
    <rect
       style="opacity:1;fill:#ff0000;fill-opacity:1;stroke:none;stroke-width:1;stroke-linecap:square;stroke-linejoin:miter;stroke-miterlimit:4;stroke-dasharray:none;stroke-dashoffset:0;stroke-opacity:1"
       id="rect4141"
       width="85"
       height="10"
       x="0"
       y="287.00003" />
    <rect
       y="287"
       x="85"
       height="10"
       width="42.5"
       id="rect4143"
       style="opacity:1;fill:#f6871f;fill-opacity:1;stroke:none;stroke-width:1;stroke-linecap:square;stroke-linejoin:miter;stroke-miterlimit:4;stroke-dasharray:none;stroke-dashoffset:0;stroke-opacity:1" />
    <rect
       style="opacity:1;fill:#00cc00;fill-opacity:1;stroke:none;stroke-width:1;stroke-linecap:square;stroke-linejoin:miter;stroke-miterlimit:4;stroke-dasharray:none;stroke-dashoffset:0;stroke-opacity:1"
       id="rect4145"
       width="42.5"
       height="10"
       x="127.5"
       y="287" />
    <g
       style="font-style:normal;font-variant:normal;font-weight:bold;font-stretch:normal;font-size:5.29166651px;line-height:125%;font-family:sans-serif;-inkscape-font-specification:'sans-serif Bold';text-align:start;letter-spacing:0px;word-spacing:0px;text-anchor:start;fill:#ffffff;fill-opacity:1;stroke:none;stroke-width:0.21967295px;stroke-linecap:butt;stroke-linejoin:miter;stroke-opacity:1"
       id="text4219"
       transform="matrix(1.204442,0,0,1.204442,-21.926023,-58.713566)">
      <path
         d="m 91.777163,290.82351 -0.497816,0 0,-0.45303 0.497816,0 0,0.45303 z m -0.497816,0.22393 0.497816,0 0,1.87758 -0.497816,0 0,-1.87758 z"
         style="font-style:normal;font-variant:normal;font-weight:bold;font-stretch:normal;font-size:3.52777767px;font-family:sans-serif;-inkscape-font-specification:'sans-serif Bold';text-align:start;text-anchor:start;fill:#ffffff;stroke-width:0.21967295px"
         id="path4828"
         inkscape:connector-curvature="0" />
      <path
         d="m 94.342037,291.0061 q 0.124023,0 0.244601,0.0482 0.120579,0.0482 0.218764,0.16881 0.07924,0.0982 0.106798,0.24116 0.01722,0.0947 0.01722,0.27733 l -0.0034,1.18339 -0.502984,0 0,-1.19545 q 0,-0.1068 -0.03445,-0.1757 -0.06546,-0.13091 -0.241156,-0.13091 -0.203261,0 -0.280775,0.16881 -0.03962,0.0896 -0.03962,0.21531 l 0,1.11794 -0.494371,0 0,-1.11794 q 0,-0.16708 -0.03445,-0.24287 -0.06201,-0.13609 -0.242879,-0.13609 -0.210151,0 -0.282498,0.13609 -0.03962,0.0775 -0.03962,0.23082 l 0,1.12999 -0.497816,0 0,-1.87413 0.477146,0 0,0.27388 q 0.0913,-0.14642 0.172254,-0.20843 0.142972,-0.11024 0.370348,-0.11024 0.215319,0 0.347955,0.0947 0.106798,0.0879 0.161919,0.22565 0.09646,-0.16536 0.239434,-0.24288 0.151585,-0.0775 0.33762,-0.0775 z"
         style="font-style:normal;font-variant:normal;font-weight:bold;font-stretch:normal;font-size:3.52777767px;font-family:sans-serif;-inkscape-font-specification:'sans-serif Bold';text-align:start;text-anchor:start;fill:#ffffff;stroke-width:0.21967295px"
         id="path4830"
         inkscape:connector-curvature="0" />
      <path
         d="m 96.686424,291.98623 q 0,-0.21704 -0.09991,-0.38413 -0.09819,-0.16709 -0.320393,-0.16709 -0.266995,0 -0.366903,0.25322 -0.05168,0.13436 -0.05168,0.34106 0,0.32729 0.173978,0.45992 0.103353,0.0775 0.244602,0.0775 0.204983,0 0.311781,-0.15848 0.10852,-0.15847 0.10852,-0.42202 z m -0.279053,-0.98013 q 0.329007,0 0.556383,0.24288 0.229099,0.24288 0.229099,0.71313 0,0.4961 -0.223931,0.7562 -0.222209,0.26011 -0.573608,0.26011 -0.223932,0 -0.372071,-0.11197 -0.08096,-0.062 -0.158474,-0.18087 l 0,0.97841 -0.485759,0 0,-2.61655 0.470256,0 0,0.27733 q 0.07924,-0.1223 0.16881,-0.19292 0.163642,-0.12575 0.389295,-0.12575 z"
         style="font-style:normal;font-variant:normal;font-weight:bold;font-stretch:normal;font-size:3.52777767px;font-family:sans-serif;-inkscape-font-specification:'sans-serif Bold';text-align:start;text-anchor:start;fill:#ffffff;stroke-width:0.21967295px"
         id="path4832"
         inkscape:connector-curvature="0" />
      <path
         d="m 98.569169,291.00266 q 0.01378,0 0.02239,0.002 0.01033,0 0.04306,0.002 l 0,0.50298 q -0.04651,-0.005 -0.08268,-0.007 -0.03617,-0.002 -0.05857,-0.002 -0.296279,0 -0.397909,0.19293 -0.05684,0.10852 -0.05684,0.33417 l 0,0.89745 -0.494371,0 0,-1.87758 0.468533,0 0,0.32729 q 0.113688,-0.18776 0.198093,-0.25666 0.137804,-0.11541 0.35829,-0.11541 z"
         style="font-style:normal;font-variant:normal;font-weight:bold;font-stretch:normal;font-size:3.52777767px;font-family:sans-serif;-inkscape-font-specification:'sans-serif Bold';text-align:start;text-anchor:start;fill:#ffffff;stroke-width:0.21967295px"
         id="path4834"
         inkscape:connector-curvature="0" />
      <path
         d="m 99.762894,292.57879 q 0.215319,0 0.330726,-0.15331 0.11541,-0.15331 0.11541,-0.43581 0,-0.28249 -0.11541,-0.43408 -0.115407,-0.1533 -0.330726,-0.1533 -0.215318,0 -0.332451,0.1533 -0.115411,0.15159 -0.115411,0.43408 0,0.2825 0.115411,0.43581 0.117133,0.15331 0.332451,0.15331 z m 0.961186,-0.58912 q 0,0.41342 -0.23772,0.70797 -0.23771,0.29284 -0.721743,0.29284 -0.484036,0 -0.721748,-0.29284 -0.237711,-0.29455 -0.237711,-0.70797 0,-0.40652 0.237711,-0.70452 0.237712,-0.298 0.721748,-0.298 0.484033,0 0.721743,0.298 0.23772,0.298 0.23772,0.70452 z m -0.959463,-0.99218 0,0 z"
         style="font-style:normal;font-variant:normal;font-weight:bold;font-stretch:normal;font-size:3.52777767px;font-family:sans-serif;-inkscape-font-specification:'sans-serif Bold';text-align:start;text-anchor:start;fill:#ffffff;stroke-width:0.21967295px"
         id="path4836"
         inkscape:connector-curvature="0" />
      <path
         d="m 102.23475,291.04744 0.5271,0 -0.67696,1.87758 -0.51849,0 -0.67351,-1.87758 0.55121,0 0.39102,1.38493 0.39963,-1.38493 z"
         style="font-style:normal;font-variant:normal;font-weight:bold;font-stretch:normal;font-size:3.52777767px;font-family:sans-serif;-inkscape-font-specification:'sans-serif Bold';text-align:start;text-anchor:start;fill:#ffffff;stroke-width:0.21967295px"
         id="path4838"
         inkscape:connector-curvature="0" />
      <path
         d="m 103.7816,291.40229 q -0.17053,0 -0.26527,0.10679 -0.093,0.1068 -0.11714,0.28939 l 0.76309,0 q -0.0121,-0.19465 -0.11885,-0.29455 -0.10508,-0.10163 -0.26183,-0.10163 z m 0,-0.4048 q 0.23426,0 0.42202,0.0878 0.18776,0.0879 0.31006,0.27733 0.11024,0.16708 0.14297,0.38757 0.019,0.12919 0.0155,0.37207 l -1.28503,0 q 0.0103,0.2825 0.17743,0.39619 0.10163,0.0706 0.2446,0.0706 0.15158,0 0.24632,-0.0861 0.0517,-0.0465 0.0913,-0.12919 l 0.50126,0 q -0.0189,0.16709 -0.17398,0.33934 -0.24115,0.27389 -0.67524,0.27389 -0.35829,0 -0.63217,-0.23082 -0.27389,-0.23082 -0.27389,-0.75103 0,-0.48748 0.24633,-0.74759 0.24804,-0.2601 0.64251,-0.2601 z m 0.0345,0 0,0 z"
         style="font-style:normal;font-variant:normal;font-weight:bold;font-stretch:normal;font-size:3.52777767px;font-family:sans-serif;-inkscape-font-specification:'sans-serif Bold';text-align:start;text-anchor:start;fill:#ffffff;stroke-width:0.21967295px"
         id="path4840"
         inkscape:connector-curvature="0" />
      <path
         d="m 107.17157,291.0061 q 0.12403,0 0.2446,0.0482 0.12058,0.0482 0.21877,0.16881 0.0792,0.0982 0.1068,0.24116 0.0172,0.0947 0.0172,0.27733 l -0.003,1.18339 -0.50299,0 0,-1.19545 q 0,-0.1068 -0.0344,-0.1757 -0.0655,-0.13091 -0.24116,-0.13091 -0.20326,0 -0.28077,0.16881 -0.0396,0.0896 -0.0396,0.21531 l 0,1.11794 -0.49437,0 0,-1.11794 q 0,-0.16708 -0.0345,-0.24287 -0.062,-0.13609 -0.24288,-0.13609 -0.21015,0 -0.2825,0.13609 -0.0396,0.0775 -0.0396,0.23082 l 0,1.12999 -0.49781,0 0,-1.87413 0.47714,0 0,0.27388 q 0.0913,-0.14642 0.17226,-0.20843 0.14297,-0.11024 0.37034,-0.11024 0.21532,0 0.34796,0.0947 0.1068,0.0879 0.16192,0.22565 0.0965,-0.16536 0.23943,-0.24288 0.15159,-0.0775 0.33762,-0.0775 z"
         style="font-style:normal;font-variant:normal;font-weight:bold;font-stretch:normal;font-size:3.52777767px;font-family:sans-serif;-inkscape-font-specification:'sans-serif Bold';text-align:start;text-anchor:start;fill:#ffffff;stroke-width:0.21967295px"
         id="path4842"
         inkscape:connector-curvature="0" />
      <path
         d="m 108.96302,291.40229 q -0.17053,0 -0.26527,0.10679 -0.093,0.1068 -0.11713,0.28939 l 0.76308,0 q -0.0121,-0.19465 -0.11885,-0.29455 -0.10508,-0.10163 -0.26183,-0.10163 z m 0,-0.4048 q 0.23427,0 0.42203,0.0878 0.18775,0.0879 0.31005,0.27733 0.11025,0.16708 0.14298,0.38757 0.0189,0.12919 0.0155,0.37207 l -1.28502,0 q 0.0103,0.2825 0.17742,0.39619 0.10163,0.0706 0.2446,0.0706 0.15159,0 0.24633,-0.0861 0.0517,-0.0465 0.0913,-0.12919 l 0.50126,0 q -0.019,0.16709 -0.17397,0.33934 -0.24116,0.27389 -0.67524,0.27389 -0.35829,0 -0.63218,-0.23082 -0.27388,-0.23082 -0.27388,-0.75103 0,-0.48748 0.24632,-0.74759 0.24805,-0.2601 0.64251,-0.2601 z m 0.0345,0 0,0 z"
         style="font-style:normal;font-variant:normal;font-weight:bold;font-stretch:normal;font-size:3.52777767px;font-family:sans-serif;-inkscape-font-specification:'sans-serif Bold';text-align:start;text-anchor:start;fill:#ffffff;stroke-width:0.21967295px"
         id="path4844"
         inkscape:connector-curvature="0" />
      <path
         d="m 111.29535,291.00266 q 0.29111,0 0.47542,0.1533 0.18604,0.15159 0.18604,0.50471 l 0,1.26435 -0.50298,0 0,-1.14205 q 0,-0.14814 -0.0396,-0.22738 -0.0724,-0.14469 -0.27561,-0.14469 -0.24977,0 -0.34279,0.21187 -0.0482,0.11197 -0.0482,0.28595 l 0,1.0163 -0.4892,0 0,-1.87413 0.4737,0 0,0.27388 q 0.0947,-0.14469 0.17914,-0.20843 0.15159,-0.11368 0.38413,-0.11368 z m -0.18087,-0.005 0,0 z"
         style="font-style:normal;font-variant:normal;font-weight:bold;font-stretch:normal;font-size:3.52777767px;font-family:sans-serif;-inkscape-font-specification:'sans-serif Bold';text-align:start;text-anchor:start;fill:#ffffff;stroke-width:0.21967295px"
         id="path4846"
         inkscape:connector-curvature="0" />
      <path
         d="m 112.21175,291.41434 0,-0.34967 0.26182,0 0,-0.52366 0.48576,0 0,0.52366 0.30489,0 0,0.34967 -0.30489,0 0,0.99219 q 0,0.11541 0.0293,0.1447 0.0293,0.0276 0.17914,0.0276 0.0224,0 0.0465,0 0.0258,-0.002 0.0499,-0.003 l 0,0.3669 -0.23254,0.009 q -0.34796,0.0121 -0.47542,-0.12058 -0.0827,-0.0844 -0.0827,-0.26011 l 0,-1.15583 -0.26182,0 z"
         style="font-style:normal;font-variant:normal;font-weight:bold;font-stretch:normal;font-size:3.52777767px;font-family:sans-serif;-inkscape-font-specification:'sans-serif Bold';text-align:start;text-anchor:start;fill:#ffffff;stroke-width:0.21967295px"
         id="path4848"
         inkscape:connector-curvature="0" />
      <path
         d="m 115.59655,292.01207 q -0.0465,0.0293 -0.0947,0.0482 -0.0465,0.0172 -0.12919,0.0327 l -0.11024,0.0207 q -0.15503,0.0276 -0.22221,0.0672 -0.11369,0.0672 -0.11369,0.20843 0,0.12574 0.0689,0.18259 0.0706,0.0551 0.17054,0.0551 0.15847,0 0.29111,-0.093 0.13436,-0.093 0.13952,-0.33934 l 0,-0.18259 z m -0.298,-0.2291 q 0.13608,-0.0172 0.19465,-0.0431 0.10508,-0.0448 0.10508,-0.13953 0,-0.11541 -0.081,-0.15848 -0.0792,-0.0448 -0.23427,-0.0448 -0.17398,0 -0.24633,0.0861 -0.0517,0.0637 -0.0689,0.17225 l -0.4737,0 q 0.0155,-0.24632 0.13781,-0.4048 0.19464,-0.24804 0.66834,-0.24804 0.30834,0 0.54777,0.1223 0.23944,0.1223 0.23944,0.46164 l 0,0.86127 q 0,0.0896 0.003,0.21704 0.005,0.0965 0.0293,0.13092 0.0241,0.0344 0.0723,0.0568 l 0,0.0724 -0.53399,0 q -0.0224,-0.0568 -0.031,-0.1068 -0.009,-0.05 -0.0138,-0.11369 -0.10163,0.11025 -0.23427,0.18776 -0.15847,0.0913 -0.35829,0.0913 -0.25494,0 -0.42202,-0.14469 -0.16537,-0.14642 -0.16537,-0.41341 0,-0.34623 0.267,-0.50126 0.14641,-0.0844 0.43064,-0.12058 l 0.16708,-0.0207 z m 0.0258,-0.78548 0,0 z"
         style="font-style:normal;font-variant:normal;font-weight:bold;font-stretch:normal;font-size:3.52777767px;font-family:sans-serif;-inkscape-font-specification:'sans-serif Bold';text-align:start;text-anchor:start;fill:#ffffff;stroke-width:0.21967295px"
         id="path4850"
         inkscape:connector-curvature="0" />
      <path
         d="m 117.54476,291.00266 q 0.0138,0 0.0224,0.002 0.0103,0 0.0431,0.002 l 0,0.50298 q -0.0465,-0.005 -0.0827,-0.007 -0.0362,-0.002 -0.0586,-0.002 -0.29628,0 -0.39791,0.19293 -0.0568,0.10852 -0.0568,0.33417 l 0,0.89745 -0.49437,0 0,-1.87758 0.46853,0 0,0.32729 q 0.11369,-0.18776 0.1981,-0.25666 0.1378,-0.11541 0.35829,-0.11541 z"
         style="font-style:normal;font-variant:normal;font-weight:bold;font-stretch:normal;font-size:3.52777767px;font-family:sans-serif;-inkscape-font-specification:'sans-serif Bold';text-align:start;text-anchor:start;fill:#ffffff;stroke-width:0.21967295px"
         id="path4852"
         inkscape:connector-curvature="0" />
      <path
         d="m 118.63685,291.40229 q -0.17053,0 -0.26527,0.10679 -0.093,0.1068 -0.11714,0.28939 l 0.76309,0 q -0.0121,-0.19465 -0.11885,-0.29455 -0.10508,-0.10163 -0.26183,-0.10163 z m 0,-0.4048 q 0.23427,0 0.42202,0.0878 0.18776,0.0879 0.31006,0.27733 0.11025,0.16708 0.14297,0.38757 0.019,0.12919 0.0155,0.37207 l -1.28502,0 q 0.0103,0.2825 0.17742,0.39619 0.10163,0.0706 0.2446,0.0706 0.15158,0 0.24632,-0.0861 0.0517,-0.0465 0.0913,-0.12919 l 0.50126,0 q -0.019,0.16709 -0.17398,0.33934 -0.24115,0.27389 -0.67524,0.27389 -0.35828,0 -0.63217,-0.23082 -0.27389,-0.23082 -0.27389,-0.75103 0,-0.48748 0.24633,-0.74759 0.24805,-0.2601 0.64251,-0.2601 z m 0.0345,0 0,0 z"
         style="font-style:normal;font-variant:normal;font-weight:bold;font-stretch:normal;font-size:3.52777767px;font-family:sans-serif;-inkscape-font-specification:'sans-serif Bold';text-align:start;text-anchor:start;fill:#ffffff;stroke-width:0.21967295px"
         id="path4854"
         inkscape:connector-curvature="0" />
      <path
         d="m 120.96401,292.01207 q -0.0465,0.0293 -0.0947,0.0482 -0.0465,0.0172 -0.12919,0.0327 l -0.11024,0.0207 q -0.15503,0.0276 -0.22221,0.0672 -0.11369,0.0672 -0.11369,0.20843 0,0.12574 0.0689,0.18259 0.0706,0.0551 0.17053,0.0551 0.15848,0 0.29111,-0.093 0.13436,-0.093 0.13953,-0.33934 l 0,-0.18259 z m -0.298,-0.2291 q 0.13608,-0.0172 0.19465,-0.0431 0.10507,-0.0448 0.10507,-0.13953 0,-0.11541 -0.081,-0.15848 -0.0792,-0.0448 -0.23426,-0.0448 -0.17398,0 -0.24633,0.0861 -0.0517,0.0637 -0.0689,0.17225 l -0.4737,0 q 0.0155,-0.24632 0.1378,-0.4048 0.19465,-0.24804 0.66835,-0.24804 0.30834,0 0.54777,0.1223 0.23944,0.1223 0.23944,0.46164 l 0,0.86127 q 0,0.0896 0.003,0.21704 0.005,0.0965 0.0293,0.13092 0.0241,0.0344 0.0723,0.0568 l 0,0.0724 -0.53399,0 q -0.0224,-0.0568 -0.031,-0.1068 -0.009,-0.05 -0.0138,-0.11369 -0.10163,0.11025 -0.23427,0.18776 -0.15847,0.0913 -0.35829,0.0913 -0.25494,0 -0.42202,-0.14469 -0.16537,-0.14642 -0.16537,-0.41341 0,-0.34623 0.267,-0.50126 0.14641,-0.0844 0.43063,-0.12058 l 0.16709,-0.0207 z m 0.0258,-0.78548 0,0 z"
         style="font-style:normal;font-variant:normal;font-weight:bold;font-stretch:normal;font-size:3.52777767px;font-family:sans-serif;-inkscape-font-specification:'sans-serif Bold';text-align:start;text-anchor:start;fill:#ffffff;stroke-width:0.21967295px"
         id="path4856"
         inkscape:connector-curvature="0" />
    </g>
    <g
       style="font-style:normal;font-variant:normal;font-weight:bold;font-stretch:normal;font-size:5.29166651px;line-height:125%;font-family:sans-serif;-inkscape-font-specification:'sans-serif Bold';text-align:start;letter-spacing:0px;word-spacing:0px;text-anchor:start;fill:#ffffff;fill-opacity:1;stroke:none;stroke-width:0.21967295px;stroke-linecap:butt;stroke-linejoin:miter;stroke-opacity:1"
       id="text4223"
       transform="matrix(1.204442,0,0,1.204442,-30.605813,-58.957396)">
      <path
         d="m 136.17369,291.32562 q 0.12402,0 0.2446,0.0482 0.12058,0.0482 0.21876,0.16881 0.0792,0.0982 0.1068,0.24116 0.0172,0.0947 0.0172,0.27733 l -0.003,1.18339 -0.50298,0 0,-1.19545 q 0,-0.1068 -0.0344,-0.1757 -0.0655,-0.13091 -0.24116,-0.13091 -0.20326,0 -0.28077,0.16881 -0.0396,0.0896 -0.0396,0.21531 l 0,1.11794 -0.49437,0 0,-1.11794 q 0,-0.16708 -0.0344,-0.24288 -0.062,-0.13608 -0.24288,-0.13608 -0.21015,0 -0.2825,0.13608 -0.0396,0.0775 -0.0396,0.23083 l 0,1.12999 -0.49782,0 0,-1.87413 0.47715,0 0,0.27388 q 0.0913,-0.14642 0.17225,-0.20843 0.14298,-0.11024 0.37035,-0.11024 0.21532,0 0.34796,0.0947 0.10679,0.0879 0.16192,0.22565 0.0965,-0.16536 0.23943,-0.24288 0.15158,-0.0775 0.33762,-0.0775 z"
         style="font-style:normal;font-variant:normal;font-weight:bold;font-stretch:normal;font-size:3.52777767px;font-family:sans-serif;-inkscape-font-specification:'sans-serif Bold';text-align:start;text-anchor:start;fill:#ffffff;stroke-width:0.21967295px"
         id="path4797"
         inkscape:connector-curvature="0" />
      <path
         d="m 138.25969,292.33159 q -0.0465,0.0293 -0.0947,0.0482 -0.0465,0.0172 -0.12919,0.0327 l -0.11024,0.0207 q -0.15503,0.0276 -0.22221,0.0672 -0.11369,0.0672 -0.11369,0.20843 0,0.12574 0.0689,0.18259 0.0706,0.0551 0.17053,0.0551 0.15847,0 0.29111,-0.093 0.13436,-0.093 0.13952,-0.33934 l 0,-0.18259 z m -0.298,-0.2291 q 0.13608,-0.0172 0.19465,-0.0431 0.10508,-0.0448 0.10508,-0.13952 0,-0.11541 -0.081,-0.15848 -0.0792,-0.0448 -0.23427,-0.0448 -0.17398,0 -0.24632,0.0861 -0.0517,0.0637 -0.0689,0.17226 l -0.4737,0 q 0.0155,-0.24632 0.13781,-0.4048 0.19465,-0.24805 0.66835,-0.24805 0.30833,0 0.54777,0.12231 0.23943,0.1223 0.23943,0.46164 l 0,0.86127 q 0,0.0896 0.003,0.21704 0.005,0.0965 0.0293,0.13092 0.0241,0.0345 0.0724,0.0568 l 0,0.0723 -0.53399,0 q -0.0224,-0.0568 -0.031,-0.1068 -0.009,-0.05 -0.0138,-0.11369 -0.10163,0.11024 -0.23427,0.18776 -0.15847,0.0913 -0.35829,0.0913 -0.25493,0 -0.42202,-0.14469 -0.16537,-0.14642 -0.16537,-0.41341 0,-0.34623 0.267,-0.50126 0.14642,-0.0844 0.43064,-0.12058 l 0.16708,-0.0207 z m 0.0258,-0.78548 0,0 z"
         style="font-style:normal;font-variant:normal;font-weight:bold;font-stretch:normal;font-size:3.52777767px;font-family:sans-serif;-inkscape-font-specification:'sans-serif Bold';text-align:start;text-anchor:start;fill:#ffffff;stroke-width:0.21967295px"
         id="path4799"
         inkscape:connector-curvature="0" />
      <path
         d="m 139.69285,291.14303 -0.49781,0 0,-0.45303 0.49781,0 0,0.45303 z m -0.49781,0.22393 0.49781,0 0,1.87758 -0.49781,0 0,-1.87758 z"
         style="font-style:normal;font-variant:normal;font-weight:bold;font-stretch:normal;font-size:3.52777767px;font-family:sans-serif;-inkscape-font-specification:'sans-serif Bold';text-align:start;text-anchor:start;fill:#ffffff;stroke-width:0.21967295px"
         id="path4801"
         inkscape:connector-curvature="0" />
      <path
         d="m 141.20008,291.32217 q 0.29111,0 0.47543,0.15331 0.18603,0.15159 0.18603,0.50471 l 0,1.26435 -0.50298,0 0,-1.14205 q 0,-0.14814 -0.0396,-0.22738 -0.0724,-0.14469 -0.27561,-0.14469 -0.24977,0 -0.34279,0.21187 -0.0482,0.11197 -0.0482,0.28594 l 0,1.01631 -0.4892,0 0,-1.87413 0.4737,0 0,0.27388 q 0.0947,-0.14469 0.17914,-0.20843 0.15159,-0.11369 0.38413,-0.11369 z m -0.18086,-0.005 0,0 z"
         style="font-style:normal;font-variant:normal;font-weight:bold;font-stretch:normal;font-size:3.52777767px;font-family:sans-serif;-inkscape-font-specification:'sans-serif Bold';text-align:start;text-anchor:start;fill:#ffffff;stroke-width:0.21967295px"
         id="path4803"
         inkscape:connector-curvature="0" />
      <path
         d="m 142.11648,291.73386 0,-0.34967 0.26183,0 0,-0.52366 0.48575,0 0,0.52366 0.3049,0 0,0.34967 -0.3049,0 0,0.99219 q 0,0.11541 0.0293,0.14469 0.0293,0.0276 0.17914,0.0276 0.0224,0 0.0465,0 0.0258,-0.002 0.05,-0.003 l 0,0.3669 -0.23255,0.009 q -0.34795,0.012 -0.47542,-0.12058 -0.0827,-0.0844 -0.0827,-0.26011 l 0,-1.15583 -0.26183,0 z"
         style="font-style:normal;font-variant:normal;font-weight:bold;font-stretch:normal;font-size:3.52777767px;font-family:sans-serif;-inkscape-font-specification:'sans-serif Bold';text-align:start;text-anchor:start;fill:#ffffff;stroke-width:0.21967295px"
         id="path4805"
         inkscape:connector-curvature="0" />
      <path
         d="m 144.22832,291.72181 q -0.17053,0 -0.26527,0.10679 -0.093,0.1068 -0.11713,0.28939 l 0.76309,0 q -0.0121,-0.19465 -0.11886,-0.29455 -0.10508,-0.10163 -0.26183,-0.10163 z m 0,-0.4048 q 0.23427,0 0.42203,0.0879 0.18775,0.0879 0.31005,0.27733 0.11025,0.16708 0.14298,0.38757 0.0189,0.12919 0.0155,0.37207 l -1.28502,0 q 0.0103,0.2825 0.17742,0.39619 0.10163,0.0706 0.2446,0.0706 0.15159,0 0.24633,-0.0861 0.0517,-0.0465 0.0913,-0.12919 l 0.50126,0 q -0.0189,0.16709 -0.17397,0.33934 -0.24116,0.27389 -0.67524,0.27389 -0.35829,0 -0.63218,-0.23082 -0.27388,-0.23082 -0.27388,-0.75103 0,-0.48748 0.24632,-0.74759 0.24805,-0.2601 0.64251,-0.2601 z m 0.0344,0 0,0 z"
         style="font-style:normal;font-variant:normal;font-weight:bold;font-stretch:normal;font-size:3.52777767px;font-family:sans-serif;-inkscape-font-specification:'sans-serif Bold';text-align:start;text-anchor:start;fill:#ffffff;stroke-width:0.21967295px"
         id="path4807"
         inkscape:connector-curvature="0" />
      <path
         d="m 146.56065,291.32217 q 0.29111,0 0.47542,0.15331 0.18604,0.15159 0.18604,0.50471 l 0,1.26435 -0.50298,0 0,-1.14205 q 0,-0.14814 -0.0396,-0.22738 -0.0724,-0.14469 -0.27561,-0.14469 -0.24977,0 -0.34279,0.21187 -0.0482,0.11197 -0.0482,0.28594 l 0,1.01631 -0.4892,0 0,-1.87413 0.4737,0 0,0.27388 q 0.0947,-0.14469 0.17914,-0.20843 0.15159,-0.11369 0.38413,-0.11369 z m -0.18087,-0.005 0,0 z"
         style="font-style:normal;font-variant:normal;font-weight:bold;font-stretch:normal;font-size:3.52777767px;font-family:sans-serif;-inkscape-font-specification:'sans-serif Bold';text-align:start;text-anchor:start;fill:#ffffff;stroke-width:0.21967295px"
         id="path4809"
         inkscape:connector-curvature="0" />
      <path
         d="m 148.70522,292.33159 q -0.0465,0.0293 -0.0947,0.0482 -0.0465,0.0172 -0.12919,0.0327 l -0.11024,0.0207 q -0.15503,0.0276 -0.22221,0.0672 -0.11369,0.0672 -0.11369,0.20843 0,0.12574 0.0689,0.18259 0.0706,0.0551 0.17054,0.0551 0.15847,0 0.29111,-0.093 0.13436,-0.093 0.13952,-0.33934 l 0,-0.18259 z m -0.298,-0.2291 q 0.13608,-0.0172 0.19465,-0.0431 0.10508,-0.0448 0.10508,-0.13952 0,-0.11541 -0.081,-0.15848 -0.0792,-0.0448 -0.23427,-0.0448 -0.17398,0 -0.24632,0.0861 -0.0517,0.0637 -0.0689,0.17226 l -0.4737,0 q 0.0155,-0.24632 0.13781,-0.4048 0.19464,-0.24805 0.66834,-0.24805 0.30834,0 0.54778,0.12231 0.23943,0.1223 0.23943,0.46164 l 0,0.86127 q 0,0.0896 0.003,0.21704 0.005,0.0965 0.0293,0.13092 0.0241,0.0345 0.0723,0.0568 l 0,0.0723 -0.53399,0 q -0.0224,-0.0568 -0.031,-0.1068 -0.009,-0.05 -0.0138,-0.11369 -0.10163,0.11024 -0.23427,0.18776 -0.15847,0.0913 -0.35829,0.0913 -0.25493,0 -0.42202,-0.14469 -0.16537,-0.14642 -0.16537,-0.41341 0,-0.34623 0.267,-0.50126 0.14641,-0.0844 0.43064,-0.12058 l 0.16708,-0.0207 z m 0.0258,-0.78548 0,0 z"
         style="font-style:normal;font-variant:normal;font-weight:bold;font-stretch:normal;font-size:3.52777767px;font-family:sans-serif;-inkscape-font-specification:'sans-serif Bold';text-align:start;text-anchor:start;fill:#ffffff;stroke-width:0.21967295px"
         id="path4811"
         inkscape:connector-curvature="0" />
      <path
         d="m 150.6741,291.32217 q 0.29111,0 0.47542,0.15331 0.18603,0.15159 0.18603,0.50471 l 0,1.26435 -0.50298,0 0,-1.14205 q 0,-0.14814 -0.0396,-0.22738 -0.0724,-0.14469 -0.27561,-0.14469 -0.24977,0 -0.34278,0.21187 -0.0482,0.11197 -0.0482,0.28594 l 0,1.01631 -0.48921,0 0,-1.87413 0.4737,0 0,0.27388 q 0.0947,-0.14469 0.17915,-0.20843 0.15158,-0.11369 0.38413,-0.11369 z m -0.18087,-0.005 0,0 z"
         style="font-style:normal;font-variant:normal;font-weight:bold;font-stretch:normal;font-size:3.52777767px;font-family:sans-serif;-inkscape-font-specification:'sans-serif Bold';text-align:start;text-anchor:start;fill:#ffffff;stroke-width:0.21967295px"
         id="path4813"
         inkscape:connector-curvature="0" />
      <path
         d="m 152.90479,292.04048 q -0.0138,-0.10508 -0.0706,-0.18948 -0.0827,-0.11369 -0.25666,-0.11369 -0.24805,0 -0.33934,0.24632 -0.0482,0.13092 -0.0482,0.34796 0,0.2067 0.0482,0.33245 0.0879,0.23427 0.33073,0.23427 0.17225,0 0.2446,-0.093 0.0724,-0.093 0.0879,-0.24116 l 0.50126,0 q -0.0172,0.22393 -0.16192,0.42375 -0.23082,0.32211 -0.68385,0.32211 -0.45303,0 -0.66663,-0.26871 -0.21359,-0.26872 -0.21359,-0.69764 0,-0.48403 0.23599,-0.75275 0.23599,-0.26872 0.65112,-0.26872 0.35312,0 0.57705,0.15848 0.22566,0.15847 0.267,0.55983 l -0.50299,0 z m -0.33245,-0.72347 0,0 z"
         style="font-style:normal;font-variant:normal;font-weight:bold;font-stretch:normal;font-size:3.52777767px;font-family:sans-serif;-inkscape-font-specification:'sans-serif Bold';text-align:start;text-anchor:start;fill:#ffffff;stroke-width:0.21967295px"
         id="path4815"
         inkscape:connector-curvature="0" />
      <path
         d="m 154.48782,291.72181 q -0.17054,0 -0.26528,0.10679 -0.093,0.1068 -0.11713,0.28939 l 0.76309,0 q -0.0121,-0.19465 -0.11886,-0.29455 -0.10507,-0.10163 -0.26182,-0.10163 z m 0,-0.4048 q 0.23426,0 0.42202,0.0879 0.18776,0.0879 0.31006,0.27733 0.11024,0.16708 0.14297,0.38757 0.019,0.12919 0.0155,0.37207 l -1.28502,0 q 0.0103,0.2825 0.17743,0.39619 0.10163,0.0706 0.2446,0.0706 0.15158,0 0.24632,-0.0861 0.0517,-0.0465 0.0913,-0.12919 l 0.50126,0 q -0.019,0.16709 -0.17398,0.33934 -0.24116,0.27389 -0.67524,0.27389 -0.35829,0 -0.63217,-0.23082 -0.27389,-0.23082 -0.27389,-0.75103 0,-0.48748 0.24633,-0.74759 0.24804,-0.2601 0.64251,-0.2601 z m 0.0344,0 0,0 z"
         style="font-style:normal;font-variant:normal;font-weight:bold;font-stretch:normal;font-size:3.52777767px;font-family:sans-serif;-inkscape-font-specification:'sans-serif Bold';text-align:start;text-anchor:start;fill:#ffffff;stroke-width:0.21967295px"
         id="path4817"
         inkscape:connector-curvature="0" />
      <path
         d="m 157.79339,292.33159 q -0.0465,0.0293 -0.0947,0.0482 -0.0465,0.0172 -0.1292,0.0327 l -0.11024,0.0207 q -0.15503,0.0276 -0.22221,0.0672 -0.11369,0.0672 -0.11369,0.20843 0,0.12574 0.0689,0.18259 0.0706,0.0551 0.17053,0.0551 0.15847,0 0.29111,-0.093 0.13436,-0.093 0.13953,-0.33934 l 0,-0.18259 z m -0.29801,-0.2291 q 0.13609,-0.0172 0.19465,-0.0431 0.10508,-0.0448 0.10508,-0.13952 0,-0.11541 -0.081,-0.15848 -0.0792,-0.0448 -0.23427,-0.0448 -0.17398,0 -0.24632,0.0861 -0.0517,0.0637 -0.0689,0.17226 l -0.4737,0 q 0.0155,-0.24632 0.1378,-0.4048 0.19465,-0.24805 0.66835,-0.24805 0.30833,0 0.54777,0.12231 0.23943,0.1223 0.23943,0.46164 l 0,0.86127 q 0,0.0896 0.003,0.21704 0.005,0.0965 0.0293,0.13092 0.0241,0.0345 0.0724,0.0568 l 0,0.0723 -0.53399,0 q -0.0224,-0.0568 -0.031,-0.1068 -0.009,-0.05 -0.0138,-0.11369 -0.10163,0.11024 -0.23427,0.18776 -0.15847,0.0913 -0.35829,0.0913 -0.25493,0 -0.42202,-0.14469 -0.16536,-0.14642 -0.16536,-0.41341 0,-0.34623 0.26699,-0.50126 0.14642,-0.0844 0.43064,-0.12058 l 0.16708,-0.0207 z m 0.0258,-0.78548 0,0 z"
         style="font-style:normal;font-variant:normal;font-weight:bold;font-stretch:normal;font-size:3.52777767px;font-family:sans-serif;-inkscape-font-specification:'sans-serif Bold';text-align:start;text-anchor:start;fill:#ffffff;stroke-width:0.21967295px"
         id="path4819"
         inkscape:connector-curvature="0" />
      <path
         d="m 159.74159,291.32217 q 0.0138,0 0.0224,0.002 0.0103,0 0.0431,0.002 l 0,0.50298 q -0.0465,-0.005 -0.0827,-0.007 -0.0362,-0.002 -0.0586,-0.002 -0.29627,0 -0.3979,0.19293 -0.0568,0.10852 -0.0568,0.33417 l 0,0.89745 -0.49437,0 0,-1.87758 0.46853,0 0,0.32728 q 0.11369,-0.18775 0.1981,-0.25666 0.1378,-0.11541 0.35829,-0.11541 z"
         style="font-style:normal;font-variant:normal;font-weight:bold;font-stretch:normal;font-size:3.52777767px;font-family:sans-serif;-inkscape-font-specification:'sans-serif Bold';text-align:start;text-anchor:start;fill:#ffffff;stroke-width:0.21967295px"
         id="path4821"
         inkscape:connector-curvature="0" />
      <path
         d="m 160.83368,291.72181 q -0.17053,0 -0.26527,0.10679 -0.093,0.1068 -0.11713,0.28939 l 0.76309,0 q -0.0121,-0.19465 -0.11886,-0.29455 -0.10508,-0.10163 -0.26183,-0.10163 z m 0,-0.4048 q 0.23427,0 0.42203,0.0879 0.18775,0.0879 0.31005,0.27733 0.11025,0.16708 0.14298,0.38757 0.0189,0.12919 0.0155,0.37207 l -1.28502,0 q 0.0103,0.2825 0.17742,0.39619 0.10163,0.0706 0.2446,0.0706 0.15159,0 0.24633,-0.0861 0.0517,-0.0465 0.0913,-0.12919 l 0.50126,0 q -0.0189,0.16709 -0.17397,0.33934 -0.24116,0.27389 -0.67524,0.27389 -0.35829,0 -0.63218,-0.23082 -0.27388,-0.23082 -0.27388,-0.75103 0,-0.48748 0.24632,-0.74759 0.24805,-0.2601 0.64251,-0.2601 z m 0.0345,0 0,0 z"
         style="font-style:normal;font-variant:normal;font-weight:bold;font-stretch:normal;font-size:3.52777767px;font-family:sans-serif;-inkscape-font-specification:'sans-serif Bold';text-align:start;text-anchor:start;fill:#ffffff;stroke-width:0.21967295px"
         id="path4823"
         inkscape:connector-curvature="0" />
      <path
         d="m 163.16084,292.33159 q -0.0465,0.0293 -0.0947,0.0482 -0.0465,0.0172 -0.12919,0.0327 l -0.11024,0.0207 q -0.15503,0.0276 -0.22221,0.0672 -0.11369,0.0672 -0.11369,0.20843 0,0.12574 0.0689,0.18259 0.0706,0.0551 0.17054,0.0551 0.15847,0 0.29111,-0.093 0.13436,-0.093 0.13952,-0.33934 l 0,-0.18259 z m -0.298,-0.2291 q 0.13608,-0.0172 0.19465,-0.0431 0.10508,-0.0448 0.10508,-0.13952 0,-0.11541 -0.081,-0.15848 -0.0792,-0.0448 -0.23427,-0.0448 -0.17398,0 -0.24632,0.0861 -0.0517,0.0637 -0.0689,0.17226 l -0.4737,0 q 0.0155,-0.24632 0.13781,-0.4048 0.19465,-0.24805 0.66835,-0.24805 0.30833,0 0.54777,0.12231 0.23943,0.1223 0.23943,0.46164 l 0,0.86127 q 0,0.0896 0.003,0.21704 0.005,0.0965 0.0293,0.13092 0.0241,0.0345 0.0723,0.0568 l 0,0.0723 -0.53399,0 q -0.0224,-0.0568 -0.031,-0.1068 -0.009,-0.05 -0.0138,-0.11369 -0.10163,0.11024 -0.23427,0.18776 -0.15847,0.0913 -0.35829,0.0913 -0.25493,0 -0.42202,-0.14469 -0.16537,-0.14642 -0.16537,-0.41341 0,-0.34623 0.267,-0.50126 0.14642,-0.0844 0.43064,-0.12058 l 0.16708,-0.0207 z m 0.0258,-0.78548 0,0 z"
         style="font-style:normal;font-variant:normal;font-weight:bold;font-stretch:normal;font-size:3.52777767px;font-family:sans-serif;-inkscape-font-specification:'sans-serif Bold';text-align:start;text-anchor:start;fill:#ffffff;stroke-width:0.21967295px"
         id="path4825"
         inkscape:connector-curvature="0" />
    </g>
    <g
       style="font-style:normal;font-variant:normal;font-weight:bold;font-stretch:normal;font-size:5.29166651px;line-height:125%;font-family:sans-serif;-inkscape-font-specification:'sans-serif Bold';text-align:start;letter-spacing:0px;word-spacing:0px;text-anchor:start;fill:#ffffff;fill-opacity:1;stroke:none;stroke-width:0.21967295px;stroke-linecap:butt;stroke-linejoin:miter;stroke-opacity:1"
       id="text4227"
       transform="matrix(1.204442,0,0,1.204442,-8.8806659,-58.692668)">
      <path
         d="m 33.90104,291.9587 q 0,-0.21704 -0.09991,-0.38413 -0.09819,-0.16708 -0.320394,-0.16708 -0.266995,0 -0.366903,0.25321 -0.05168,0.13436 -0.05168,0.34107 0,0.32728 0.173977,0.45992 0.103353,0.0775 0.244602,0.0775 0.204983,0 0.311781,-0.15847 0.108521,-0.15848 0.108521,-0.42203 z m -0.279053,-0.98013 q 0.329006,0 0.556383,0.24288 0.229099,0.24288 0.229099,0.71314 0,0.49609 -0.223932,0.7562 -0.222208,0.2601 -0.573608,0.2601 -0.223931,0 -0.37207,-0.11197 -0.08096,-0.062 -0.158475,-0.18086 l 0,0.9784 -0.485758,0 0,-2.61655 0.470255,0 0,0.27733 q 0.07924,-0.1223 0.16881,-0.19292 0.163642,-0.12575 0.389296,-0.12575 z"
         style="font-style:normal;font-variant:normal;font-weight:bold;font-stretch:normal;font-size:3.52777767px;font-family:sans-serif;-inkscape-font-specification:'sans-serif Bold';text-align:start;text-anchor:start;fill:#ffffff;stroke-width:0.21967295px"
         id="path4859"
         inkscape:connector-curvature="0" />
      <path
         d="m 35.783784,290.97513 q 0.01378,0 0.02239,0.002 0.01034,0 0.04306,0.002 l 0,0.50299 q -0.04651,-0.005 -0.08268,-0.007 -0.03617,-0.002 -0.05857,-0.002 -0.296278,0 -0.397908,0.19293 -0.05684,0.10852 -0.05684,0.33417 l 0,0.89745 -0.494372,0 0,-1.87758 0.468533,0 0,0.32729 q 0.113688,-0.18776 0.198093,-0.25666 0.137804,-0.11541 0.35829,-0.11541 z"
         style="font-style:normal;font-variant:normal;font-weight:bold;font-stretch:normal;font-size:3.52777767px;font-family:sans-serif;-inkscape-font-specification:'sans-serif Bold';text-align:start;text-anchor:start;fill:#ffffff;stroke-width:0.21967295px"
         id="path4861"
         inkscape:connector-curvature="0" />
      <path
         d="m 36.63989,290.79598 -0.497816,0 0,-0.45303 0.497816,0 0,0.45303 z m -0.497816,0.22393 0.497816,0 0,1.87758 -0.497816,0 0,-1.87758 z"
         style="font-style:normal;font-variant:normal;font-weight:bold;font-stretch:normal;font-size:3.52777767px;font-family:sans-serif;-inkscape-font-specification:'sans-serif Bold';text-align:start;text-anchor:start;fill:#ffffff;stroke-width:0.21967295px"
         id="path4863"
         inkscape:connector-curvature="0" />
      <path
         d="m 37.949027,292.55126 q 0.215318,0 0.330729,-0.15331 0.115411,-0.1533 0.115411,-0.4358 0,-0.2825 -0.115411,-0.43408 -0.115411,-0.15331 -0.330729,-0.15331 -0.215319,0 -0.332452,0.15331 -0.115411,0.15158 -0.115411,0.43408 0,0.2825 0.115411,0.4358 0.117133,0.15331 0.332452,0.15331 z m 0.961181,-0.58911 q 0,0.41341 -0.237711,0.70797 -0.237712,0.29283 -0.721748,0.29283 -0.484036,0 -0.721747,-0.29283 -0.237712,-0.29456 -0.237712,-0.70797 0,-0.40652 0.237712,-0.70452 0.237711,-0.298 0.721747,-0.298 0.484036,0 0.721748,0.298 0.237711,0.298 0.237711,0.70452 z m -0.959459,-0.99219 0,0 z"
         style="font-style:normal;font-variant:normal;font-weight:bold;font-stretch:normal;font-size:3.52777767px;font-family:sans-serif;-inkscape-font-specification:'sans-serif Bold';text-align:start;text-anchor:start;fill:#ffffff;stroke-width:0.21967295px"
         id="path4865"
         inkscape:connector-curvature="0" />
      <path
         d="m 40.283079,290.97513 q 0.01378,0 0.02239,0.002 0.01033,0 0.04306,0.002 l 0,0.50299 q -0.04651,-0.005 -0.08268,-0.007 -0.03617,-0.002 -0.05857,-0.002 -0.296279,0 -0.397909,0.19293 -0.05684,0.10852 -0.05684,0.33417 l 0,0.89745 -0.494371,0 0,-1.87758 0.468533,0 0,0.32729 q 0.113688,-0.18776 0.198093,-0.25666 0.137804,-0.11541 0.35829,-0.11541 z"
         style="font-style:normal;font-variant:normal;font-weight:bold;font-stretch:normal;font-size:3.52777767px;font-family:sans-serif;-inkscape-font-specification:'sans-serif Bold';text-align:start;text-anchor:start;fill:#ffffff;stroke-width:0.21967295px"
         id="path4867"
         inkscape:connector-curvature="0" />
      <path
         d="m 41.139186,290.79598 -0.497817,0 0,-0.45303 0.497817,0 0,0.45303 z m -0.497817,0.22393 0.497817,0 0,1.87758 -0.497817,0 0,-1.87758 z"
         style="font-style:normal;font-variant:normal;font-weight:bold;font-stretch:normal;font-size:3.52777767px;font-family:sans-serif;-inkscape-font-specification:'sans-serif Bold';text-align:start;text-anchor:start;fill:#ffffff;stroke-width:0.21967295px"
         id="path4869"
         inkscape:connector-curvature="0" />
      <path
         d="m 41.41307,291.38682 0,-0.34968 0.261828,0 0,-0.52365 0.485758,0 0,0.52365 0.304891,0 0,0.34968 -0.304891,0 0,0.99218 q 0,0.11542 0.02928,0.1447 0.02928,0.0276 0.179145,0.0276 0.02239,0 0.04651,0 0.02584,-0.002 0.04995,-0.003 l 0,0.36691 -0.232544,0.009 q -0.347955,0.0121 -0.475423,-0.12058 -0.08268,-0.0844 -0.08268,-0.2601 l 0,-1.15583 -0.261828,0 z"
         style="font-style:normal;font-variant:normal;font-weight:bold;font-stretch:normal;font-size:3.52777767px;font-family:sans-serif;-inkscape-font-specification:'sans-serif Bold';text-align:start;text-anchor:start;fill:#ffffff;stroke-width:0.21967295px"
         id="path4871"
         inkscape:connector-curvature="0" />
      <path
         d="m 42.86001,293.2575 0.06201,0.003 q 0.07235,0.003 0.137804,-0.005 0.06546,-0.009 0.110243,-0.0396 0.04306,-0.0293 0.07924,-0.1223 0.0379,-0.093 0.03101,-0.11369 l -0.689019,-1.96026 0.546048,0 0.409966,1.38493 0.387573,-1.38493 0.521932,0 -0.644233,1.84658 q -0.186035,0.53399 -0.294555,0.66145 -0.108521,0.12919 -0.434082,0.12919 -0.06546,0 -0.105076,-0.002 -0.03962,0 -0.118856,-0.005 l 0,-0.39274 z m 0.664904,-2.28754 0,0 z"
         style="font-style:normal;font-variant:normal;font-weight:bold;font-stretch:normal;font-size:3.52777767px;font-family:sans-serif;-inkscape-font-specification:'sans-serif Bold';text-align:start;text-anchor:start;fill:#ffffff;stroke-width:0.21967295px"
         id="path4873"
         inkscape:connector-curvature="0" />
      <path
         d="m 46.761581,291.98454 q -0.04651,0.0293 -0.09474,0.0482 -0.04651,0.0172 -0.129191,0.0327 l -0.110243,0.0207 q -0.155029,0.0276 -0.222208,0.0672 -0.113689,0.0672 -0.113689,0.20843 0,0.12575 0.0689,0.18259 0.07062,0.0551 0.170533,0.0551 0.158474,0 0.29111,-0.093 0.134359,-0.093 0.139527,-0.33934 l 0,-0.18259 z m -0.298001,-0.2291 q 0.136081,-0.0172 0.194648,-0.0431 0.105075,-0.0448 0.105075,-0.13953 0,-0.11541 -0.08096,-0.15847 -0.07924,-0.0448 -0.234266,-0.0448 -0.173977,0 -0.246324,0.0861 -0.05168,0.0637 -0.0689,0.17225 l -0.473701,0 q 0.0155,-0.24632 0.137804,-0.40479 0.194648,-0.24805 0.668348,-0.24805 0.308336,0 0.54777,0.1223 0.239435,0.1223 0.239435,0.46164 l 0,0.86128 q 0,0.0896 0.0034,0.21704 0.0052,0.0965 0.02928,0.13091 0.02412,0.0344 0.07235,0.0568 l 0,0.0724 -0.53399,0 q -0.02239,-0.0568 -0.03101,-0.1068 -0.0086,-0.0499 -0.01378,-0.11368 -0.10163,0.11024 -0.234266,0.18775 -0.158475,0.0913 -0.35829,0.0913 -0.254937,0 -0.422025,-0.1447 -0.165364,-0.14641 -0.165364,-0.41341 0,-0.34623 0.266995,-0.50126 0.146416,-0.0844 0.430637,-0.12058 l 0.167087,-0.0207 z m 0.02584,-0.78548 0,0 z"
         style="font-style:normal;font-variant:normal;font-weight:bold;font-stretch:normal;font-size:3.52777767px;font-family:sans-serif;-inkscape-font-specification:'sans-serif Bold';text-align:start;text-anchor:start;fill:#ffffff;stroke-width:0.21967295px"
         id="path4875"
         inkscape:connector-curvature="0" />
      <path
         d="m 48.709783,290.97513 q 0.01378,0 0.02239,0.002 0.01033,0 0.04306,0.002 l 0,0.50299 q -0.04651,-0.005 -0.08268,-0.007 -0.03617,-0.002 -0.05857,-0.002 -0.296279,0 -0.397909,0.19293 -0.05684,0.10852 -0.05684,0.33417 l 0,0.89745 -0.494371,0 0,-1.87758 0.468533,0 0,0.32729 q 0.113688,-0.18776 0.198093,-0.25666 0.137804,-0.11541 0.35829,-0.11541 z"
         style="font-style:normal;font-variant:normal;font-weight:bold;font-stretch:normal;font-size:3.52777767px;font-family:sans-serif;-inkscape-font-specification:'sans-serif Bold';text-align:start;text-anchor:start;fill:#ffffff;stroke-width:0.21967295px"
         id="path4877"
         inkscape:connector-curvature="0" />
      <path
         d="m 49.801877,291.37476 q -0.170532,0 -0.265272,0.1068 -0.09302,0.1068 -0.117133,0.28939 l 0.763088,0 q -0.01206,-0.19465 -0.118856,-0.29456 -0.105075,-0.10163 -0.261827,-0.10163 z m 0,-0.4048 q 0.234267,0 0.422024,0.0879 0.187758,0.0879 0.310059,0.27733 0.110243,0.16709 0.142971,0.38757 0.01895,0.1292 0.0155,0.37207 l -1.28502,0 q 0.01033,0.2825 0.177422,0.39619 0.10163,0.0706 0.244602,0.0706 0.151584,0 0.246324,-0.0861 0.05168,-0.0465 0.0913,-0.12919 l 0.501262,0 q -0.01895,0.16708 -0.173978,0.33934 -0.241156,0.27388 -0.675238,0.27388 -0.35829,0 -0.632175,-0.23082 -0.273886,-0.23082 -0.273886,-0.75103 0,-0.48748 0.246325,-0.74758 0.248047,-0.26011 0.64251,-0.26011 z m 0.03445,0 0,0 z"
         style="font-style:normal;font-variant:normal;font-weight:bold;font-stretch:normal;font-size:3.52777767px;font-family:sans-serif;-inkscape-font-specification:'sans-serif Bold';text-align:start;text-anchor:start;fill:#ffffff;stroke-width:0.21967295px"
         id="path4879"
         inkscape:connector-curvature="0" />
      <path
         d="m 52.129039,291.98454 q -0.04651,0.0293 -0.09474,0.0482 -0.04651,0.0172 -0.129191,0.0327 l -0.110243,0.0207 q -0.15503,0.0276 -0.222209,0.0672 -0.113688,0.0672 -0.113688,0.20843 0,0.12575 0.0689,0.18259 0.07062,0.0551 0.170532,0.0551 0.158474,0 0.291111,-0.093 0.134358,-0.093 0.139526,-0.33934 l 0,-0.18259 z m -0.298001,-0.2291 q 0.136081,-0.0172 0.194648,-0.0431 0.105075,-0.0448 0.105075,-0.13953 0,-0.11541 -0.08096,-0.15847 -0.07924,-0.0448 -0.234267,-0.0448 -0.173977,0 -0.246324,0.0861 -0.05168,0.0637 -0.0689,0.17225 l -0.473701,0 q 0.0155,-0.24632 0.137804,-0.40479 0.194648,-0.24805 0.668349,-0.24805 0.308336,0 0.54777,0.1223 0.239434,0.1223 0.239434,0.46164 l 0,0.86128 q 0,0.0896 0.0034,0.21704 0.0052,0.0965 0.02928,0.13091 0.02412,0.0344 0.07235,0.0568 l 0,0.0724 -0.533989,0 q -0.02239,-0.0568 -0.03101,-0.1068 -0.0086,-0.0499 -0.01378,-0.11368 -0.10163,0.11024 -0.234266,0.18775 -0.158475,0.0913 -0.35829,0.0913 -0.254937,0 -0.422024,-0.1447 -0.165365,-0.14641 -0.165365,-0.41341 0,-0.34623 0.266995,-0.50126 0.146417,-0.0844 0.430637,-0.12058 l 0.167087,-0.0207 z m 0.02584,-0.78548 0,0 z"
         style="font-style:normal;font-variant:normal;font-weight:bold;font-stretch:normal;font-size:3.52777767px;font-family:sans-serif;-inkscape-font-specification:'sans-serif Bold';text-align:start;text-anchor:start;fill:#ffffff;stroke-width:0.21967295px"
         id="path4881"
         inkscape:connector-curvature="0" />
    </g>
    <path
       style="color:#000000;font-style:normal;font-variant:normal;font-weight:normal;font-stretch:normal;font-size:medium;line-height:normal;font-family:sans-serif;text-indent:0;text-align:start;text-decoration:none;text-decoration-line:none;text-decoration-style:solid;text-decoration-color:#000000;letter-spacing:normal;word-spacing:normal;text-transform:none;direction:ltr;block-progression:tb;writing-mode:lr-tb;baseline-shift:baseline;text-anchor:start;white-space:normal;shape-padding:0;clip-rule:nonzero;display:inline;overflow:visible;visibility:visible;opacity:1;isolation:auto;mix-blend-mode:normal;color-interpolation:sRGB;color-interpolation-filters:linearRGB;solid-color:#000000;solid-opacity:1;fill:#000000;fill-opacity:1;fill-rule:evenodd;stroke:none;stroke-width:3.77952766;stroke-linecap:butt;stroke-linejoin:miter;stroke-miterlimit:4;stroke-dasharray:none;stroke-dashoffset:0;stroke-opacity:1;color-rendering:auto;image-rendering:auto;shape-rendering:auto;text-rendering:auto;enable-background:accumulate"
       d="M 0 20.787109 L 0 24.566406 L 0 34.015625 L 3.7792969 34.015625 L 3.7792969 24.566406 L 158.74023 24.566406 L 158.74023 34.015625 L 162.51953 34.015625 L 162.51953 24.566406 L 319.36914 24.566406 L 319.36914 34.015625 L 323.15039 34.015625 L 323.15039 24.566406 L 480 24.566406 L 480 34.015625 L 483.7793 34.015625 L 483.7793 24.566406 L 638.74023 24.566406 L 638.74023 34.015625 L 642.51953 34.015625 L 642.51953 24.566406 L 642.51953 22.677734 L 642.51953 20.787109 L 0 20.787109 z "
       transform="matrix(0.26458333,0,0,0.26458333,0,281)"
       id="path4233" />
    <text
       xml:space="preserve"
       style="font-style:normal;font-weight:normal;font-size:5.29166651px;line-height:125%;font-family:sans-serif;letter-spacing:0px;word-spacing:0px;fill:#000000;fill-opacity:1;stroke:none;stroke-width:0.26458332px;stroke-linecap:butt;stroke-linejoin:miter;stroke-opacity:1"
       x="-0.50642902"
       y="284.93927"
       id="text4245"
       sodipodi:linespacing="125%"><tspan
         sodipodi:role="line"
         id="tspan4247"
         x="-0.50642902"
         y="284.93927"
         style="stroke-width:0.26458332px">1</tspan></text>
    <text
       xml:space="preserve"
       style="font-style:normal;font-weight:normal;font-size:5.29166651px;line-height:125%;font-family:sans-serif;letter-spacing:0px;word-spacing:0px;fill:#000000;fill-opacity:1;stroke:none;stroke-width:0.26458332px;stroke-linecap:butt;stroke-linejoin:miter;stroke-opacity:1"
       x="41.055645"
       y="284.95349"
       id="text4249"
       sodipodi:linespacing="125%"><tspan
         sodipodi:role="line"
         id="tspan4251"
         x="41.055645"
         y="284.95349"
         style="stroke-width:0.26458332px">2</tspan></text>
    <text
       xml:space="preserve"
       style="font-style:normal;font-weight:normal;font-size:5.29166651px;line-height:125%;font-family:sans-serif;letter-spacing:0px;word-spacing:0px;fill:#000000;fill-opacity:1;stroke:none;stroke-width:0.26458332px;stroke-linecap:butt;stroke-linejoin:miter;stroke-opacity:1"
       x="83.580193"
       y="284.89923"
       id="text4253"
       sodipodi:linespacing="125%"><tspan
         sodipodi:role="line"
         id="tspan4255"
         x="83.580193"
         y="284.89923"
         style="stroke-width:0.26458332px">3</tspan></text>
    <text
       xml:space="preserve"
       style="font-style:normal;font-weight:normal;font-size:5.29166651px;line-height:125%;font-family:sans-serif;letter-spacing:0px;word-spacing:0px;fill:#000000;fill-opacity:1;stroke:none;stroke-width:0.26458332px;stroke-linecap:butt;stroke-linejoin:miter;stroke-opacity:1"
       x="126.04919"
       y="284.95221"
       id="text4257"
       sodipodi:linespacing="125%"><tspan
         sodipodi:role="line"
         id="tspan4259"
         x="126.04919"
         y="284.95221"
         style="stroke-width:0.26458332px">4</tspan></text>
    <text
       xml:space="preserve"
       style="font-style:normal;font-weight:normal;font-size:5.29166651px;line-height:125%;font-family:sans-serif;letter-spacing:0px;word-spacing:0px;fill:#000000;fill-opacity:1;stroke:none;stroke-width:0.26458332px;stroke-linecap:butt;stroke-linejoin:miter;stroke-opacity:1"
       x="167.28181"
       y="284.86951"
       id="text4261"
       sodipodi:linespacing="125%"><tspan
         sodipodi:role="line"
         id="tspan4263"
         x="167.28181"
         y="284.86951"
         style="stroke-width:0.26458332px">5</tspan></text>
  </g>
</svg>
