<?xml version="1.0" encoding="UTF-8" standalone="no"?>
<!-- Generator: Adobe Illustrator 16.0.0, SVG Export Plug-In . SVG Version: 6.00 Build 0)  -->

<svg
   xmlns:dc="http://purl.org/dc/elements/1.1/"
   xmlns:cc="http://creativecommons.org/ns#"
   xmlns:rdf="http://www.w3.org/1999/02/22-rdf-syntax-ns#"
   xmlns:svg="http://www.w3.org/2000/svg"
   xmlns="http://www.w3.org/2000/svg"
   xmlns:sodipodi="http://sodipodi.sourceforge.net/DTD/sodipodi-0.dtd"
   xmlns:inkscape="http://www.inkscape.org/namespaces/inkscape"
   version="1.1"
   id="Layer_1"
   x="0px"
   y="0px"
   width="64"
   height="64"
   viewBox="0 0 63.999997 64.000002"
   enable-background="new 0 0 266.893 266.895"
   xml:space="preserve"
   inkscape:version="0.91pre2+osxmenu r12795"
   sodipodi:docname="flogo.svg"><metadata
     id="metadata3039"><rdf:RDF><cc:Work
         rdf:about=""><dc:format>image/svg+xml</dc:format><dc:type
           rdf:resource="http://purl.org/dc/dcmitype/StillImage" /><dc:title /></cc:Work></rdf:RDF></metadata><defs
     id="defs3037" /><sodipodi:namedview
     pagecolor="#ffffff"
     bordercolor="#666666"
     borderopacity="1"
     objecttolerance="10"
     gridtolerance="10"
     guidetolerance="10"
     inkscape:pageopacity="0"
     inkscape:pageshadow="2"
     inkscape:window-width="1280"
     inkscape:window-height="751"
     id="namedview3035"
     showgrid="false"
     fit-margin-top="0"
     fit-margin-left="0"
     fit-margin-right="0"
     fit-margin-bottom="0"
     inkscape:zoom="8"
     inkscape:cx="27.237505"
     inkscape:cy="32.132032"
     inkscape:window-x="0"
     inkscape:window-y="23"
     inkscape:window-maximized="0"
     inkscape:current-layer="g3825" /><g
     id="g3041"
     transform="matrix(0.99333768,0,0,0.99332997,5.3671341e-6,-192.00001)"><g
       transform="matrix(0.25000001,0,0,0.25000001,-5.9005919e-6,193.28926)"
       id="g3825"
       style="fill:#ffffff"><path
         style="opacity:1;fill:#ffffff;fill-opacity:1;stroke:none;stroke-width:1;stroke-linecap:butt;stroke-linejoin:round;stroke-miterlimit:4;stroke-dasharray:none;stroke-dashoffset:0;stroke-opacity:1"
         d="M 37.865234 16 C 31.351775 16 26.908203 19.987771 26.908203 27.289062 L 26.908203 33.582031 L 19.537109 33.582031 L 19.537109 42.111328 L 26.908203 42.111328 L 26.908203 63.552734 A 31.999999 32.000001 0 0 0 32 64 A 31.999999 32.000001 0 0 0 35.712891 63.744141 L 35.712891 42.111328 L 43.054688 42.111328 L 44.158203 33.582031 L 35.712891 33.582031 L 35.712891 28.117188 C 35.712891 25.647156 36.393558 23.976563 39.935547 23.976562 L 44.462891 23.976562 L 44.462891 16.332031 C 43.681581 16.228062 40.985206 16 37.865234 16 z "
         transform="matrix(4.026828,0,0,4.0268592,-8.0772281e-6,-1.947841e-5)"
         id="path4328" /></g></g></svg>