<?xml version="1.0" encoding="UTF-8" standalone="no"?>
<!-- Created with Inkscape (http://www.inkscape.org/) -->

<svg
   xmlns:dc="http://purl.org/dc/elements/1.1/"
   xmlns:cc="http://creativecommons.org/ns#"
   xmlns:rdf="http://www.w3.org/1999/02/22-rdf-syntax-ns#"
   xmlns:svg="http://www.w3.org/2000/svg"
   xmlns="http://www.w3.org/2000/svg"
   xmlns:sodipodi="http://sodipodi.sourceforge.net/DTD/sodipodi-0.dtd"
   xmlns:inkscape="http://www.inkscape.org/namespaces/inkscape"
   width="12"
   height="8"
   id="svg4325"
   version="1.1"
   inkscape:version="0.91pre2+osxmenu r12795"
   viewBox="0 0 12 8.0000001"
   sodipodi:docname="house.svg">
  <defs
     id="defs4327" />
  <sodipodi:namedview
     id="base"
     pagecolor="#ffffff"
     bordercolor="#666666"
     borderopacity="1.0"
     inkscape:pageopacity="0.0"
     inkscape:pageshadow="2"
     inkscape:zoom="22.627417"
     inkscape:cx="4.3627547"
     inkscape:cy="2.4363468"
     inkscape:document-units="px"
     inkscape:current-layer="layer1"
     showgrid="false"
     units="px"
     inkscape:window-width="960"
     inkscape:window-height="600"
     inkscape:window-x="0"
     inkscape:window-y="23"
     inkscape:window-maximized="0">
    <inkscape:grid
       type="xygrid"
       id="grid4873"
       spacingx="0.5px"
       spacingy="0.5px"
       empspacing="4" />
  </sodipodi:namedview>
  <metadata
     id="metadata4330">
    <rdf:RDF>
      <cc:Work
         rdf:about="">
        <dc:format>image/svg+xml</dc:format>
        <dc:type
           rdf:resource="http://purl.org/dc/dcmitype/StillImage" />
        <dc:title></dc:title>
      </cc:Work>
    </rdf:RDF>
  </metadata>
  <g
     inkscape:label="Laag 1"
     inkscape:groupmode="layer"
     id="layer1"
     transform="translate(0,-1044.3622)">
    <path
       style="color:#000000;font-style:normal;font-variant:normal;font-weight:normal;font-stretch:normal;font-size:medium;line-height:normal;font-family:sans-serif;text-indent:0;text-align:start;text-decoration:none;text-decoration-line:none;text-decoration-style:solid;text-decoration-color:#000000;letter-spacing:normal;word-spacing:normal;text-transform:none;direction:ltr;block-progression:tb;writing-mode:lr-tb;baseline-shift:baseline;text-anchor:start;clip-rule:nonzero;display:inline;overflow:visible;visibility:visible;opacity:1;isolation:auto;mix-blend-mode:normal;color-interpolation:sRGB;color-interpolation-filters:linearRGB;solid-color:#000000;solid-opacity:1;fill:#222222;fill-opacity:1;fill-rule:evenodd;stroke:none;stroke-width:1px;stroke-linecap:round;stroke-linejoin:round;stroke-miterlimit:4;stroke-dasharray:none;stroke-dashoffset:0;stroke-opacity:1;color-rendering:auto;image-rendering:auto;shape-rendering:auto;text-rendering:auto;enable-background:accumulate"
       d="M 5.9824219 0.001953125 A 0.50004999 0.50004999 0 0 0 5.7324219 0.076171875 L 0.23242188 3.5761719 A 0.50004999 0.50004999 0 1 0 0.76757812 4.4199219 L 1 4.2714844 L 1 8 L 11 8 L 11 4.2734375 L 11.232422 4.421875 A 0.50004999 0.50004999 0 1 0 11.767578 3.578125 L 6.2675781 0.078125 A 0.50004999 0.50004999 0 0 0 5.9824219 0.001953125 z M 6 1.09375 L 10 3.6386719 L 10 7 L 8.4433594 7 C 8.6219657 6.1217402 8.3240716 5.1872642 7.6074219 4.5859375 C 7.1439978 4.1970375 6.5717717 4.0019531 6 4.0019531 C 5.4282283 4.0019531 4.8560022 4.1970375 4.3925781 4.5859375 C 3.6759284 5.1872642 3.3780343 6.1217402 3.5566406 7 L 2 7 L 2 3.6367188 L 6 1.09375 z M 6 4.9980469 C 6.3423774 4.9980469 6.6847548 5.1165125 6.9648438 5.3515625 C 7.4546686 5.762535 7.6005677 6.4174148 7.390625 7 L 4.609375 7 C 4.3994323 6.4174148 4.5453314 5.762535 5.0351562 5.3515625 C 5.3152452 5.1165125 5.6576226 4.9980469 6 4.9980469 z "
       transform="translate(-7.5e-8,1044.3622)"
       id="path4880" />
  </g>
</svg>
