<?xml version="1.0" encoding="UTF-8" standalone="no"?>
<svg
   xmlns:dc="http://purl.org/dc/elements/1.1/"
   xmlns:cc="http://creativecommons.org/ns#"
   xmlns:rdf="http://www.w3.org/1999/02/22-rdf-syntax-ns#"
   xmlns:svg="http://www.w3.org/2000/svg"
   xmlns="http://www.w3.org/2000/svg"
   xmlns:sodipodi="http://sodipodi.sourceforge.net/DTD/sodipodi-0.dtd"
   xmlns:inkscape="http://www.inkscape.org/namespaces/inkscape"
   height="64"
   width="64"
   version="1.0"
   id="svg2"
   inkscape:version="0.91pre2+osxmenu r12795"
   sodipodi:docname="llogod.svg">
  <metadata
     id="metadata21">
    <rdf:RDF>
      <cc:Work
         rdf:about="">
        <dc:format>image/svg+xml</dc:format>
        <dc:type
           rdf:resource="http://purl.org/dc/dcmitype/StillImage" />
        <dc:title />
      </cc:Work>
    </rdf:RDF>
  </metadata>
  <sodipodi:namedview
     pagecolor="#ffffff"
     bordercolor="#666666"
     borderopacity="1"
     objecttolerance="10"
     gridtolerance="10"
     guidetolerance="10"
     inkscape:pageopacity="0"
     inkscape:pageshadow="2"
     inkscape:window-width="1280"
     inkscape:window-height="751"
     id="namedview19"
     showgrid="false"
     fit-margin-top="0"
     fit-margin-left="0"
     fit-margin-right="0"
     fit-margin-bottom="0"
     inkscape:zoom="9.1875"
     inkscape:cx="19.374149"
     inkscape:cy="32"
     inkscape:window-x="0"
     inkscape:window-y="23"
     inkscape:window-maximized="0"
     inkscape:current-layer="g2998" />
  <defs
     id="defs4">
    <linearGradient
       id="linearGradient3003"
       y2="425.39999"
       gradientUnits="userSpaceOnUse"
       x2="-395.85001"
       gradientTransform="matrix(-0.50335197,0,0,0.50335205,-148.17928,-158.80197)"
       y1="425.01321"
       x1="-396.23526">
      <stop
         stop-color="#FFF"
         offset="0"
         id="stop7" />
      <stop
         stop-color="#FFF"
         stop-opacity="0"
         offset="1"
         id="stop9" />
    </linearGradient>
  </defs>
  <g
     id="g2998"
     transform="matrix(0.32,0,0,0.32003201,0,-0.00359191)">
    <path
       style="fill:#222222;fill-opacity:1"
       d="m 62.126987,52.210518 c 7.333311,0 11.849084,4.81456 11.988392,11.142719 0,6.188511 -4.65637,11.13839 -12.131317,11.13839 l -0.138594,0 C 54.651736,74.491627 50,69.542103 50,63.353237 50,57.02515 54.79467,52.210518 62.126987,52.210518 Z m 63.194593,29.578225 c 14.10334,0 24.67842,9.214651 24.67842,29.023917 l 0,36.97926 -21.43445,0 0,-34.49782 c 0,-8.66971 -3.10565,-14.585566 -10.86232,-14.585566 -5.92148,0 -9.44694,3.987356 -10.99657,7.838436 -0.56602,1.37784 -0.70596,3.30392 -0.70596,5.2314 l 0,36.01355 -21.434456,0 c 0,0 0.281293,-58.440296 0,-64.491785 l 21.434456,0 0,9.141969 c 2.84644,-4.39524 7.93395,-10.653361 19.32088,-10.653361 z m -74.056907,1.515723 21.434447,0 0,64.487454 -21.434447,0 z"
       id="rect11"
       inkscape:connector-curvature="0"
       sodipodi:nodetypes="scssssssccsscscccccsccccc" />
  </g>
</svg>
