<?xml version="1.0" encoding="UTF-8" standalone="no"?>
<svg
   xmlns:dc="http://purl.org/dc/elements/1.1/"
   xmlns:cc="http://creativecommons.org/ns#"
   xmlns:rdf="http://www.w3.org/1999/02/22-rdf-syntax-ns#"
   xmlns:svg="http://www.w3.org/2000/svg"
   xmlns="http://www.w3.org/2000/svg"
   xmlns:sodipodi="http://sodipodi.sourceforge.net/DTD/sodipodi-0.dtd"
   xmlns:inkscape="http://www.inkscape.org/namespaces/inkscape"
   width="640"
   height="320"
   version="1.1"
   viewBox="0 0 640 320"
   id="svg4342"
   inkscape:version="0.91pre2+osxmenu r12795"
   sodipodi:docname="logo_full.svg">
  <metadata
     id="metadata4362">
    <rdf:RDF>
      <cc:Work
         rdf:about="">
        <dc:format>image/svg+xml</dc:format>
        <dc:type
           rdf:resource="http://purl.org/dc/dcmitype/StillImage" />
        <dc:title />
      </cc:Work>
    </rdf:RDF>
  </metadata>
  <defs
     id="defs4360" />
  <sodipodi:namedview
     pagecolor="#ffffff"
     bordercolor="#666666"
     borderopacity="1"
     objecttolerance="10"
     gridtolerance="10"
     guidetolerance="10"
     inkscape:pageopacity="0"
     inkscape:pageshadow="2"
     inkscape:window-width="1280"
     inkscape:window-height="751"
     id="namedview4358"
     showgrid="true"
     inkscape:zoom="2"
     inkscape:cx="409.82846"
     inkscape:cy="120.24985"
     inkscape:window-x="0"
     inkscape:window-y="23"
     inkscape:window-maximized="0"
     inkscape:current-layer="g5286">
    <inkscape:grid
       type="xygrid"
       id="grid4904"
       empspacing="4"
       dotted="false" />
  </sodipodi:namedview>
  <g
     transform="translate(-19,-519)"
     id="g4344">
    <g
       transform="matrix(1.5,0,0,1.5,-35.5,-407.18115)"
       id="g4346">
      <g
         id="g4943"
         transform="translate(59.813475,-5.8239044)">
        <g
           id="g4956"
           transform="translate(2.1258719e-7,1.3334296)">
          <path
             inkscape:connector-curvature="0"
             style="fill:#eedd33"
             d="m 81.646364,761.46008 c -3.2,0 -17.600003,-26.67358 -19.200003,-29.90674 -1.6,-3.23316 -14.400003,-30.94598 -12.800003,-34.17914 1.6,-3.23316 28.800006,-4.27239 32.000006,-4.27239 3.2,0 30.400006,1.03923 32.000006,4.27239 1.6,3.23316 -11.2,30.94598 -12.8,34.17914 -1.600003,3.23316 -16.000006,29.90674 -19.200006,29.90674 z"
             id="path4348" />
          <path
             inkscape:connector-curvature="0"
             style="fill:#ff1122"
             d="m 113.64639,761.46008 c -3.2,0 -17.600003,-26.67358 -19.200003,-29.90674 -1.6,-3.23316 -14.400003,-30.94598 -12.800003,-34.17914 1.6,-3.23316 28.800006,-4.27239 32.000006,-4.27239 3.2,0 30.4,1.03923 32,4.27239 1.6,3.23316 -11.2,30.94598 -12.8,34.17914 -1.6,3.23316 -16,29.90674 -19.2,29.90674 z"
             id="path4350" />
          <path
             inkscape:connector-curvature="0"
             style="fill:#1188ff"
             d="m 169.66669,721.45418 a 24,24 0 0 1 -24,24 24,24 0 0 1 -24,-24 24,24 0 0 1 24,-24 24,24 0 0 1 24,24 z"
             id="path4352" />
          <path
             inkscape:connector-curvature="0"
             id="path4914"
             d="m 97.645847,693.97622 c -7.6063,0.65957 -15.178393,1.73819 -16.000003,3.39843 -1.6,3.23316 11.200783,30.94523 12.800783,34.17839 0.39754,0.80331 1.58946,3.06217 3.19922,5.99088 1.60994,-2.92901 2.802963,-5.18752 3.200523,-5.99088 1.6,-3.23316 14.39948,-30.94523 12.79948,-34.17839 -0.82165,-1.66033 -8.39326,-2.73887 -16.000003,-3.39843 z"
             style="fill:#ff7733;fill-opacity:1" />
          <path
             style="fill:#885588;fill-opacity:1"
             d="m 145.66668,697.45408 a 24,24 0 0 0 -24,24 24,24 0 0 0 7.33854,17.23828 c 1.91187,-3.45255 3.39569,-6.23917 3.84115,-7.13932 1.58933,-3.2116 14.22263,-30.56525 12.82292,-34.09896 a 24,24 0 0 0 -0.003,0 z"
             id="path4923"
             inkscape:connector-curvature="0" />
          <g
             style="font-style:normal;font-variant:normal;font-weight:normal;font-stretch:normal;font-size:34.3000679px;line-height:125%;font-family:'Gill Sans';-inkscape-font-specification:'Gill Sans';letter-spacing:0.83999997px;word-spacing:0px;fill:#000000;fill-opacity:1;stroke:none;stroke-width:1px;stroke-linecap:butt;stroke-linejoin:miter;stroke-opacity:1"
             id="text4931">
            <path
               d="m 212.70737,697.78909 3.33286,0 -9.46266,23.49756 -0.72017,0 -7.65387,-19.02582 -7.72087,19.02582 -0.72016,0 -9.42917,-23.49756 3.36636,0 6.44801,16.1284 6.48151,-16.1284 3.18214,0 6.515,16.1284 6.38102,-16.1284 z"
               style="letter-spacing:0.83999997px;fill:#000000;fill-opacity:1"
               id="path5027"
               inkscape:connector-curvature="0" />
            <path
               d="m 229.67577,697.45413 q 5.42638,0 9.02721,3.43335 3.61759,3.43336 3.61759,8.60852 0,5.17515 -3.65108,8.57501 -3.63434,3.38312 -9.17795,3.38312 -5.2924,0 -8.82624,-3.38312 -3.5171,-3.39986 -3.5171,-8.50802 0,-5.24215 3.5506,-8.67551 3.55059,-3.43335 8.97697,-3.43335 z m 0.13398,3.18213 q -4.01954,0 -6.61549,2.51222 -2.5792,2.51221 -2.5792,6.41451 0,3.78507 2.59595,6.29728 2.59595,2.51221 6.49825,2.51221 3.91905,0 6.53175,-2.56246 2.62945,-2.56245 2.62945,-6.38101 0,-3.71808 -2.62945,-6.24704 -2.6127,-2.54571 -6.43126,-2.54571 z"
               style="letter-spacing:0.83999997px;fill:#000000;fill-opacity:1"
               id="path5029"
               inkscape:connector-curvature="0" />
            <path
               d="m 263.57648,697.78909 3.36636,0 0,13.28123 q 0,2.69644 -0.40195,4.06978 -0.38521,1.37334 -0.97139,2.29449 -0.56944,0.90439 -1.40684,1.62456 -2.78018,2.39498 -7.26867,2.39498 -4.57222,0 -7.33566,-2.37823 -0.8374,-0.73692 -1.42358,-1.64131 -0.56944,-0.92115 -0.95464,-2.24425 -0.36846,-1.32309 -0.36846,-4.15352 l 0,-13.24773 3.36636,0 0,13.28123 q 0,3.29937 0.75367,4.58897 0.75366,1.2896 2.29448,2.07676 1.54083,0.77041 3.63434,0.77041 2.98116,0 4.85694,-1.55757 0.98814,-0.8374 1.42359,-1.97627 0.43545,-1.13887 0.43545,-3.9023 l 0,-13.28123 z"
               style="letter-spacing:0.83999997px;fill:#000000;fill-opacity:1"
               id="path5031"
               inkscape:connector-curvature="0" />
            <path
               d="m 270.46253,697.75559 19.54501,0 0,2.98116 -8.15631,0 0,20.44941 -3.36637,0 0,-20.44941 -8.02233,0 0,-2.98116 z"
               style="letter-spacing:0.83999997px;fill:#000000;fill-opacity:1"
               id="path5033"
               inkscape:connector-curvature="0" />
            <path
               d="m 293.99618,697.78909 13.26448,0 0,2.98116 -9.91486,0 0,7.13468 9.5799,0 0,2.99791 -9.5799,0 0,7.26866 10.23307,0 0,2.98116 -13.58269,0 0,-23.36357 z"
               style="letter-spacing:0.83999997px;fill:#000000;fill-opacity:1"
               id="path5035"
               inkscape:connector-curvature="0" />
            <path
               d="m 312.08671,721.18616 0,-23.39707 5.86182,0 q 3.5506,0 5.62736,1.75855 2.09351,1.75855 2.09351,4.75645 0,2.04327 -1.02163,3.53385 -1.02164,1.49058 -2.93092,2.22749 1.12212,0.73692 2.194,2.00977 1.07188,1.27286 3.01465,4.43824 1.22261,1.99302 1.95953,2.99791 l 1.23936,1.67481 -3.98605,0 -1.02163,-1.54083 q -0.0502,-0.0837 -0.20097,-0.28471 l -0.65318,-0.92115 -1.03838,-1.7083 -1.12212,-1.82554 q -1.03838,-1.44034 -1.90928,-2.29449 -0.85416,-0.85415 -1.55757,-1.22261 -0.68668,-0.38521 -2.32799,-0.38521 l -0.8709,0 0,10.18284 -3.34961,0 z m 4.3545,-20.5499 -1.00489,0 0,7.38591 1.27286,0 q 2.5457,0 3.4836,-0.43545 0.95464,-0.43545 1.47383,-1.30635 0.53594,-0.88765 0.53594,-2.00977 0,-1.10538 -0.58619,-1.99303 -0.58618,-0.90439 -1.65806,-1.27285 -1.05513,-0.36846 -3.51709,-0.36846 z"
               style="letter-spacing:0.83999997px;fill:#000000;fill-opacity:1"
               id="path5037"
               inkscape:connector-curvature="0" />
            <g
               id="g5286"
               transform="translate(-4.8471304,-11.256769)">
              <path
                 inkscape:connector-curvature="0"
                 d="m 192.17992,763.57751 -3.09985,7.79261 -0.19168,0 -3.70793,-9.32601 0.73365,0 3.05359,7.66041 3.09986,-7.66041 0.21811,0 3.08664,7.66041 3.0602,-7.66041 0.73366,0 -3.71454,9.32601 -0.17185,0 -3.09986,-7.79261 z"
                 style="font-style:normal;font-variant:normal;font-weight:100;font-stretch:normal;font-size:medium;line-height:125%;font-family:'Gill Sans';-inkscape-font-specification:'Gill Sans';letter-spacing:0px;word-spacing:0px;fill:#000000;fill-opacity:1;stroke:none;stroke-width:1px;stroke-linecap:butt;stroke-linejoin:miter;stroke-opacity:1"
                 id="path4351" />
              <path
                 inkscape:connector-curvature="0"
                 d="m 205.17421,768.01249 -4.79189,0 q -0.0198,0.15863 -0.0198,0.31725 0,1.01787 0.72704,1.72508 0.72705,0.70722 1.71847,0.70722 1.15667,0 2.26045,-0.9055 l 0,0.73365 q -1.0443,0.80636 -2.33976,0.80636 -1.31529,0 -2.17453,-0.91211 -0.85923,-0.91211 -0.85923,-2.31993 0,-1.33512 0.79314,-2.20758 0.79314,-0.87906 1.99607,-0.87906 1.13022,0 1.91014,0.79314 0.77993,0.78653 0.77993,2.14148 z m -4.70597,-0.52215 3.93926,0 q -0.34369,-1.77796 -1.92336,-1.77796 -0.74688,0 -1.29546,0.46928 -0.54198,0.46266 -0.72044,1.30868 z"
                 style="font-style:normal;font-variant:normal;font-weight:100;font-stretch:normal;font-size:medium;line-height:125%;font-family:'Gill Sans';-inkscape-font-specification:'Gill Sans';letter-spacing:0px;word-spacing:0px;fill:#000000;fill-opacity:1;stroke:none;stroke-width:1px;stroke-linecap:butt;stroke-linejoin:miter;stroke-opacity:1"
                 id="path4353" />
              <path
                 inkscape:connector-curvature="0"
                 d="m 206.46967,770.9405 0,-8.89639 0.64773,0 0,4.02518 q 0.9716,-0.99142 2.19436,-0.99142 1.1897,0 1.94979,0.8328 0.76009,0.82618 0.76009,2.13487 0,1.52018 -0.93194,2.4389 -0.92533,0.91211 -2.46533,0.91211 -1.01126,0 -2.1547,-0.45605 z m 0.64773,-4.14416 0,3.68149 q 0.75348,0.28421 1.49375,0.28421 1.17648,0 1.94318,-0.75348 0.77331,-0.76009 0.77331,-1.92337 0,-1.07735 -0.59485,-1.77134 -0.59486,-0.694 -1.50035,-0.694 -1.08396,0 -2.11504,1.17649 z"
                 style="font-style:normal;font-variant:normal;font-weight:100;font-stretch:normal;font-size:medium;line-height:125%;font-family:'Gill Sans';-inkscape-font-specification:'Gill Sans';letter-spacing:0px;word-spacing:0px;fill:#000000;fill-opacity:1;stroke:none;stroke-width:1px;stroke-linecap:butt;stroke-linejoin:miter;stroke-opacity:1"
                 id="path4355" />
              <path
                 inkscape:connector-curvature="0"
                 d="m 218.61132,762.04411 0,9.23347 -0.65435,0 0,-0.47588 q -0.83279,0.59485 -1.79778,0.59485 -1.29546,0 -2.18775,-0.91211 -0.88567,-0.91872 -0.88567,-2.25384 0,-1.35495 0.87245,-2.25384 0.87907,-0.89889 2.20097,-0.89889 0.83941,0 1.79778,0.4891 l 0,-3.52286 0.65435,0 z m -0.65435,8.16273 0,-3.92604 q -0.87245,-0.56842 -1.77134,-0.56842 -1.05091,0 -1.73169,0.70061 -0.68078,0.694 -0.68078,1.77795 0,1.10379 0.72704,1.83745 0.72705,0.73365 1.81762,0.73365 0.84601,0 1.63915,-0.5552 z"
                 style="font-style:normal;font-variant:normal;font-weight:100;font-stretch:normal;font-size:medium;line-height:125%;font-family:'Gill Sans';-inkscape-font-specification:'Gill Sans';letter-spacing:0px;word-spacing:0px;fill:#000000;fill-opacity:1;stroke:none;stroke-width:1px;stroke-linecap:butt;stroke-linejoin:miter;stroke-opacity:1"
                 id="path4357" />
              <path
                 inkscape:connector-curvature="0"
                 d="m 225.45215,768.01249 -4.79189,0 q -0.0198,0.15863 -0.0198,0.31725 0,1.01787 0.72704,1.72508 0.72705,0.70722 1.71847,0.70722 1.15666,0 2.26045,-0.9055 l 0,0.73365 q -1.0443,0.80636 -2.33976,0.80636 -1.31529,0 -2.17453,-0.91211 -0.85923,-0.91211 -0.85923,-2.31993 0,-1.33512 0.79314,-2.20758 0.79314,-0.87906 1.99607,-0.87906 1.13022,0 1.91014,0.79314 0.77992,0.78653 0.77992,2.14148 z m -4.70596,-0.52215 3.93926,0 q -0.34369,-1.77796 -1.92336,-1.77796 -0.74688,0 -1.29547,0.46928 -0.54198,0.46266 -0.72043,1.30868 z"
                 style="font-style:normal;font-variant:normal;font-weight:100;font-stretch:normal;font-size:medium;line-height:125%;font-family:'Gill Sans';-inkscape-font-specification:'Gill Sans';letter-spacing:0px;word-spacing:0px;fill:#000000;fill-opacity:1;stroke:none;stroke-width:1px;stroke-linecap:butt;stroke-linejoin:miter;stroke-opacity:1"
                 id="path4359" />
              <path
                 inkscape:connector-curvature="0"
                 d="m 230.09202,765.59341 0,0.70061 q -0.92533,-0.6213 -1.66559,-0.6213 -0.54859,0 -0.92533,0.29743 -0.37675,0.29743 -0.37675,0.73366 0,0.31064 0.22473,0.57502 0.23133,0.25777 1.26241,0.65434 1.03769,0.39657 1.35495,0.82619 0.31726,0.42962 0.31726,0.95838 0,0.70722 -0.57503,1.19632 -0.57503,0.48249 -1.42104,0.48249 -0.91872,0 -1.82423,-0.55519 l 0,-0.63452 q 1.07735,0.5552 1.91015,0.5552 0.56181,0 0.91872,-0.29743 0.36352,-0.29742 0.36352,-0.76009 0,-0.31726 -0.23794,-0.58164 -0.23133,-0.27098 -1.26902,-0.68077 -1.03108,-0.40979 -1.34173,-0.80636 -0.30404,-0.40318 -0.30404,-0.89229 0,-0.69399 0.56842,-1.17649 0.57503,-0.4891 1.3946,-0.4891 0.74688,0 1.62594,0.51554 z"
                 style="font-style:normal;font-variant:normal;font-weight:100;font-stretch:normal;font-size:medium;line-height:125%;font-family:'Gill Sans';-inkscape-font-specification:'Gill Sans';letter-spacing:0px;word-spacing:0px;fill:#000000;fill-opacity:1;stroke:none;stroke-width:1px;stroke-linecap:butt;stroke-linejoin:miter;stroke-opacity:1"
                 id="path4361" />
              <path
                 inkscape:connector-curvature="0"
                 d="m 232.29299,762.04411 0,1.11039 -0.65434,0 0,-1.11039 0.65434,0 z m 0,3.15273 0,6.08074 -0.65434,0 0,-6.08074 0.65434,0 z"
                 style="font-style:normal;font-variant:normal;font-weight:100;font-stretch:normal;font-size:medium;line-height:125%;font-family:'Gill Sans';-inkscape-font-specification:'Gill Sans';letter-spacing:0px;word-spacing:0px;fill:#000000;fill-opacity:1;stroke:none;stroke-width:1px;stroke-linecap:butt;stroke-linejoin:miter;stroke-opacity:1"
                 id="path4363" />
              <path
                 inkscape:connector-curvature="0"
                 d="m 238.87605,765.19684 0,0.52876 -1.38138,0 q 0.8394,0.7667 0.8394,1.61272 0,0.76009 -0.33047,1.20293 -0.32387,0.44284 -0.77992,0.64773 -0.44945,0.19828 -1.20293,0.39657 -0.75349,0.19168 -0.94516,0.36352 -0.19168,0.17185 -0.19168,0.39657 0,0.26438 0.24455,0.42301 0.25116,0.15863 1.54002,0.23133 1.29546,0.0727 1.74491,0.49572 0.44944,0.423 0.44944,1.12361 0,0.82619 -0.72043,1.29546 -0.72044,0.47589 -2.00268,0.47589 -1.27564,0 -1.96963,-0.44945 -0.694,-0.44283 -0.694,-1.17649 0,-1.18971 1.77134,-1.47392 l 0,-0.0264 q -0.98481,-0.23133 -0.98481,-0.86584 0,-0.64112 1.21615,-0.99143 l 0,-0.0264 q -0.79975,-0.23795 -1.21615,-0.78654 -0.40979,-0.55519 -0.40979,-1.22936 0,-0.95838 0.66756,-1.55985 0.66756,-0.60807 1.91676,-0.60807 l 2.4389,0 z m -2.78921,3.78064 q 0.66756,0 1.14345,-0.47589 0.48249,-0.48249 0.48249,-1.15005 0,-0.66756 -0.48249,-1.13684 -0.47589,-0.47588 -1.15667,-0.47588 -0.67417,0 -1.13683,0.46266 -0.46267,0.46267 -0.46267,1.12362 0,0.68739 0.46928,1.16988 0.46927,0.4825 1.14344,0.4825 z m 0.0925,4.8712 q 0.94516,0 1.50036,-0.32387 0.56181,-0.32386 0.56181,-0.85262 0,-1.07074 -1.93658,-1.07074 -2.20758,0 -2.20758,1.12361 0,1.12362 2.08199,1.12362 z"
                 style="font-style:normal;font-variant:normal;font-weight:100;font-stretch:normal;font-size:medium;line-height:125%;font-family:'Gill Sans';-inkscape-font-specification:'Gill Sans';letter-spacing:0px;word-spacing:0px;fill:#000000;fill-opacity:1;stroke:none;stroke-width:1px;stroke-linecap:butt;stroke-linejoin:miter;stroke-opacity:1"
                 id="path4365" />
              <path
                 inkscape:connector-curvature="0"
                 d="m 240.5086,765.19684 0,1.05752 0.0264,0 q 0.76009,-1.17649 2.00268,-1.17649 1.03108,0 1.64576,0.66095 0.61469,0.66095 0.61469,1.83083 l 0,3.70793 -0.64773,0 0,-3.46338 q 0,-2.10182 -1.65238,-2.10182 -1.20954,0 -1.98946,1.30207 l 0,4.26313 -0.64773,0 0,-6.08074 0.64773,0 z"
                 style="font-style:normal;font-variant:normal;font-weight:100;font-stretch:normal;font-size:medium;line-height:125%;font-family:'Gill Sans';-inkscape-font-specification:'Gill Sans';letter-spacing:0px;word-spacing:0px;fill:#000000;fill-opacity:1;stroke:none;stroke-width:1px;stroke-linecap:butt;stroke-linejoin:miter;stroke-opacity:1"
                 id="path4367" />
            </g>
          </g>
          <g
             style="font-style:normal;font-variant:normal;font-weight:normal;font-stretch:normal;font-size:27.20948982px;line-height:125%;font-family:'Gill Sans';-inkscape-font-specification:'Gill Sans';letter-spacing:0px;word-spacing:0px;fill:#000000;fill-opacity:1;stroke:none;stroke-width:1px;stroke-linecap:butt;stroke-linejoin:miter;stroke-opacity:1"
             id="text4935"
             transform="translate(-3.5052778e-7,1.4666668e-6)">
            <path
               d="m 180.33334,745.4541 0,-18.56038 4.65006,0 q 2.8166,0 4.46405,1.39502 1.66074,1.39502 1.66074,3.77319 0,1.62088 -0.81044,2.80332 -0.81044,1.18245 -2.32503,1.76702 0.89015,0.58458 1.74045,1.59431 0.8503,1.00973 2.39146,3.52076 0.96987,1.58102 1.55445,2.37817 l 0.98315,1.32859 -3.16204,0 -0.81044,-1.2223 q -0.0399,-0.0664 -0.15943,-0.22586 l -0.51815,-0.73072 -0.82372,-1.35516 -0.89015,-1.44816 q -0.82373,-1.14259 -1.5146,-1.82017 -0.67758,-0.67758 -1.23558,-0.96987 -0.54472,-0.30558 -1.84674,-0.30558 l -0.69087,0 0,8.07782 -2.65717,0 z m 3.45433,-16.30178 -0.79716,0 0,5.85908 1.00973,0 q 2.01946,0 2.76346,-0.34544 0.7573,-0.34543 1.16916,-1.03629 0.42515,-0.70416 0.42515,-1.59431 0,-0.87687 -0.465,-1.58102 -0.46501,-0.71744 -1.31531,-1.00973 -0.83701,-0.29229 -2.79003,-0.29229 z"
               id="path5008"
               inkscape:connector-curvature="0" />
            <path
               d="m 202.60048,726.78743 1.87331,0 8.30368,18.66667 -2.72361,0 -2.47118,-5.50035 -7.89181,0 -2.33832,5.50035 -2.7236,0 7.97153,-18.66667 z m 3.89276,10.80143 -2.98932,-6.72266 -2.77675,6.72266 5.76607,0 z"
               id="path5010"
               inkscape:connector-curvature="0" />
            <path
               d="m 220.77557,726.78743 1.87331,0 8.30368,18.66667 -2.72361,0 -2.47117,-5.50035 -7.89182,0 -2.33831,5.50035 -2.72361,0 7.97153,-18.66667 z m 3.89276,10.80143 -2.98932,-6.72266 -2.77675,6.72266 5.76607,0 z"
               id="path5012"
               inkscape:connector-curvature="0" />
            <path
               d="m 228.73381,726.86715 15.50463,0 0,2.36489 -6.47023,0 0,16.22206 -2.67046,0 0,-16.22206 -6.36394,0 0,-2.36489 z"
               id="path5014"
               inkscape:connector-curvature="0" />
            <path
               d="m 246.73618,726.89372 10.52242,0 0,2.36489 -7.86524,0 0,5.65979 7.59952,0 0,2.37817 -7.59952,0 0,5.76607 8.11767,0 0,2.36489 -10.77485,0 0,-18.53381 z"
               id="path5016"
               inkscape:connector-curvature="0" />
            <path
               d="m 260.34093,726.89372 2.65718,0 0,16.14235 8.35682,0 0,2.41803 -11.014,0 0,-18.56038 z"
               id="path5018"
               inkscape:connector-curvature="0" />
            <path
               d="m 279.60546,726.78743 1.87331,0 8.30367,18.66667 -2.7236,0 -2.47118,-5.50035 -7.89181,0 -2.33832,5.50035 -2.7236,0 7.97153,-18.66667 z m 3.89276,10.80143 -2.98932,-6.72266 -2.77675,6.72266 5.76607,0 z"
               id="path5020"
               inkscape:connector-curvature="0" />
            <path
               d="m 306.60238,726.89372 2.52432,0 0,18.56038 -2.28518,0 -12.40901,-14.28232 0,14.28232 -2.49775,0 0,-18.56038 2.15232,0 12.5153,14.4019 0,-14.4019 z"
               id="path5022"
               inkscape:connector-curvature="0" />
            <path
               d="m 313.13903,745.42753 0,-18.53381 6.25766,0 q 3.78647,0 5.99193,1.14259 2.20546,1.1293 3.50747,3.33475 1.30202,2.20546 1.30202,4.80949 0,1.86003 -0.71744,3.56062 -0.71744,1.70059 -2.04602,2.98933 -1.35516,1.32858 -3.14876,2.00616 -1.04958,0.41187 -1.92645,0.55801 -0.87687,0.13286 -3.34804,0.13286 l -5.87237,0 z m 5.97865,-16.16892 -3.32147,0 0,13.80403 3.40119,0 q 1.99288,0 3.09561,-0.26572 1.10273,-0.279 1.83345,-0.69086 0.74401,-0.42515 1.35516,-1.0363 1.96631,-1.99288 1.96631,-5.03535 0,-2.98932 -2.01945,-4.87592 -0.74401,-0.70415 -1.71388,-1.15587 -0.95659,-0.45172 -1.82017,-0.59787 -0.86358,-0.14614 -2.77675,-0.14614 z"
               id="path5024"
               inkscape:connector-curvature="0" />
          </g>
        </g>
      </g>
    </g>
  </g>
</svg>
