<?xml version="1.0" encoding="UTF-8" standalone="no"?>
<svg
   xmlns:dc="http://purl.org/dc/elements/1.1/"
   xmlns:cc="http://creativecommons.org/ns#"
   xmlns:rdf="http://www.w3.org/1999/02/22-rdf-syntax-ns#"
   xmlns:svg="http://www.w3.org/2000/svg"
   xmlns="http://www.w3.org/2000/svg"
   xmlns:sodipodi="http://sodipodi.sourceforge.net/DTD/sodipodi-0.dtd"
   xmlns:inkscape="http://www.inkscape.org/namespaces/inkscape"
   width="180.23759"
   height="102.53741"
   version="1.1"
   viewBox="0 0 180.23759 102.53741"
   id="svg4320"
   inkscape:version="0.91pre2+osxmenu r12795"
   sodipodi:docname="logo.svg">
  <metadata
     id="metadata4340">
    <rdf:RDF>
      <cc:Work
         rdf:about="">
        <dc:format>image/svg+xml</dc:format>
        <dc:type
           rdf:resource="http://purl.org/dc/dcmitype/StillImage" />
        <dc:title></dc:title>
      </cc:Work>
    </rdf:RDF>
  </metadata>
  <defs
     id="defs4338" />
  <sodipodi:namedview
     pagecolor="#ffffff"
     bordercolor="#666666"
     borderopacity="1"
     objecttolerance="10"
     gridtolerance="10"
     guidetolerance="10"
     inkscape:pageopacity="0"
     inkscape:pageshadow="2"
     inkscape:window-width="653"
     inkscape:window-height="480"
     id="namedview4336"
     showgrid="false"
     fit-margin-top="0"
     fit-margin-left="0"
     fit-margin-right="0"
     fit-margin-bottom="0"
     inkscape:zoom="0.7375"
     inkscape:cx="90.237599"
     inkscape:cy="51.4277"
     inkscape:window-x="0"
     inkscape:window-y="23"
     inkscape:window-maximized="0"
     inkscape:current-layer="svg4320" />
  <g
     transform="translate(-88.762401,-627.8903)"
     id="g4322">
    <g
       transform="matrix(1.5,0,0,1.5,-35.5,-407.18115)"
       id="g4324">
      <path
         transform="matrix(1,0,0,1.1547005,73.779685,-212.0044)"
         style="fill:#eedd33"
         d="M 41.2,840.4 C 38,840.4 23.6,817.3 22,814.5 20.4,811.7 7.6,787.7 9.2,784.9 c 1.6,-2.8 28.8,-3.7 32,-3.7 3.2,0 30.4,0.9 32,3.7 1.6,2.8 -11.2,26.8 -12.8,29.6 -1.6,2.8 -16,25.9 -19.2,25.9 z"
         id="path4326"
         inkscape:connector-curvature="0" />
      <path
         transform="matrix(1,0,0,1.1547005,105.7797,-212.0044)"
         style="fill:#ff1122"
         d="M 41.2,840.4 C 38,840.4 23.6,817.3 22,814.5 20.4,811.7 7.6,787.7 9.2,784.9 c 1.6,-2.8 28.8,-3.7 32,-3.7 3.2,0 30.4,0.9 32,3.7 1.6,2.8 -11.2,26.8 -12.8,29.6 -1.6,2.8 -16,25.9 -19.2,25.9 z"
         id="path4328"
         inkscape:connector-curvature="0" />
      <path
         style="fill:#1188ff"
         d="m 203,718.4 a 24,24 0 0 1 -24,24 24,24 0 0 1 -24,-24 24,24 0 0 1 24,-24 24,24 0 0 1 24,24 z"
         id="path4330"
         inkscape:connector-curvature="0" />
      <path
         style="fill:#ff7733"
         d="m 131,691 c -0.2,0 -0.4,0 -0.6,0 -3.7,0.3 -7.3,0.8 -10.2,1.3 -1.4,0.3 -2.6,0.6 -3.5,0.9 -0.5,0.2 -0.8,0.3 -1.1,0.5 -0.3,0.2 -0.5,0.4 -0.6,0.6 -0.2,0.4 -0.2,1.2 0,2.3 0.2,1.1 0.6,2.4 1.1,4 1,3.1 2.5,7 4.1,10.8 1.6,3.9 3.3,7.7 4.7,10.8 1.4,3.1 2.5,5.4 2.9,6.2 0.4,0.8 1.6,3.1 3.2,6 1.6,-2.9 2.8,-5.2 3.2,-6 1.6,-3.2 14.4,-30.9 12.8,-34.1 -0.8,-1.7 -8.4,-2.7 -16,-3.4 z"
         id="path4332"
         inkscape:connector-curvature="0" />
      <path
         style="fill:#885588"
         d="m 179,694.4 a 24,24 0 0 0 -1.7,0.1 24,24 0 0 0 -2.4,0.3 24,24 0 0 0 -2.3,0.5 24,24 0 0 0 -2.3,0.8 24,24 0 0 0 -2.2,1 24,24 0 0 0 -2.1,1.2 24,24 0 0 0 -2,1.4 24,24 0 0 0 -1.8,1.6 24,24 0 0 0 -1.6,1.8 24,24 0 0 0 -1.5,1.9 24,24 0 0 0 -1.3,2 24,24 0 0 0 -1,2.2 24,24 0 0 0 -0.8,2.3 24,24 0 0 0 -0.6,2.3 24,24 0 0 0 -0.4,2.4 24,24 0 0 0 -0.1,2.4 24,24 0 0 0 0.1,1.7 24,24 0 0 0 0.3,2.4 24,24 0 0 0 0.5,2.3 24,24 0 0 0 0.8,2.3 24,24 0 0 0 1,2.2 24,24 0 0 0 1.2,2.1 24,24 0 0 0 1.4,2 24,24 0 0 0 1.6,1.8 24,24 0 0 0 0.6,0.5 c 1.9,-3.4 3.4,-6.2 3.8,-7.1 1.6,-3.2 14.4,-30.9 12.8,-34.1 z"
         id="path4334"
         inkscape:connector-curvature="0" />
    </g>
  </g>
</svg>
