<?xml version="1.0" standalone="no"?>
<!DOCTYPE svg PUBLIC "-//W3C//DTD SVG 20010904//EN"
 "http://www.w3.org/TR/2001/REC-SVG-20010904/DTD/svg10.dtd">
<svg version="1.0" xmlns="http://www.w3.org/2000/svg"
 width="1024.000000pt" height="1024.000000pt" viewBox="0 0 1024.000000 1024.000000"
 preserveAspectRatio="xMidYMid meet">
<metadata>
Created by potrace 1.11, written by Peter Selinger 2001-2013
</metadata>
<g transform="translate(0.000000,1024.000000) scale(0.100000,-0.100000)"
fill="#000000" stroke="none">
<path d="M4918 10235 c-2 -1 -55 -6 -118 -9 -63 -4 -124 -8 -135 -10 -11 -3
-33 -5 -48 -5 -29 -1 -95 -57 -99 -84 -7 -59 -4 -74 23 -109 16 -20 29 -49 29
-63 0 -14 -16 -66 -35 -115 -45 -118 -57 -163 -61 -233 -4 -67 9 -100 58 -143
36 -32 57 -69 52 -97 -1 -10 -5 -59 -9 -110 -4 -51 -8 -108 -10 -127 -2 -19
-6 -75 -10 -125 -3 -49 -8 -106 -10 -125 -2 -19 -7 -78 -10 -130 -3 -52 -8
-115 -10 -140 -2 -25 -7 -83 -10 -130 -3 -47 -8 -105 -10 -130 -2 -25 -7 -88
-10 -140 -4 -52 -8 -111 -10 -130 -2 -19 -6 -73 -10 -120 -3 -47 -8 -105 -10
-130 -2 -25 -7 -83 -10 -130 -4 -47 -8 -105 -10 -130 -2 -25 -7 -83 -10 -130
-3 -47 -8 -105 -10 -130 -3 -25 -7 -81 -10 -125 -3 -44 -8 -100 -10 -125 -2
-25 -7 -74 -10 -110 -21 -234 -50 -301 -280 -655 -173 -265 -240 -413 -264
-575 -9 -59 -6 -2097 4 -3115 2 -203 6 -701 10 -1105 10 -1190 9 -1171 55
-1260 25 -49 67 -80 150 -113 62 -24 191 -58 275 -72 72 -12 79 -13 135 -20
30 -3 61 -8 67 -10 81 -26 1030 -26 1158 0 11 2 43 6 70 9 170 18 386 72 440
109 79 55 134 164 141 277 14 247 37 2778 38 4240 l1 1035 -28 90 c-49 160
-129 308 -368 685 -133 210 -160 280 -174 465 -3 44 -8 103 -10 130 -12 121
-15 154 -20 225 -5 72 -9 123 -20 248 -3 31 -7 88 -10 127 -3 38 -7 94 -10
125 -2 30 -7 93 -10 140 -3 47 -7 101 -10 120 -2 19 -7 82 -10 140 -4 58 -8
121 -10 140 -2 19 -6 80 -10 135 -3 55 -8 123 -10 150 -3 28 -7 84 -10 125 -3
41 -7 100 -9 130 -3 30 -8 98 -11 150 -4 52 -8 111 -10 130 -2 19 -6 82 -10
140 -4 58 -9 108 -11 112 -3 4 13 27 34 50 93 101 98 180 27 399 -33 104 -34
109 -14 186 18 72 13 111 -17 144 -15 17 -64 31 -159 45 -41 6 -581 15 -587 9z"/>
</g>
</svg>
