<?xml version="1.0" encoding="UTF-8" standalone="no"?>
<!-- Created with Inkscape (http://www.inkscape.org/) -->

<svg
   xmlns:dc="http://purl.org/dc/elements/1.1/"
   xmlns:cc="http://creativecommons.org/ns#"
   xmlns:rdf="http://www.w3.org/1999/02/22-rdf-syntax-ns#"
   xmlns:svg="http://www.w3.org/2000/svg"
   xmlns="http://www.w3.org/2000/svg"
   xmlns:sodipodi="http://sodipodi.sourceforge.net/DTD/sodipodi-0.dtd"
   xmlns:inkscape="http://www.inkscape.org/namespaces/inkscape"
   width="50mm"
   height="10mm"
   viewBox="0 0 50 10"
   id="svg2"
   version="1.1"
   inkscape:version="0.91+devel+osxmenu r12911"
   sodipodi:docname="slider.svg">
  <defs
     id="defs4" />
  <sodipodi:namedview
     id="base"
     pagecolor="#ffffff"
     bordercolor="#666666"
     borderopacity="1.0"
     inkscape:pageopacity="0.0"
     inkscape:pageshadow="2"
     inkscape:zoom="3.56591"
     inkscape:cx="94.488189"
     inkscape:cy="18.897638"
     inkscape:document-units="mm"
     inkscape:current-layer="layer1"
     showgrid="false" />
  <metadata
     id="metadata7">
    <rdf:RDF>
      <cc:Work
         rdf:about="">
        <dc:format>image/svg+xml</dc:format>
        <dc:type
           rdf:resource="http://purl.org/dc/dcmitype/StillImage" />
        <dc:title></dc:title>
      </cc:Work>
    </rdf:RDF>
  </metadata>
  <g
     inkscape:label="Laag 1"
     inkscape:groupmode="layer"
     id="layer1"
     transform="translate(0,-287)">
    <path
       style="opacity:1;fill:#ff0000;fill-opacity:1;stroke:none;stroke-width:1;stroke-linecap:square;stroke-linejoin:miter;stroke-miterlimit:4;stroke-dasharray:none;stroke-dashoffset:0;stroke-opacity:1"
       d="m 5,290.5 20,0 0,3 -20,0 z"
       id="rect4141"
       inkscape:connector-curvature="0"
       sodipodi:nodetypes="ccccc" />
    <path
       style="opacity:1;fill:#f6871f;fill-opacity:1;stroke:none;stroke-width:1;stroke-linecap:square;stroke-linejoin:miter;stroke-miterlimit:4;stroke-dasharray:none;stroke-dashoffset:0;stroke-opacity:1"
       d="m 25,290.5 10,0 0,3 -10,0 z"
       id="rect4143"
       inkscape:connector-curvature="0"
       sodipodi:nodetypes="ccccc" />
    <path
       style="opacity:1;fill:#00cc00;fill-opacity:1;stroke:none;stroke-width:1;stroke-linecap:square;stroke-linejoin:miter;stroke-miterlimit:4;stroke-dasharray:none;stroke-dashoffset:0;stroke-opacity:1"
       d="m 35,290.5 10,0 0,3 -10,0 z"
       id="rect4145"
       inkscape:connector-curvature="0"
       sodipodi:nodetypes="ccccc" />
    <path
       style="color:#000000;font-style:normal;font-variant:normal;font-weight:normal;font-stretch:normal;font-size:medium;line-height:normal;font-family:sans-serif;text-indent:0;text-align:start;text-decoration:none;text-decoration-line:none;text-decoration-style:solid;text-decoration-color:#000000;letter-spacing:normal;word-spacing:normal;text-transform:none;direction:ltr;block-progression:tb;writing-mode:lr-tb;baseline-shift:baseline;text-anchor:start;white-space:normal;shape-padding:0;clip-rule:nonzero;display:inline;overflow:visible;visibility:visible;opacity:1;isolation:auto;mix-blend-mode:normal;color-interpolation:sRGB;color-interpolation-filters:linearRGB;solid-color:#000000;solid-opacity:1;fill:#000000;fill-opacity:1;fill-rule:evenodd;stroke:none;stroke-width:1.88976383;stroke-linecap:square;stroke-linejoin:miter;stroke-miterlimit:4;stroke-dasharray:none;stroke-dashoffset:0;stroke-opacity:1;color-rendering:auto;image-rendering:auto;shape-rendering:auto;text-rendering:auto;enable-background:accumulate"
       d="M 17.953125 12.283203 L 17.953125 13.228516 L 17.953125 14.173828 L 17.953125 18.898438 L 17.953125 19.841797 L 19.841797 19.841797 L 19.841797 18.898438 L 19.841797 14.173828 L 55.748047 14.173828 L 55.748047 18.898438 L 55.748047 19.841797 L 57.638672 19.841797 L 57.638672 18.898438 L 57.638672 14.173828 L 93.542969 14.173828 L 93.542969 18.898438 L 93.542969 19.841797 L 95.433594 19.841797 L 95.433594 18.898438 L 95.433594 14.173828 L 131.33789 14.173828 L 131.33789 18.898438 L 131.33789 19.841797 L 133.22852 19.841797 L 133.22852 18.898438 L 133.22852 14.173828 L 169.13477 14.173828 L 169.13477 18.898438 L 169.13477 19.841797 L 171.02344 19.841797 L 171.02344 18.898438 L 171.02344 14.173828 L 171.02344 13.228516 L 171.02344 12.283203 L 170.07812 12.283203 L 169.13477 12.283203 L 133.22852 12.283203 L 131.33789 12.283203 L 95.433594 12.283203 L 93.542969 12.283203 L 57.638672 12.283203 L 55.748047 12.283203 L 19.841797 12.283203 L 17.953125 12.283203 z "
       transform="matrix(0.26458333,0,0,0.26458333,0,287)"
       id="path4236" />
  </g>
</svg>
