<?xml version="1.0" encoding="UTF-8" standalone="no"?>
<!-- Created with Inkscape (http://www.inkscape.org/) -->

<svg
   xmlns:dc="http://purl.org/dc/elements/1.1/"
   xmlns:cc="http://creativecommons.org/ns#"
   xmlns:rdf="http://www.w3.org/1999/02/22-rdf-syntax-ns#"
   xmlns:svg="http://www.w3.org/2000/svg"
   xmlns="http://www.w3.org/2000/svg"
   xmlns:sodipodi="http://sodipodi.sourceforge.net/DTD/sodipodi-0.dtd"
   xmlns:inkscape="http://www.inkscape.org/namespaces/inkscape"
   width="512"
   height="512"
   viewBox="0 0 135.46666 135.46667"
   id="svg2"
   version="1.1"
   inkscape:version="0.91+devel+osxmenu r12911"
   sodipodi:docname="crate_icon.svg">
  <defs
     id="defs4" />
  <sodipodi:namedview
     id="base"
     pagecolor="#ffffff"
     bordercolor="#666666"
     borderopacity="1.0"
     inkscape:pageopacity="0.0"
     inkscape:pageshadow="2"
     inkscape:zoom="1.3164062"
     inkscape:cx="256"
     inkscape:cy="256"
     inkscape:document-units="px"
     inkscape:current-layer="g4204"
     showgrid="false"
     units="px" />
  <metadata
     id="metadata7">
    <rdf:RDF>
      <cc:Work
         rdf:about="">
        <dc:format>image/svg+xml</dc:format>
        <dc:type
           rdf:resource="http://purl.org/dc/dcmitype/StillImage" />
        <dc:title></dc:title>
      </cc:Work>
    </rdf:RDF>
  </metadata>
  <g
     inkscape:label="Laag 1"
     inkscape:groupmode="layer"
     id="layer1"
     transform="translate(0,-161.53331)">
    <g
       id="g4204"
       transform="translate(0.22081425,-3.8688406)">
      <path
         style="fill:#ffffff;stroke-width:1"
         d="m 77.14935,211.96886 c -16.567486,-0.002 -38.151182,0.0574 -38.744471,0.14729 -1.722929,0.26123 -3.190716,0.6645 -3.928258,1.07944 -0.911683,0.51291 -1.028074,0.68727 -2.395769,3.59794 -0.639966,1.36193 -1.823484,3.87486 -2.375733,5.04422 -0.08734,0.18494 -0.352675,0.73349 -0.589639,1.21895 -0.236965,0.48547 -0.607558,1.26075 -0.823779,1.7231 -0.216222,0.46235 -0.805158,1.70366 -1.308656,2.75862 -0.503497,1.05496 -0.915373,1.93188 -0.915373,1.94877 0,0.0169 -0.19989,0.43608 -0.444232,0.93159 l -0.444235,0.901 0.05667,0.65979 c 0.06434,0.74908 0.141404,0.98973 0.461407,1.44128 0.208335,0.29399 0.258174,0.55955 0.64059,3.40451 0.228128,1.69715 0.454927,3.22058 0.50377,3.38505 0.04885,0.16447 0.130249,0.76215 0.1809,1.32845 0.05064,0.56631 0.12917,1.12462 0.174601,1.24064 0.04543,0.11601 0.08244,0.40573 0.08244,0.64365 0,0.23792 0.09578,1.11475 0.212956,1.94877 0.117183,0.83403 0.31447,2.27304 0.438508,3.19774 0.124041,0.92468 0.279986,2.0786 0.346341,2.56407 0.134871,0.98673 0.587137,4.407 1.044752,7.90179 0.166488,1.27146 0.340274,2.57673 0.386415,2.90037 0.04613,0.32363 0.11933,0.89075 0.162578,1.26063 0.04325,0.36988 0.222362,1.73197 0.397866,3.02654 0.259703,1.91539 0.306916,2.47124 0.252457,2.98429 -0.03681,0.34676 -0.06281,0.97613 -0.05782,1.39905 0.0078,0.65259 0.05123,0.87542 0.288521,1.4713 0.153791,0.38619 0.370452,0.82276 0.481444,0.96994 0.110987,0.14718 0.202083,0.29993 0.202083,0.33961 0,0.14173 0.744442,0.76299 1.259994,1.05109 1.00552,0.56192 2.204016,0.86947 3.848115,0.98773 0.628309,0.0452 59.822998,0.0607 61.859488,0.0161 0.54118,-0.0118 2.244529,-0.30819 2.792489,-0.48581 1.04667,-0.3393 2.53201,-1.28144 2.53201,-1.60581 0,-0.0685 0.0735,-0.22467 0.16258,-0.3474 0.18551,-0.25549 0.54419,-1.00586 0.69269,-1.44851 0.1326,-0.39514 0.15773,-1.60566 0.0446,-2.14276 -0.0544,-0.258 -0.0625,-0.65542 -0.0206,-1.00885 0.038,-0.32071 0.10615,-1.04534 0.15113,-1.61026 0.045,-0.56492 0.10719,-1.06742 0.13854,-1.11667 0.0783,-0.12297 0.10804,-0.33642 1.0831,-7.85956 0.4734,-3.65253 0.95597,-7.3596 1.0728,-8.23806 0.11685,-0.87846 0.37265,-2.80766 0.56846,-4.28718 0.19581,-1.47951 0.41337,-3.10603 0.48316,-3.61461 0.3175,-2.31532 0.92669,-6.94741 0.98064,-7.4549 0.0359,-0.33808 0.11742,-0.62368 0.20494,-0.71758 0.41395,-0.44416 0.67727,-1.64996 0.49976,-2.29006 -0.0515,-0.18557 -0.66286,-1.55754 -1.35846,-3.04933 -1.40134,-3.00527 -1.97859,-4.25082 -2.40722,-5.19263 -0.91547,-2.01152 -1.94165,-4.12306 -2.05916,-4.23714 -0.0747,-0.0725 -0.16275,-0.25559 -0.19521,-0.40633 -0.0775,-0.36041 -0.68465,-1.68647 -0.99151,-2.16554 -0.13326,-0.20805 -0.26698,-0.51074 -0.29711,-0.67256 -0.0301,-0.16182 -0.17344,-0.46451 -0.31886,-0.67257 -0.14543,-0.20805 -0.28617,-0.4824 -0.31257,-0.60975 -0.13213,-0.63754 -1.46362,-1.36436 -3.259619,-1.77923 -1.00997,-0.2333 -1.4027,-0.28971 -2.653946,-0.38242 -0.711454,-0.0527 -8.846111,-0.0764 -18.786602,-0.0779 z m -35.868404,3.85917 c 0.06609,-0.005 0.107604,0.0192 0.07099,0.0767 -0.0838,0.13166 0.290793,0.40338 0.691537,0.50137 0.641288,0.15682 1.966228,0.11392 2.765011,-0.0895 0.392646,-0.1 0.782378,-0.15625 0.866138,-0.12505 0.1368,0.051 0.139593,0.0753 0.02576,0.24178 -0.190704,0.27888 -0.516596,0.48745 -0.895334,0.57307 -0.528487,0.11946 -2.889908,0.085 -3.212678,-0.0467 -0.550622,-0.22479 -0.820247,-0.75103 -0.52953,-1.0333 0.06116,-0.0593 0.15202,-0.0934 0.218109,-0.0984 z m 32.074674,0.16453 c 0.03449,-0.003 0.07322,0.0221 0.109342,0.0789 0.02714,0.0426 0.31167,0.16443 0.632573,0.2707 0.45423,0.15047 0.794504,0.19653 1.535924,0.20621 0.955294,0.0129 1.581337,-0.0595 1.679043,-0.19399 0.02878,-0.0396 0.150013,-0.074 0.269059,-0.0761 0.119044,-0.003 0.284767,-0.0339 0.368096,-0.0695 0.115054,-0.0492 0.151129,-0.0255 0.151129,0.0978 0,0.17024 -0.225595,0.4041 -0.629138,0.6531 -0.267046,0.1648 -1.596608,0.23843 -2.141022,0.1184 -0.166661,-0.0367 -0.445152,-0.0453 -0.618836,-0.0194 -0.627148,0.0935 -1.459213,-0.38941 -1.459213,-0.84654 0,-0.13455 0.04556,-0.21502 0.103043,-0.21955 z m 16.202494,0.0634 c 0.07835,0.007 0.180082,0.0382 0.305123,0.10005 0.630032,0.31202 1.436703,0.44395 2.522855,0.41243 0.816402,-0.0237 1.065336,-0.0627 1.382505,-0.21622 0.238738,-0.11543 0.417964,-0.15724 0.467704,-0.10894 0.137799,0.13378 -0.195036,0.512 -0.605095,0.68812 -0.337531,0.14463 -0.542882,0.16253 -1.659007,0.13952 -1.643425,-0.0339 -1.713333,-0.0435 -2.112969,-0.28848 -0.541404,-0.33187 -0.640637,-0.75621 -0.301116,-0.72648 z m -32.367776,0.01 c 0.07825,-0.007 0.191314,0.0301 0.337182,0.12618 0.658862,0.43413 2.300754,0.49642 3.690684,0.14007 0.357133,-0.0916 0.659023,-0.16711 0.670931,-0.16787 0.0119,-8.6e-4 0.02175,0.071 0.02175,0.16008 3e-6,0.19825 -0.539171,0.64439 -0.852972,0.70591 -0.12616,0.0248 -0.289606,0.0679 -0.363518,0.0956 -0.07392,0.0279 -0.153726,0.0325 -0.17689,0.01 -0.02316,-0.0225 -0.647428,-0.0522 -1.387658,-0.0661 -1.321417,-0.0247 -1.351463,-0.0292 -1.662438,-0.25958 -0.434346,-0.32166 -0.511845,-0.72502 -0.277073,-0.74426 z m -11.291312,1.18949 c 0.05042,0 0.06779,0.0377 0.03835,0.084 -0.02943,0.0461 -0.0706,0.0839 -0.09159,0.0839 -0.02099,0 -0.03836,-0.0377 -0.03836,-0.0839 0,-0.0462 0.04117,-0.084 0.09159,-0.084 z m -0.609676,0.18231 c 0.01864,-0.003 0.03985,-0.002 0.06354,0.002 0.08333,0.0156 0.143946,0.0655 0.134528,0.11117 -0.03009,0.14621 -0.286232,0.14514 -0.286232,-9.7e-4 0,-0.0649 0.03222,-0.1041 0.08816,-0.11228 z m 16.276341,0 c 0.01864,-0.003 0.03985,-0.002 0.06355,0.002 0.08334,0.0156 0.143945,0.0655 0.134528,0.11117 -0.03009,0.14621 -0.285661,0.14514 -0.285661,-9.7e-4 0,-0.0649 0.03165,-0.1041 0.08759,-0.11228 z m 28.278655,0.002 c 0.07436,0.006 0.155342,0.0517 0.182618,0.13118 0.02113,0.0617 -0.03847,0.10506 -0.144262,0.10506 -0.106349,0 -0.180328,-0.0543 -0.180328,-0.13229 0,-0.0772 0.06761,-0.11018 0.141972,-0.10395 z m -16.248863,0.006 c 0.08798,9.7e-4 0.176319,0.0672 0.176319,0.15229 0,0.10228 -0.233831,0.10263 -0.298827,5.8e-4 -0.02741,-0.0431 -0.01061,-0.10214 0.03778,-0.13118 0.02582,-0.0155 0.0554,-0.0221 0.08472,-0.0216 z m -16.235125,0.0628 c 0.07424,0 0.135102,0.0383 0.135102,0.0845 0,0.0461 -0.03648,0.0839 -0.08129,0.0839 -0.0448,0 -0.105669,-0.0377 -0.135102,-0.0839 -0.02943,-0.0462 0.0071,-0.0845 0.08129,-0.0845 z m 20.481103,0 c 0.04761,0 0.08644,0.0377 0.08644,0.084 0,0.0461 -0.03882,0.0839 -0.08644,0.0839 -0.04761,0 -0.08702,-0.0377 -0.08702,-0.0839 0,-0.0462 0.0394,-0.084 0.08702,-0.084 z m -19.869709,0.0845 c 0.07143,0 0.12995,0.0568 0.12995,0.12618 0,0.0693 -0.05852,0.12562 -0.12995,0.12562 -0.07143,0 -0.12995,-0.0562 -0.12995,-0.12562 0,-0.0693 0.05852,-0.12618 0.12995,-0.12618 z m 16.276341,0 c 0.07215,0 0.12995,0.0751 0.12995,0.16843 -3e-6,0.16747 -0.09232,0.2183 -0.202079,0.11171 -0.105444,-0.10238 -0.05968,-0.28014 0.07213,-0.28014 z m -13.379666,0.0139 c 0.0192,-0.004 0.04212,-0.003 0.0687,0.002 0.08333,0.0155 0.15113,0.0842 0.15113,0.15229 0,0.0681 -0.0678,0.13615 -0.15113,0.15176 -0.106302,0.0199 -0.151704,-0.0251 -0.151704,-0.15176 0,-0.095 0.02544,-0.14421 0.08301,-0.15451 z m 16.398849,0.007 c 0.016,0.002 0.03192,0.008 0.04694,0.0167 0.05177,0.0311 0.09388,0.0883 0.09388,0.12672 0,0.11187 -0.248254,0.17385 -0.309703,0.0773 -0.06457,-0.10142 0.05691,-0.23681 0.168876,-0.22067 z m 13.332724,0 c 0.01612,0.002 0.03166,0.008 0.04694,0.0167 0.05177,0.0311 0.09446,0.11128 0.09446,0.17786 0,0.14157 -0.223121,0.16279 -0.307989,0.0294 -0.06611,-0.10389 0.05378,-0.24051 0.166588,-0.224 z m -45.939789,9.7e-4 c 0.10353,0.004 0.20577,0.0726 0.173455,0.16786 -0.03966,0.11681 -0.412562,0.19819 -0.410457,0.0895 5.86e-4,-0.0379 0.03577,-0.12167 0.07786,-0.18621 0.03443,-0.0528 0.09703,-0.0735 0.159146,-0.0712 z m 31.795881,0.0622 c 0.02368,0 0.04741,0.0285 0.0853,0.0845 0.04688,0.0693 0.08575,0.15434 0.08644,0.18897 5.86e-4,0.0347 -0.0765,0.0628 -0.171741,0.0628 -0.19168,0 -0.213076,-0.0628 -0.0853,-0.25178 0.03789,-0.056 0.06162,-0.0845 0.0853,-0.0845 z m 16.396561,0.11673 c 0.03105,9.7e-4 0.05324,0.0349 0.05324,0.0889 0,0.0721 -0.03883,0.13062 -0.08644,0.13062 -0.04761,0 -0.08701,-0.0354 -0.08701,-0.0789 0,-0.0435 0.03939,-0.10257 0.08701,-0.13118 0.0119,-0.007 0.02286,-0.01 0.0332,-0.01 z m -32.654009,0.003 c 0.09512,-0.007 0.165286,0.0469 0.10705,0.1384 -0.02741,0.0431 -0.133801,0.0784 -0.236428,0.0784 -0.171925,0 -0.176041,-0.0109 -0.04694,-0.13618 0.05278,-0.0513 0.119249,-0.0767 0.176319,-0.0806 z m -16.34561,0.005 c 0.08117,8.5e-4 0.136245,0.0535 0.136245,0.14229 0,0.0385 -0.07822,0.07 -0.173455,0.07 -0.198521,0 -0.232207,-0.12777 -0.05152,-0.19509 0.03184,-0.0119 0.06167,-0.0175 0.08873,-0.0173 z m 14.849185,0.0445 c 0.0448,0 0.105666,0.0377 0.135102,0.0839 0.02943,0.0462 -0.0071,0.0845 -0.08129,0.0845 -0.07424,0 -0.135099,-0.0383 -0.135099,-0.0845 0,-0.0462 0.03648,-0.0839 0.08129,-0.0839 z m 16.93124,0 c 0.0658,0 0.143453,0.0377 0.172887,0.0839 0.03047,0.0479 -0.04382,0.0845 -0.172887,0.0845 -0.129064,0 -0.203348,-0.0366 -0.172883,-0.0845 0.02943,-0.0462 0.107082,-0.0839 0.172883,-0.0839 z m -8.267547,1.51744 c 2.509349,-5.8e-4 5.058815,0.0158 5.310191,0.0495 0.484786,0.0649 0.471883,-0.0473 0.160292,1.41795 -0.304311,1.43095 -0.440606,2.24294 -0.49461,2.94205 -0.02858,0.36987 -0.06975,0.75809 -0.09159,0.8621 l -0.04007,0.18898 -4.589458,0 c -3.597316,0 -4.596359,-0.0226 -4.620941,-0.10505 -0.01723,-0.0578 -0.09249,-0.61589 -0.167159,-1.24007 -0.07468,-0.62417 -0.253953,-1.70214 -0.398438,-2.39566 -0.298926,-1.43485 -0.313071,-1.60268 -0.137392,-1.66807 0.09046,-0.0338 2.559834,-0.0512 5.069183,-0.0517 z m -16.124638,0.002 c 2.530523,-0.008 5.648992,0.0454 5.742403,0.13618 0.07944,0.0772 0.07668,0.31648 -0.01316,1.04998 -0.09776,0.79813 -0.148436,0.97808 -0.315431,1.12835 -0.109292,0.0984 -0.198644,0.23751 -0.198644,0.30904 0,0.17337 0.474764,0.55348 0.764241,0.61199 0.127279,0.0257 0.398807,0.0876 0.60338,0.13784 0.579974,0.14241 1.935988,0.0345 2.744972,-0.21844 0.823084,-0.25738 0.909332,-0.26429 0.906785,-0.0717 -0.0026,0.20555 -0.240177,0.46363 -0.646886,0.70147 -0.331056,0.19357 -0.416964,0.20313 -1.948102,0.21067 -1.836395,0.01 -2.085854,-0.0461 -2.54747,-0.56974 -0.160866,-0.18242 -0.312154,-0.30111 -0.336039,-0.26347 -0.02389,0.0377 -0.06822,0.23885 -0.09846,0.44689 -0.04261,0.29321 -0.01852,0.43009 0.106479,0.60976 0.157525,0.22646 0.15688,0.24421 -0.0091,0.73593 l -0.170023,0.50359 -3.688969,-0.005 c -3.363789,-0.004 -3.734045,-0.0188 -4.198463,-0.16287 -0.28013,-0.0869 -0.54661,-0.1939 -0.591929,-0.2379 -0.04531,-0.044 -0.174132,-0.56459 -0.286804,-1.15725 -0.112671,-0.59266 -0.310858,-1.49877 -0.440228,-2.0138 -0.129363,-0.51503 -0.21108,-0.99779 -0.181471,-1.07277 0.08555,-0.21646 1.002181,-0.61672 1.663585,-0.72648 0.314695,-0.0522 1.621087,-0.0785 3.139402,-0.0828 z m 30.995005,9.7e-4 c 4.463009,-0.007 5.190237,0.0431 5.954785,0.40854 0.297549,0.14222 0.563953,0.31526 0.591358,0.38464 0.0274,0.0693 -0.08215,0.66461 -0.243299,1.32289 -0.161141,0.65828 -0.353847,1.57227 -0.428202,2.03103 -0.07436,0.45876 -0.165632,0.86168 -0.202654,0.89546 -0.03703,0.0337 -0.262244,0.13137 -0.500334,0.21678 -0.392461,0.14079 -0.789275,0.15747 -4.250556,0.17953 l -3.817773,0.0245 -0.178039,-0.52637 c -0.176389,-0.52248 -0.176503,-0.52755 -0.0086,-0.73482 0.131834,-0.16275 0.157361,-0.28335 0.115066,-0.54862 -0.112282,-0.70405 -0.199482,-0.79889 -0.358364,-0.39019 -0.05221,0.13429 -0.263256,0.35145 -0.46885,0.48303 l -0.37382,0.23901 -1.757471,-0.0167 -1.75804,-0.0167 -0.380118,-0.25403 c -0.405446,-0.27084 -0.606693,-0.64021 -0.474,-0.87044 0.07064,-0.1226 0.110796,-0.11636 0.383551,0.0634 0.612918,0.4038 1.108062,0.50674 2.418095,0.50136 0.947503,-0.004 1.297203,-0.0379 1.601757,-0.15452 0.214282,-0.082 0.510983,-0.19427 0.658909,-0.24902 0.223593,-0.0828 0.257552,-0.12916 0.201508,-0.27625 -0.03707,-0.0973 -0.18,-0.25475 -0.317145,-0.34962 -0.22981,-0.15887 -0.261049,-0.24669 -0.397864,-1.1239 -0.147023,-0.94269 -0.146222,-0.9535 0.02805,-1.09278 0.158305,-0.12652 0.555599,-0.1408 3.962035,-0.14618 z m -41.587907,2.02658 c 0.06295,2.9e-4 0.113475,0.012 0.13911,0.0378 0.03923,0.0393 0.0194,0.21627 -0.04408,0.39353 -0.109946,0.30693 -0.103899,0.33466 0.11907,0.57696 0.214243,0.23276 0.27903,0.2538 0.763669,0.24735 0.636642,-0.009 1.260851,-0.13556 1.538788,-0.31238 0.141627,-0.09 0.298525,-0.11263 0.514075,-0.0734 0.528047,0.0962 0.374682,0.41911 -0.418471,0.88045 -0.318875,0.18552 -0.430937,0.19852 -1.864521,0.21067 -1.67054,0.0142 -2.028055,-0.0503 -2.447291,-0.44023 -0.304199,-0.28297 -0.323749,-0.67799 -0.0458,-0.9238 0.320748,-0.28368 0.583673,-0.38024 0.886178,-0.32517 0.203635,0.0371 0.29739,0.0178 0.331457,-0.0684 0.04218,-0.10671 0.338959,-0.20471 0.527813,-0.20344 z m 1.883412,0.16786 c 0.06531,-0.0203 0.334151,0.18436 0.451673,0.35852 0.07928,0.1174 0.110688,0.21344 0.06984,0.21344 -0.07762,0 -0.535826,-0.46912 -0.535826,-0.54861 0,-0.0128 0.005,-0.0205 0.0143,-0.0233 z m 48.665297,0.54583 c 0.0717,-0.007 0.205471,0.0517 0.496903,0.19455 0.805495,0.3948 1.473009,0.53436 2.553768,0.5336 0.836277,-5.6e-4 1.011766,-0.0274 1.439177,-0.21622 0.267708,-0.11829 0.513502,-0.25743 0.546702,-0.3096 0.0823,-0.12924 0.22155,-0.0329 0.22155,0.15341 0,0.24785 -0.3458,0.60069 -0.756229,0.7715 -0.404768,0.16844 -0.995982,0.18573 -2.807944,0.0817 -0.751154,-0.0431 -0.875447,-0.0741 -1.210193,-0.30293 -0.422988,-0.28912 -0.648542,-0.61812 -0.566169,-0.82653 0.01867,-0.0472 0.03942,-0.0754 0.08244,-0.0795 z m -47.121357,1.37125 c 0.04761,0 0.08644,0.0377 0.08644,0.0839 0,0.0462 -0.03883,0.0839 -0.08644,0.0839 -0.04762,0 -0.08645,-0.0377 -0.08645,-0.0839 0,-0.0461 0.03883,-0.0839 0.08645,-0.0839 z m 47.012018,0 c 0.04761,0 0.08644,0.0377 0.08644,0.0839 0,0.0462 -0.03883,0.0839 -0.08644,0.0839 -0.04761,0 -0.08644,-0.0377 -0.08644,-0.0839 3e-6,-0.0461 0.03882,-0.0839 0.08644,-0.0839 z m -47.648601,0.19733 c 0.05048,-0.006 0.110546,0.0142 0.172312,0.0639 0.119975,0.0967 0.117592,0.11924 -0.0206,0.21734 -0.213769,0.15176 -0.294249,0.13738 -0.294249,-0.0534 0,-0.13655 0.05841,-0.21825 0.142545,-0.22789 z m 17.649113,0.0545 c 0.07143,0 0.12995,0.0568 0.12995,0.12618 0,0.0693 -0.05852,0.12617 -0.12995,0.12617 -0.07143,0 -0.12995,-0.0568 -0.12995,-0.12617 0,-0.0693 0.05852,-0.12618 0.12995,-0.12618 z m 12.986956,0 c 0.07143,0 0.12995,0.0568 0.12995,0.12618 0,0.0693 -0.05852,0.12617 -0.12995,0.12617 -0.07143,0 -0.12995,-0.0568 -0.12995,-0.12617 0,-0.0693 0.05852,-0.12618 0.12995,-0.12618 z m 17.566678,0.003 c 0.06469,8.6e-4 0.137667,0.0411 0.168876,0.12006 0.02682,0.0679 0.02105,0.13892 -0.0126,0.15731 -0.108726,0.0593 -0.277647,-0.0387 -0.277647,-0.16119 0,-0.0786 0.05667,-0.11714 0.121362,-0.11618 z m -35.190605,0.0812 c 0.05043,0 0.0916,0.0377 0.0916,0.0839 0,0.0461 -0.0168,0.0839 -0.03778,0.0839 -0.02102,0 -0.06274,-0.0377 -0.09217,-0.0839 -0.02942,-0.0462 -0.01208,-0.0839 0.03835,-0.0839 z m 22.217389,0 c 0.07427,0 0.111297,0.0377 0.08186,0.0839 -0.02943,0.0461 -0.09029,0.0839 -0.135103,0.0839 -0.04481,0 -0.08186,-0.0377 -0.08186,-0.0839 0,-0.0462 0.06087,-0.0839 0.1351,-0.0839 z m -21.518982,0.0856 c 0.02345,5.8e-4 0.04763,0.028 0.08473,0.0828 0.04688,0.0693 0.08575,0.15434 0.08644,0.18897 0.0018,0.084 -0.23673,0.0805 -0.290813,-0.005 -0.02348,-0.0369 -0.0061,-0.12187 0.03836,-0.18899 0.03519,-0.053 0.05783,-0.0789 0.08129,-0.0784 z m -14.391784,0.0151 c 0.01773,5.7e-4 0.03594,0.005 0.05381,0.0112 0.146261,0.0545 0.194799,0.30904 0.05896,0.30904 -0.04373,0 -0.141073,0.0225 -0.216391,0.0506 -0.08363,0.0312 -0.136457,0.007 -0.135674,-0.0628 0.0021,-0.17553 0.115218,-0.3122 0.239288,-0.30794 z m 32.033458,0.007 c 0.05584,-0.008 0.105907,0.0359 0.105907,0.1384 0,0.10328 -0.05536,0.17509 -0.135674,0.17509 -0.08063,0 -0.124771,-0.0577 -0.108199,-0.14063 0.02107,-0.10543 0.08212,-0.16488 0.137966,-0.17286 z m -14.474222,0.003 c 0.121189,-0.008 0.302605,0.14664 0.245591,0.23624 -0.02609,0.041 -0.122825,0.0745 -0.215249,0.0745 -0.177444,0 -0.231193,-0.20485 -0.07785,-0.29682 0.01398,-0.009 0.0302,-0.0128 0.04751,-0.0139 z m 32.150242,0.0139 c 0.0134,0.002 0.02515,0.007 0.03492,0.0167 0.03133,0.0304 0.05725,0.10567 0.05725,0.1673 0,0.1252 -0.223341,0.15369 -0.297109,0.0378 -0.05156,-0.081 0.111068,-0.2354 0.204943,-0.22178 z m -14.453611,0.005 c 0.06745,-0.007 0.130521,0.0317 0.130521,0.12173 0,0.0687 -0.07206,0.13873 -0.159717,0.15508 -0.115699,0.0216 -0.150511,-0.0127 -0.128232,-0.12507 0.01823,-0.0919 0.08997,-0.14477 0.157428,-0.15174 z m -0.814619,0.20733 c 0.0754,0 0.121326,0.0453 0.102471,0.10005 -0.05351,0.15583 -0.239863,0.1818 -0.239863,0.0333 0,-0.0732 0.062,-0.1334 0.137392,-0.1334 z m 17.690331,0.0106 c 0.02614,-0.002 0.05208,0.005 0.0727,0.0245 l 0,5.7e-4 c 0.02938,0.0285 0.01146,0.0922 -0.0395,0.14174 -0.06218,0.0602 -0.110579,0.0614 -0.147123,0.004 -0.04612,-0.0724 0.03548,-0.16341 0.11392,-0.17065 z m -35.420162,0.0345 c 0.05489,-0.007 0.105388,0.0187 0.108768,0.0812 0.0026,0.0462 -0.06083,0.0969 -0.140256,0.11284 -0.09027,0.0181 -0.129604,-0.0133 -0.105332,-0.0839 0.02248,-0.0654 0.08193,-0.10356 0.13682,-0.11006 z m -17.639382,0.0394 c 0.09805,0 0.154231,0.0377 0.124797,0.0839 -0.02943,0.0462 -0.109992,0.0839 -0.17861,0.0839 -0.06861,0 -0.124226,-0.0377 -0.124226,-0.0839 0,-0.0461 0.07999,-0.0839 0.178039,-0.0839 z m -7.616083,2.77419 c 0.105001,0 0.09883,1.4568 -0.01032,2.38177 -0.05006,0.42422 -0.195549,1.01935 -0.338902,1.38737 -0.138037,0.35437 -0.347875,0.90865 -0.466558,1.2323 -0.118683,0.32363 -0.242817,0.65503 -0.275929,0.73592 -0.04856,0.11872 -0.167197,0.14674 -0.613683,0.14674 -0.47239,0 -0.553574,-0.0216 -0.553574,-0.14896 0,-0.082 0.432083,-1.24555 0.960025,-2.58521 0.527945,-1.33965 1.018223,-2.59602 1.089974,-2.79252 0.07176,-0.1965 0.165814,-0.35741 0.20895,-0.35741 z m 66.759792,0.0439 c 0.0825,0.0131 0.20168,0.30416 0.75909,1.76313 0.17664,0.46234 0.58062,1.50999 0.8982,2.32784 0.31757,0.81785 0.57761,1.54586 0.57761,1.61805 0,0.10261 -0.10118,0.13117 -0.46541,0.13117 -0.27802,0 -0.50371,-0.0444 -0.55987,-0.11006 -0.15405,-0.18022 -0.97415,-2.41056 -1.09971,-2.99096 -0.16123,-0.74534 -0.26231,-2.65939 -0.14426,-2.73028 0.0115,-0.007 0.0226,-0.0108 0.0344,-0.009 z m -61.707783,1.24786 c 1.046616,0.0156 1.937134,0.32194 2.078049,0.78651 0.05577,0.18386 0.160491,0.29669 0.325162,0.3524 0.133385,0.0452 0.242152,0.13998 0.242152,0.2101 0,0.22998 -0.508946,0.69687 -0.969755,0.88935 -0.402008,0.16787 -0.629027,0.19227 -2.05687,0.22067 -1.546607,0.0308 -1.621263,0.0242 -2.048281,-0.16954 -0.534176,-0.24238 -0.725889,-0.48445 -0.725889,-0.91824 0,-0.59787 0.721823,-1.04408 2.078624,-1.2851 0.361439,-0.0642 0.727937,-0.0914 1.076808,-0.0861 z m 16.136086,0.83431 c 0.0947,-0.0127 0.168475,0.0816 0.202083,0.26959 0.01855,0.10382 0.187846,0.24179 0.443088,0.36017 1.072254,0.49731 2.771359,0.47959 3.946005,-0.0412 0.254812,-0.1129 0.56655,-0.2115 0.692683,-0.22011 0.202282,-0.0129 0.227081,0.0141 0.211239,0.22845 -0.02269,0.30683 -0.261652,0.55527 -0.783706,0.8143 -0.388469,0.19275 -0.493968,0.20362 -2.011643,0.209 -1.646002,0.006 -2.091849,-0.055 -2.55663,-0.35073 -0.428706,-0.27274 -0.566614,-0.96102 -0.244444,-1.22062 0.03552,-0.0286 0.06976,-0.0447 0.101325,-0.0489 z m 18.877625,0.14007 c 0.07894,-0.005 0.20375,0.0628 0.414468,0.219 0.210937,0.15634 0.547717,0.32576 0.748211,0.3763 0.200494,0.0505 0.48405,0.12685 0.630284,0.17009 0.146235,0.0432 0.697889,0.0789 1.225649,0.0789 0.788264,0 1.070641,-0.0365 1.582296,-0.20455 0.342563,-0.11253 0.6994,-0.27189 0.792865,-0.35407 0.14624,-0.12853 0.181184,-0.13231 0.251883,-0.0267 0.225581,0.33706 -0.242521,0.89591 -0.945141,1.12836 -0.277676,0.0918 -0.692457,0.12585 -1.435741,0.11617 -1.823941,-0.0227 -2.384646,-0.0921 -2.795924,-0.34739 -0.519527,-0.32245 -0.785441,-0.88433 -0.534109,-1.12836 0.01759,-0.0171 0.03895,-0.0262 0.06526,-0.0278 z m 19.04307,0.009 c 0.110092,0.002 0.283005,0.084 0.535255,0.24679 0.738591,0.47683 1.38206,0.63032 2.640778,0.63032 1.29263,0 1.80694,-0.13463 2.15362,-0.56473 0.207,-0.25685 0.20839,-0.25726 0.30913,-0.0745 0.20291,0.36812 -0.0715,0.77031 -0.73104,1.0711 -0.38466,0.17539 -0.5486,0.19644 -1.47181,0.18676 -1.661301,-0.017 -2.42031,-0.1128 -2.856027,-0.36073 -0.476189,-0.27097 -0.737334,-0.58952 -0.737334,-0.89935 0,-0.1587 0.04733,-0.23749 0.157428,-0.23567 z m -0.190631,1.62026 c 0.01035,0.002 0.02131,0.006 0.0332,0.0133 0.04761,0.0286 0.08701,0.0685 0.08701,0.0889 0,0.0204 -0.03939,0.0373 -0.08701,0.0373 -0.04761,0 -0.08644,-0.04 -0.08644,-0.0889 0,-0.0368 0.02219,-0.0556 0.05324,-0.0506 z m 0.706421,0.24624 c 0.05584,-0.008 0.106478,0.036 0.106478,0.1384 0,0.10328 -0.05593,0.1751 -0.136246,0.1751 -0.08062,0 -0.124767,-0.0572 -0.108195,-0.14007 0.02107,-0.10544 0.08212,-0.16544 0.137963,-0.17343 z m -52.533449,0.0228 c 0.06745,-0.007 0.12995,0.0316 0.12995,0.12173 0,0.0687 -0.07149,0.13818 -0.159146,0.15453 -0.115699,0.0217 -0.151082,-0.0127 -0.128804,-0.12507 0.01823,-0.0919 0.09055,-0.14421 0.158,-0.15119 z m 33.338107,0.0389 c 0.04481,0 0.08129,0.0562 0.08129,0.12561 0,0.13004 -0.102281,0.16747 -0.199791,0.0728 -0.06917,-0.0672 0.0093,-0.19842 0.118502,-0.19842 z m -14.233785,0.0149 c 0.01114,-0.004 0.02327,-0.003 0.03606,9.7e-4 0.05119,0.0166 0.09331,0.0656 0.09331,0.10949 0,0.0439 -0.04212,0.0935 -0.09331,0.11006 -0.05119,0.0166 -0.09274,-0.033 -0.09274,-0.11006 0,-0.0578 0.0233,-0.10006 0.05667,-0.11061 z m 19.25488,0.0689 c 0.05043,0 0.06779,0.0377 0.03836,0.0839 -0.02944,0.0461 -0.0706,0.0839 -0.09159,0.0839 -0.02099,0 -0.03836,-0.0377 -0.03836,-0.0839 0,-0.0462 0.04117,-0.0839 0.09159,-0.0839 z m -39.228778,0.0917 c 0.04556,-0.007 0.102155,0.0302 0.172312,0.11227 0.08193,0.0958 0.06874,0.13796 -0.06469,0.20733 -0.203492,0.10577 -0.27257,0.0531 -0.214102,-0.16396 0.02611,-0.097 0.06092,-0.14861 0.106478,-0.15564 z m 19.268621,0.0551 c 0.0476,-0.004 0.09454,0.0385 0.112202,0.12672 0.01794,0.0917 -0.02439,0.14674 -0.113348,0.14674 -0.08318,0 -0.130821,-0.0545 -0.114492,-0.13062 0.01958,-0.0913 0.06794,-0.13938 0.115638,-0.14284 z m 19.220531,0 c 0.0476,-0.004 0.09454,0.0385 0.112203,0.12672 0.01794,0.0917 -0.02436,0.14674 -0.113349,0.14674 -0.08317,0 -0.13082,-0.0545 -0.114491,-0.13062 0.01958,-0.0913 0.06793,-0.13938 0.115637,-0.14284 z m -22.722876,0.0211 c 0.04481,0 0.08186,0.0568 0.08186,0.12618 0,0.13004 -0.102284,0.16692 -0.19979,0.0722 -0.06917,-0.0672 0.0088,-0.19843 0.117927,-0.19843 z m 19.220531,0 c 0.04481,0 0.08129,0.0568 0.08129,0.12618 3e-6,0.13004 -0.102281,0.16692 -0.19979,0.0722 -0.06917,-0.0672 0.0093,-0.19843 0.118501,-0.19843 z m 19.201641,0.0217 c 0.05328,-0.008 0.100183,0.0236 0.100183,0.0978 0,0.0732 -0.062,0.13285 -0.137392,0.13285 -0.0754,0 -0.121327,-0.0452 -0.102471,-0.10006 0.02676,-0.078 0.0864,-0.12323 0.13968,-0.13062 z m -16.560856,0.23068 c 0.02099,0 0.03778,0.0377 0.03778,0.0839 0,0.0461 -0.04117,0.0839 -0.09159,0.0839 -0.05043,0 -0.06779,-0.0377 -0.03836,-0.0839 0.02944,-0.0462 0.07117,-0.0839 0.09217,-0.0839 z"
         id="path4214"
         inkscape:connector-curvature="0" />
    </g>
  </g>
</svg>
